<svg width="237" height="55" viewBox="0 0 237 55" fill="none" xmlns="http://www.w3.org/2000/svg">
<path fill-rule="evenodd" clip-rule="evenodd" d="M173.857 10.9834C174.077 10.9838 174.296 10.9399 174.499 10.8545C174.702 10.769 174.885 10.6438 175.037 10.4863L177.399 8.05185C177.545 7.90159 177.72 7.78208 177.914 7.70056C178.108 7.61904 178.317 7.57719 178.528 7.57754H178.626C179.072 7.57754 179.5 7.76612 179.796 8.09757L181.787 10.3177C181.974 10.527 182.204 10.6946 182.462 10.8093C182.72 10.9241 183 10.9834 183.283 10.9834H188.617C186.025 7.5707 182.663 4.80125 178.797 2.89475C174.932 0.988238 170.67 -0.00287855 166.349 6.2796e-06C162.028 -0.00287855 157.766 0.988238 153.901 2.89475C150.035 4.80125 146.673 7.5707 144.081 10.9834H173.857ZM176.67 18.3981H181.581V18.401H192.634C193.398 20.5554 193.899 22.8298 194.096 25.1899H173.393C173.111 25.1899 172.831 25.1305 172.573 25.0158C172.315 24.901 172.085 24.7334 171.897 24.5241L169.906 22.3069C169.76 22.1428 169.58 22.0113 169.378 21.9212C169.177 21.831 168.958 21.7843 168.737 21.784H168.638C168.427 21.784 168.218 21.8263 168.024 21.9083C167.83 21.9903 167.655 22.1104 167.509 22.2612L165.148 24.6927C164.995 24.8502 164.812 24.9755 164.609 25.0609C164.406 25.1464 164.188 25.1903 163.967 25.1899H138.599C138.792 22.8748 139.283 20.5934 140.061 18.401H166.931C167.776 18.401 168.58 18.0438 169.136 17.4209L170.844 15.5151C170.99 15.3505 171.17 15.2186 171.372 15.1283C171.575 15.038 171.794 14.9912 172.016 14.9912C172.238 14.9912 172.457 15.038 172.659 15.1283C172.861 15.2186 173.042 15.3505 173.188 15.5151L175.179 17.7352C175.555 18.1552 176.102 18.3981 176.67 18.3981ZM155.131 38.962C154.978 39.1195 154.795 39.2448 154.592 39.3302C154.389 39.4157 154.171 39.4596 153.95 39.4592V39.462H141.259C140.195 37.2859 139.429 34.9799 138.981 32.6045H157.041C157.886 32.6045 158.691 32.2474 159.246 31.6245L160.954 29.7187C161.1 29.5541 161.281 29.4222 161.483 29.3319C161.685 29.2416 161.904 29.1948 162.126 29.1948C162.348 29.1948 162.567 29.2416 162.77 29.3319C162.972 29.4222 163.152 29.5541 163.298 29.7187L165.287 31.9388C165.669 32.3617 166.213 32.6045 166.783 32.6045H193.717C193.267 34.98 192.5 37.2859 191.436 39.462H163.379C163.096 39.4617 162.816 39.4019 162.558 39.2866C162.3 39.1714 162.07 39.0032 161.883 38.7934L159.892 36.5733C159.745 36.4098 159.565 36.2789 159.364 36.1892C159.162 36.0995 158.944 36.0532 158.723 36.0533H158.624C158.413 36.0533 158.204 36.0956 158.01 36.1776C157.816 36.2596 157.641 36.3797 157.495 36.5305L155.134 38.9592L155.131 38.962ZM155.84 46.2567H186.71C184.107 49.0187 180.956 51.2208 177.452 52.7253C173.948 54.2297 170.167 55.0041 166.346 55C162.525 55.0039 158.745 54.2294 155.242 52.7249C151.738 51.2205 148.587 49.0185 145.985 46.2567H146.101C146.94 46.2567 147.745 45.8995 148.303 45.2766L150.011 43.3708C150.157 43.2062 150.338 43.0744 150.54 42.984C150.742 42.8937 150.961 42.847 151.183 42.847C151.405 42.847 151.624 42.8937 151.826 42.984C152.029 43.0744 152.209 43.2062 152.355 43.3708L154.344 45.5909C154.723 46.0138 155.27 46.2567 155.84 46.2567ZM43.208 53.2227L37.5411 39.6335H12.2194L6.55254 53.2227H0L24.8441 1.77724L49.7605 53.2227H43.208ZM14.3554 34.4761H35.3328L24.8094 12.5549L14.3554 34.4761ZM58.8108 1.77724V53.2227H64.9176V31.2788H73.2357C84.2772 31.2788 90.6068 26.2642 90.6068 16.598C90.6068 6.93465 84.6447 1.77724 73.308 1.77724H58.8108ZM71.8377 25.9013H64.9205V7.1518H71.8377C80.5204 7.1518 84.4277 10.132 84.4277 16.598C84.4277 23.0669 80.5986 25.9013 71.8377 25.9013ZM112.797 7.30038H94.8382V1.77438H136.868V7.29467H118.907V53.2199H112.797V7.30038ZM207.959 40.3249L202.698 43.848C206.894 51.5484 212.486 54.6 220.584 54.6C230.227 54.6 237 47.9882 237 40.2135C237 33.0931 234.054 28.6615 222.054 23.2812C212.853 19.1381 210.72 16.8866 210.72 12.9664C210.72 8.75189 214.031 5.62315 219.698 5.62315C224.338 5.62315 227.061 7.58897 229.27 11.0034L230.52 11.2949L234.792 8.38901C231.993 3.4459 227.061 0.394312 219.846 0.394312C210.055 0.394312 204.388 5.98889 204.388 13.1093C204.388 19.6496 208.069 24.227 218.888 28.6615C228.312 32.5131 230.667 35.6333 230.667 40.2878C230.667 45.2309 226.471 49.2997 220.509 49.2997C215.134 49.2997 211.6 46.9739 208.364 41.1593L207.959 40.3249Z" fill="#27DEEA"/>
</svg>
