<svg width="240" height="57" viewBox="0 0 240 57" fill="none" xmlns="http://www.w3.org/2000/svg">
<mask id="path-1-outside-1_602_333" maskUnits="userSpaceOnUse" x="0" y="0" width="240" height="57" fill="black">
<rect fill="white" width="240" height="57"/>
<path fill-rule="evenodd" clip-rule="evenodd" d="M175.857 11.9834C176.077 11.9838 176.296 11.9399 176.499 11.8545C176.702 11.769 176.885 11.6438 177.037 11.4863L179.399 9.05185C179.545 8.90159 179.72 8.78208 179.914 8.70056C180.108 8.61904 180.317 8.57719 180.528 8.57754H180.626C181.072 8.57754 181.5 8.76612 181.796 9.09757L183.787 11.3177C183.974 11.527 184.204 11.6946 184.462 11.8093C184.72 11.9241 185 11.9834 185.283 11.9834H190.617C188.025 8.5707 184.663 5.80125 180.797 3.89475C176.932 1.98824 172.67 0.997121 168.349 1.00001C164.028 0.997121 159.766 1.98824 155.901 3.89475C152.035 5.80125 148.673 8.5707 146.081 11.9834H175.857ZM178.67 19.3981H183.581V19.401H194.634C195.398 21.5554 195.899 23.8298 196.096 26.1899H175.393C175.111 26.1899 174.831 26.1305 174.573 26.0158C174.315 25.901 174.085 25.7334 173.897 25.5241L171.906 23.3069C171.76 23.1428 171.58 23.0113 171.378 22.9212C171.177 22.831 170.958 22.7843 170.737 22.784H170.638C170.427 22.784 170.218 22.8263 170.024 22.9083C169.83 22.9903 169.655 23.1104 169.509 23.2612L167.148 25.6927C166.995 25.8502 166.812 25.9755 166.609 26.0609C166.406 26.1464 166.188 26.1903 165.967 26.1899H140.599C140.792 23.8748 141.283 21.5934 142.061 19.401H168.931C169.776 19.401 170.58 19.0438 171.136 18.4209L172.844 16.5151C172.99 16.3505 173.17 16.2186 173.372 16.1283C173.575 16.038 173.794 15.9912 174.016 15.9912C174.238 15.9912 174.457 16.038 174.659 16.1283C174.861 16.2186 175.042 16.3505 175.188 16.5151L177.179 18.7352C177.555 19.1552 178.102 19.3981 178.67 19.3981ZM157.131 39.962C156.978 40.1195 156.795 40.2448 156.592 40.3302C156.389 40.4157 156.171 40.4596 155.95 40.4592V40.462H143.259C142.195 38.2859 141.429 35.9799 140.981 33.6045H159.041C159.886 33.6045 160.691 33.2474 161.246 32.6245L162.954 30.7187C163.1 30.5541 163.281 30.4222 163.483 30.3319C163.685 30.2416 163.904 30.1948 164.126 30.1948C164.348 30.1948 164.567 30.2416 164.77 30.3319C164.972 30.4222 165.152 30.5541 165.298 30.7187L167.287 32.9388C167.669 33.3617 168.213 33.6045 168.783 33.6045H195.717C195.267 35.98 194.5 38.2859 193.436 40.462H165.379C165.096 40.4617 164.816 40.4019 164.558 40.2866C164.3 40.1714 164.07 40.0032 163.883 39.7934L161.892 37.5733C161.745 37.4098 161.565 37.2789 161.364 37.1892C161.162 37.0995 160.944 37.0532 160.723 37.0533H160.624C160.413 37.0533 160.204 37.0956 160.01 37.1776C159.816 37.2596 159.641 37.3797 159.495 37.5305L157.134 39.9592L157.131 39.962ZM157.84 47.2567H188.71C186.107 50.0187 182.956 52.2208 179.452 53.7253C175.948 55.2297 172.167 56.0041 168.346 56C164.525 56.0039 160.745 55.2294 157.242 53.7249C153.738 52.2205 150.587 50.0185 147.985 47.2567H148.101C148.94 47.2567 149.745 46.8995 150.303 46.2766L152.011 44.3708C152.157 44.2062 152.338 44.0744 152.54 43.984C152.742 43.8937 152.961 43.847 153.183 43.847C153.405 43.847 153.624 43.8937 153.826 43.984C154.029 44.0744 154.209 44.2062 154.355 44.3708L156.344 46.5909C156.723 47.0138 157.27 47.2567 157.84 47.2567ZM45.208 54.2227L39.5411 40.6335H14.2194L8.55254 54.2227H2L26.8441 2.77724L51.7605 54.2227H45.208ZM16.3554 35.4761H37.3328L26.8094 13.5549L16.3554 35.4761ZM60.8108 2.77724V54.2227H66.9176V32.2788H75.2357C86.2772 32.2788 92.6068 27.2642 92.6068 17.598C92.6068 7.93465 86.6447 2.77724 75.308 2.77724H60.8108ZM73.8377 26.9013H66.9205V8.1518H73.8377C82.5204 8.1518 86.4277 11.132 86.4277 17.598C86.4277 24.0669 82.5986 26.9013 73.8377 26.9013ZM114.797 8.30038H96.8382V2.77438H138.868V8.29467H120.907V54.2199H114.797V8.30038ZM209.959 41.3249L204.698 44.848C208.894 52.5484 214.486 55.6 222.584 55.6C232.227 55.6 239 48.9882 239 41.2135C239 34.0931 236.054 29.6615 224.054 24.2812C214.853 20.1381 212.72 17.8866 212.72 13.9664C212.72 9.75189 216.031 6.62315 221.698 6.62315C226.338 6.62315 229.061 8.58897 231.27 12.0034L232.52 12.2949L236.792 9.38901C233.993 4.4459 229.061 1.39431 221.846 1.39431C212.055 1.39431 206.388 6.98889 206.388 14.1093C206.388 20.6496 210.069 25.227 220.888 29.6615C230.312 33.5131 232.667 36.6333 232.667 41.2878C232.667 46.2309 228.471 50.2997 222.509 50.2997C217.134 50.2997 213.6 47.9739 210.364 42.1593L209.959 41.3249Z"/>
</mask>
<path fill-rule="evenodd" clip-rule="evenodd" d="M175.857 11.9834C176.077 11.9838 176.296 11.9399 176.499 11.8545C176.702 11.769 176.885 11.6438 177.037 11.4863L179.399 9.05185C179.545 8.90159 179.72 8.78208 179.914 8.70056C180.108 8.61904 180.317 8.57719 180.528 8.57754H180.626C181.072 8.57754 181.5 8.76612 181.796 9.09757L183.787 11.3177C183.974 11.527 184.204 11.6946 184.462 11.8093C184.72 11.9241 185 11.9834 185.283 11.9834H190.617C188.025 8.5707 184.663 5.80125 180.797 3.89475C176.932 1.98824 172.67 0.997121 168.349 1.00001C164.028 0.997121 159.766 1.98824 155.901 3.89475C152.035 5.80125 148.673 8.5707 146.081 11.9834H175.857ZM178.67 19.3981H183.581V19.401H194.634C195.398 21.5554 195.899 23.8298 196.096 26.1899H175.393C175.111 26.1899 174.831 26.1305 174.573 26.0158C174.315 25.901 174.085 25.7334 173.897 25.5241L171.906 23.3069C171.76 23.1428 171.58 23.0113 171.378 22.9212C171.177 22.831 170.958 22.7843 170.737 22.784H170.638C170.427 22.784 170.218 22.8263 170.024 22.9083C169.83 22.9903 169.655 23.1104 169.509 23.2612L167.148 25.6927C166.995 25.8502 166.812 25.9755 166.609 26.0609C166.406 26.1464 166.188 26.1903 165.967 26.1899H140.599C140.792 23.8748 141.283 21.5934 142.061 19.401H168.931C169.776 19.401 170.58 19.0438 171.136 18.4209L172.844 16.5151C172.99 16.3505 173.17 16.2186 173.372 16.1283C173.575 16.038 173.794 15.9912 174.016 15.9912C174.238 15.9912 174.457 16.038 174.659 16.1283C174.861 16.2186 175.042 16.3505 175.188 16.5151L177.179 18.7352C177.555 19.1552 178.102 19.3981 178.67 19.3981ZM157.131 39.962C156.978 40.1195 156.795 40.2448 156.592 40.3302C156.389 40.4157 156.171 40.4596 155.95 40.4592V40.462H143.259C142.195 38.2859 141.429 35.9799 140.981 33.6045H159.041C159.886 33.6045 160.691 33.2474 161.246 32.6245L162.954 30.7187C163.1 30.5541 163.281 30.4222 163.483 30.3319C163.685 30.2416 163.904 30.1948 164.126 30.1948C164.348 30.1948 164.567 30.2416 164.77 30.3319C164.972 30.4222 165.152 30.5541 165.298 30.7187L167.287 32.9388C167.669 33.3617 168.213 33.6045 168.783 33.6045H195.717C195.267 35.98 194.5 38.2859 193.436 40.462H165.379C165.096 40.4617 164.816 40.4019 164.558 40.2866C164.3 40.1714 164.07 40.0032 163.883 39.7934L161.892 37.5733C161.745 37.4098 161.565 37.2789 161.364 37.1892C161.162 37.0995 160.944 37.0532 160.723 37.0533H160.624C160.413 37.0533 160.204 37.0956 160.01 37.1776C159.816 37.2596 159.641 37.3797 159.495 37.5305L157.134 39.9592L157.131 39.962ZM157.84 47.2567H188.71C186.107 50.0187 182.956 52.2208 179.452 53.7253C175.948 55.2297 172.167 56.0041 168.346 56C164.525 56.0039 160.745 55.2294 157.242 53.7249C153.738 52.2205 150.587 50.0185 147.985 47.2567H148.101C148.94 47.2567 149.745 46.8995 150.303 46.2766L152.011 44.3708C152.157 44.2062 152.338 44.0744 152.54 43.984C152.742 43.8937 152.961 43.847 153.183 43.847C153.405 43.847 153.624 43.8937 153.826 43.984C154.029 44.0744 154.209 44.2062 154.355 44.3708L156.344 46.5909C156.723 47.0138 157.27 47.2567 157.84 47.2567ZM45.208 54.2227L39.5411 40.6335H14.2194L8.55254 54.2227H2L26.8441 2.77724L51.7605 54.2227H45.208ZM16.3554 35.4761H37.3328L26.8094 13.5549L16.3554 35.4761ZM60.8108 2.77724V54.2227H66.9176V32.2788H75.2357C86.2772 32.2788 92.6068 27.2642 92.6068 17.598C92.6068 7.93465 86.6447 2.77724 75.308 2.77724H60.8108ZM73.8377 26.9013H66.9205V8.1518H73.8377C82.5204 8.1518 86.4277 11.132 86.4277 17.598C86.4277 24.0669 82.5986 26.9013 73.8377 26.9013ZM114.797 8.30038H96.8382V2.77438H138.868V8.29467H120.907V54.2199H114.797V8.30038ZM209.959 41.3249L204.698 44.848C208.894 52.5484 214.486 55.6 222.584 55.6C232.227 55.6 239 48.9882 239 41.2135C239 34.0931 236.054 29.6615 224.054 24.2812C214.853 20.1381 212.72 17.8866 212.72 13.9664C212.72 9.75189 216.031 6.62315 221.698 6.62315C226.338 6.62315 229.061 8.58897 231.27 12.0034L232.52 12.2949L236.792 9.38901C233.993 4.4459 229.061 1.39431 221.846 1.39431C212.055 1.39431 206.388 6.98889 206.388 14.1093C206.388 20.6496 210.069 25.227 220.888 29.6615C230.312 33.5131 232.667 36.6333 232.667 41.2878C232.667 46.2309 228.471 50.2997 222.509 50.2997C217.134 50.2997 213.6 47.9739 210.364 42.1593L209.959 41.3249Z" fill="white"/>
<path fill-rule="evenodd" clip-rule="evenodd" d="M175.857 11.9834C176.077 11.9838 176.296 11.9399 176.499 11.8545C176.702 11.769 176.885 11.6438 177.037 11.4863L179.399 9.05185C179.545 8.90159 179.72 8.78208 179.914 8.70056C180.108 8.61904 180.317 8.57719 180.528 8.57754H180.626C181.072 8.57754 181.5 8.76612 181.796 9.09757L183.787 11.3177C183.974 11.527 184.204 11.6946 184.462 11.8093C184.72 11.9241 185 11.9834 185.283 11.9834H190.617C188.025 8.5707 184.663 5.80125 180.797 3.89475C176.932 1.98824 172.67 0.997121 168.349 1.00001C164.028 0.997121 159.766 1.98824 155.901 3.89475C152.035 5.80125 148.673 8.5707 146.081 11.9834H175.857ZM178.67 19.3981H183.581V19.401H194.634C195.398 21.5554 195.899 23.8298 196.096 26.1899H175.393C175.111 26.1899 174.831 26.1305 174.573 26.0158C174.315 25.901 174.085 25.7334 173.897 25.5241L171.906 23.3069C171.76 23.1428 171.58 23.0113 171.378 22.9212C171.177 22.831 170.958 22.7843 170.737 22.784H170.638C170.427 22.784 170.218 22.8263 170.024 22.9083C169.83 22.9903 169.655 23.1104 169.509 23.2612L167.148 25.6927C166.995 25.8502 166.812 25.9755 166.609 26.0609C166.406 26.1464 166.188 26.1903 165.967 26.1899H140.599C140.792 23.8748 141.283 21.5934 142.061 19.401H168.931C169.776 19.401 170.58 19.0438 171.136 18.4209L172.844 16.5151C172.99 16.3505 173.17 16.2186 173.372 16.1283C173.575 16.038 173.794 15.9912 174.016 15.9912C174.238 15.9912 174.457 16.038 174.659 16.1283C174.861 16.2186 175.042 16.3505 175.188 16.5151L177.179 18.7352C177.555 19.1552 178.102 19.3981 178.67 19.3981ZM157.131 39.962C156.978 40.1195 156.795 40.2448 156.592 40.3302C156.389 40.4157 156.171 40.4596 155.95 40.4592V40.462H143.259C142.195 38.2859 141.429 35.9799 140.981 33.6045H159.041C159.886 33.6045 160.691 33.2474 161.246 32.6245L162.954 30.7187C163.1 30.5541 163.281 30.4222 163.483 30.3319C163.685 30.2416 163.904 30.1948 164.126 30.1948C164.348 30.1948 164.567 30.2416 164.77 30.3319C164.972 30.4222 165.152 30.5541 165.298 30.7187L167.287 32.9388C167.669 33.3617 168.213 33.6045 168.783 33.6045H195.717C195.267 35.98 194.5 38.2859 193.436 40.462H165.379C165.096 40.4617 164.816 40.4019 164.558 40.2866C164.3 40.1714 164.07 40.0032 163.883 39.7934L161.892 37.5733C161.745 37.4098 161.565 37.2789 161.364 37.1892C161.162 37.0995 160.944 37.0532 160.723 37.0533H160.624C160.413 37.0533 160.204 37.0956 160.01 37.1776C159.816 37.2596 159.641 37.3797 159.495 37.5305L157.134 39.9592L157.131 39.962ZM157.84 47.2567H188.71C186.107 50.0187 182.956 52.2208 179.452 53.7253C175.948 55.2297 172.167 56.0041 168.346 56C164.525 56.0039 160.745 55.2294 157.242 53.7249C153.738 52.2205 150.587 50.0185 147.985 47.2567H148.101C148.94 47.2567 149.745 46.8995 150.303 46.2766L152.011 44.3708C152.157 44.2062 152.338 44.0744 152.54 43.984C152.742 43.8937 152.961 43.847 153.183 43.847C153.405 43.847 153.624 43.8937 153.826 43.984C154.029 44.0744 154.209 44.2062 154.355 44.3708L156.344 46.5909C156.723 47.0138 157.27 47.2567 157.84 47.2567ZM45.208 54.2227L39.5411 40.6335H14.2194L8.55254 54.2227H2L26.8441 2.77724L51.7605 54.2227H45.208ZM16.3554 35.4761H37.3328L26.8094 13.5549L16.3554 35.4761ZM60.8108 2.77724V54.2227H66.9176V32.2788H75.2357C86.2772 32.2788 92.6068 27.2642 92.6068 17.598C92.6068 7.93465 86.6447 2.77724 75.308 2.77724H60.8108ZM73.8377 26.9013H66.9205V8.1518H73.8377C82.5204 8.1518 86.4277 11.132 86.4277 17.598C86.4277 24.0669 82.5986 26.9013 73.8377 26.9013ZM114.797 8.30038H96.8382V2.77438H138.868V8.29467H120.907V54.2199H114.797V8.30038ZM209.959 41.3249L204.698 44.848C208.894 52.5484 214.486 55.6 222.584 55.6C232.227 55.6 239 48.9882 239 41.2135C239 34.0931 236.054 29.6615 224.054 24.2812C214.853 20.1381 212.72 17.8866 212.72 13.9664C212.72 9.75189 216.031 6.62315 221.698 6.62315C226.338 6.62315 229.061 8.58897 231.27 12.0034L232.52 12.2949L236.792 9.38901C233.993 4.4459 229.061 1.39431 221.846 1.39431C212.055 1.39431 206.388 6.98889 206.388 14.1093C206.388 20.6496 210.069 25.227 220.888 29.6615C230.312 33.5131 232.667 36.6333 232.667 41.2878C232.667 46.2309 228.471 50.2997 222.509 50.2997C217.134 50.2997 213.6 47.9739 210.364 42.1593L209.959 41.3249Z" stroke="#EC912F" stroke-width="2" mask="url(#path-1-outside-1_602_333)"/>
</svg>
