<svg width="254" height="56" viewBox="0 0 254 56" fill="none" xmlns="http://www.w3.org/2000/svg">
<mask id="mask0_602_335" style="mask-type:luminance" maskUnits="userSpaceOnUse" x="0" y="0" width="254" height="56">
<path d="M0 0H254V56H0V0Z" fill="white"/>
</mask>
<g mask="url(#mask0_602_335)">
<path d="M41.683 4.0271C38.9979 4.0271 36.792 6.18405 36.792 8.86574C36.792 11.5474 38.9994 13.5869 41.683 13.5869C44.3667 13.5869 46.5741 11.43 46.5741 8.86574C46.5741 6.3015 44.426 4.0271 41.683 4.0271Z" fill="white"/>
<path d="M45.6794 16.5508H37.7456V45.2272H45.6794V16.5508Z" fill="white"/>
<path d="M129.785 15.7927C126.624 15.7927 123.105 17.1336 121.314 20.1066V16.5509H113.619V45.2272H121.553V28.7329C121.553 25.4106 123.581 22.7882 127.04 22.7882C130.857 22.7882 132.468 25.2947 132.468 28.4996V45.2272H140.402V27.1586C140.402 20.8648 137.061 15.7927 129.785 15.7927Z" fill="white"/>
<path d="M158.818 15.6768C150.049 15.6768 143.428 22.0301 143.428 30.8882C143.428 39.7463 150.049 46.1013 158.818 46.1013C167.587 46.1013 174.208 39.6899 174.208 30.8882C174.208 22.0865 167.587 15.6768 158.818 15.6768ZM158.818 39.0493C154.94 39.0493 151.362 36.2517 151.362 30.8897C151.362 25.5279 154.94 22.7303 158.818 22.7303C162.696 22.7303 166.274 25.47 166.274 30.8897C166.274 36.3097 162.696 39.0493 158.818 39.0493Z" fill="white"/>
<path d="M210.958 15.7346C207.08 15.7346 203.98 17.0175 201.652 20.5138C200.161 17.4248 196.939 15.7346 192.944 15.7346C189.724 15.7346 185.966 17.2494 184.355 20.047V16.5507H176.778V45.2271H184.712V28.4413C184.712 25.2946 186.74 22.7881 190.2 22.7881C193.659 22.7881 195.389 25.119 195.389 28.2096V45.2286H203.263V28.4428C203.263 25.354 205.291 22.7896 208.691 22.7896C212.331 22.7896 213.881 25.1205 213.881 28.2111V45.2301H221.575V26.6383C221.575 18.9441 216.387 15.7392 210.958 15.7392V15.7346Z" fill="white"/>
<path d="M245.504 16.5508L238.287 33.3366L230.474 16.5508H221.586L234.052 41.6119L227.133 56.5336H235.543L253.976 16.5508H245.504Z" fill="white"/>
<path d="M64.078 39.0478C60.1999 39.0478 56.6218 36.2502 56.6218 30.8882C56.6218 25.5264 60.2016 22.7288 64.078 22.7288C66.4835 22.7288 68.6068 23.7859 69.8729 25.8833L77.3556 23.4854C74.9483 18.7017 70.1273 15.6768 64.078 15.6768C55.3089 15.6768 48.688 22.0301 48.688 30.8882C48.688 39.7463 55.3089 46.1013 64.078 46.1013C71.3654 46.1013 76.8669 41.6699 78.517 35.1214H70.2773C69.0971 37.7314 66.7647 39.0478 64.078 39.0478Z" fill="white"/>
<path d="M95.2225 15.6768C86.4534 15.6768 79.8325 22.0301 79.8325 30.8882C79.8325 39.7463 86.4534 46.1013 95.2225 46.1013C103.991 46.1013 110.612 39.6899 110.612 30.8882C110.612 22.0865 103.991 15.6768 95.2225 15.6768ZM95.2225 39.0493C91.3444 39.0493 87.7663 36.2517 87.7663 30.8897C87.7663 25.5279 91.3462 22.7303 95.2225 22.7303C99.0989 22.7303 102.679 25.47 102.679 30.8897C102.679 36.3097 99.0989 39.0493 95.2225 39.0493Z" fill="white"/>
<path d="M27.2806 20.1127C28.9073 18.006 29.2462 15.9833 29.2462 13.564C29.2462 11.1447 26.9918 3.89893 18.777 3.89893H-0.0708008V45.1998H20.2882C30.4295 45.1998 34.7101 38.3368 34.7101 31.0941C34.7101 27.7733 33.2958 23.4641 27.2806 20.1127ZM7.88953 10.2371H17.4891C19.6981 10.2371 21.4872 11.9867 21.4872 14.1437C21.4872 16.3022 19.6966 18.0503 17.4891 18.0503H7.88953V10.2371ZM19.3484 38.8617H7.88953V24.39H19.3484C23.4386 24.39 26.7529 27.63 26.7529 31.625C26.7529 36.0548 23.8056 38.8617 19.3484 38.8617Z" fill="white"/>
</g>
</svg>
