<svg width="242" height="65" viewBox="0 0 242 65" fill="none" xmlns="http://www.w3.org/2000/svg">
<mask id="mask0_602_216" style="mask-type:luminance" maskUnits="userSpaceOnUse" x="0" y="0" width="242" height="65">
<path d="M0 0H242V64.7059H0V0Z" fill="white"/>
</mask>
<g mask="url(#mask0_602_216)">
<path d="M240.785 18.8224C241.089 18.8224 241.328 18.9104 241.501 19.0863C241.675 19.2623 241.762 19.5042 241.762 19.8122V25.8168C241.762 26.1247 241.675 26.3667 241.501 26.5426C241.328 26.7186 241.089 26.8066 240.785 26.8066H235.577V50.6651C235.577 50.9731 235.49 51.2148 235.316 51.3908C235.143 51.5668 234.904 51.6548 234.6 51.6548H226.788C226.484 51.6548 226.245 51.5668 226.072 51.3908C225.898 51.2148 225.811 50.9731 225.811 50.6651V26.8066H220.603C220.299 26.8066 220.061 26.7186 219.887 26.5426C219.713 26.3667 219.626 26.1247 219.626 25.8168V19.8122C219.626 19.5042 219.713 19.2623 219.887 19.0863C220.061 18.9104 220.299 18.8224 220.603 18.8224H225.811V10.4144C225.811 10.1064 225.898 9.86446 226.072 9.68853C226.245 9.51256 226.484 9.42456 226.788 9.42456H234.6C234.904 9.42456 235.143 9.51256 235.316 9.68853C235.49 9.86446 235.577 10.1064 235.577 10.4144V18.8224H240.785Z" fill="white"/>
<path d="M218.314 34.6825C218.314 36.1341 218.163 37.1901 217.858 37.8498C217.555 38.4658 216.925 38.7735 215.971 38.7735H196.635C197.112 40.5332 198.046 41.8748 199.434 42.7988C200.867 43.6785 202.668 44.1185 204.838 44.1185C205.923 44.1185 206.943 43.9865 207.898 43.7225C208.896 43.4145 209.938 42.9088 211.023 42.2048C211.24 42.0288 211.478 41.9408 211.739 41.9408C211.956 41.9408 212.195 42.0728 212.455 42.3368L215.84 45.6362C216.014 45.8119 216.101 46.0319 216.101 46.2959C216.101 46.5599 215.971 46.8239 215.71 47.0879C214.148 48.6712 212.347 49.9032 210.307 50.7829C208.31 51.6186 206.162 52.0366 203.861 52.0366C200.606 52.0366 197.677 51.2889 195.073 49.7932C192.512 48.2975 190.515 46.2739 189.083 43.7225C187.651 41.1712 186.935 38.3558 186.935 35.2765C186.935 32.1971 187.629 29.3818 189.018 26.8304C190.45 24.279 192.403 22.2774 194.877 20.8258C197.351 19.3301 200.107 18.5823 203.145 18.5823C206.14 18.5823 208.788 19.3081 211.088 20.7598C213.388 22.2114 215.168 24.169 216.426 26.6324C217.685 29.0958 218.314 31.7792 218.314 34.6825ZM203.21 26.9624C201.518 26.9624 200.064 27.4462 198.849 28.414C197.633 29.3378 196.852 30.7015 196.505 32.5051H209.656C209.352 30.7015 208.614 29.3378 207.442 28.414C206.27 27.4462 204.86 26.9624 203.21 26.9624Z" fill="white"/>
<path d="M182.678 19.3081C182.981 19.3081 183.22 19.3961 183.394 19.5721C183.567 19.748 183.654 19.99 183.654 20.2979V51.3769C183.654 54.5879 182.786 57.1833 181.05 59.163C179.358 61.1866 177.209 62.6163 174.605 63.452C172.044 64.2877 169.397 64.7057 166.662 64.7057C163.928 64.7057 161.302 64.3097 158.785 63.518C156.311 62.77 154.206 61.7583 152.47 60.4826C152.209 60.3066 152.079 60.0646 152.079 59.757C152.079 59.493 152.123 59.295 152.209 59.163L154.748 54.5439C155.009 54.1923 155.269 54.0163 155.53 54.0163C155.747 54.0163 155.92 54.0603 156.051 54.1483C157.526 55.0279 159.045 55.6656 160.608 56.0616C162.213 56.4576 163.972 56.6556 165.881 56.6556C168.095 56.6556 170.113 56.1716 171.936 55.2039C173.759 54.2799 174.67 52.7186 174.67 50.5189V47.4835C172.153 50.3869 169.028 51.8386 165.295 51.8386C162.387 51.8386 159.761 51.0909 157.418 49.5952C155.074 48.0995 153.229 46.0759 151.884 43.5245C150.582 40.9732 149.931 38.2018 149.931 35.2105C149.931 32.2191 150.582 29.4478 151.884 26.8964C153.229 24.345 155.074 22.3214 157.418 20.8258C159.761 19.3301 162.387 18.5823 165.295 18.5823C168.854 18.5823 171.892 20.012 174.41 22.8713L174.605 20.2979C174.692 19.638 175.017 19.3081 175.581 19.3081H182.678ZM166.532 42.7988C168.529 42.7988 170.221 42.0288 171.61 40.4892C172.999 38.9495 173.694 37.1681 173.694 35.1445C173.694 33.1208 172.999 31.3613 171.61 29.8657C170.221 28.326 168.529 27.5562 166.532 27.5562C164.492 27.5562 162.778 28.304 161.389 29.7997C160 31.2514 159.306 33.0331 159.306 35.1445C159.306 37.3001 159.979 39.1255 161.324 40.6212C162.713 42.0728 164.449 42.7988 166.532 42.7988Z" fill="white"/>
<path d="M146.658 18.8224C146.961 18.8224 147.2 18.9104 147.373 19.0863C147.547 19.2623 147.634 19.5042 147.634 19.8122V25.8168C147.634 26.1247 147.547 26.3667 147.373 26.5426C147.2 26.7186 146.961 26.8066 146.658 26.8066H141.449V50.6651C141.449 50.9731 141.362 51.2148 141.189 51.3908C141.015 51.5668 140.776 51.6548 140.473 51.6548H132.66C132.357 51.6548 132.118 51.5668 131.944 51.3908C131.771 51.2148 131.684 50.9731 131.684 50.6651V26.8066H126.475C126.172 26.8066 125.933 26.7186 125.759 26.5426C125.586 26.3667 125.499 26.1247 125.499 25.8168V19.8122C125.499 19.5042 125.586 19.2623 125.759 19.0863C125.933 18.9104 126.172 18.8224 126.475 18.8224H131.684V10.4144C131.684 10.1064 131.771 9.86446 131.944 9.68853C132.118 9.51256 132.357 9.42456 132.66 9.42456H140.473C140.776 9.42456 141.015 9.51256 141.189 9.68853C141.362 9.86446 141.449 10.1064 141.449 10.4144V18.8224H146.658Z" fill="white"/>
<path d="M117.01 16.1236C115.535 16.1236 114.297 15.6177 113.299 14.6059C112.301 13.5502 111.802 12.2964 111.802 10.8448C111.802 9.34913 112.301 8.09542 113.299 7.08364C114.297 6.02787 115.535 5.5 117.01 5.5C118.486 5.5 119.723 6.02787 120.721 7.08364C121.719 8.09542 122.218 9.34913 122.218 10.8448C122.218 12.2964 121.719 13.5502 120.721 14.6059C119.723 15.6177 118.486 16.1236 117.01 16.1236ZM112.128 19.7887C112.128 19.4808 112.214 19.2388 112.388 19.0629C112.561 18.8869 112.8 18.7989 113.104 18.7989H120.916C121.22 18.7989 121.459 18.8869 121.633 19.0629C121.806 19.2388 121.893 19.4808 121.893 19.7887V50.6417C121.893 50.9494 121.806 51.1914 121.633 51.3674C121.459 51.5434 121.22 51.6314 120.916 51.6314H113.104C112.8 51.6314 112.561 51.5434 112.388 51.3674C112.214 51.1914 112.128 50.9494 112.128 50.6417V19.7887Z" fill="white"/>
<path d="M99.6029 27.0111C102.033 27.6709 104.116 29.0126 105.852 31.0361C107.632 33.0595 108.522 35.5012 108.522 38.3606C108.522 42.8033 107.111 46.1466 104.29 48.3903C101.512 50.5896 97.2589 51.6893 91.5299 51.6893H75.5145C75.2107 51.6893 74.9719 51.6013 74.7985 51.4253C74.6248 51.2493 74.5381 51.0076 74.5381 50.6996V6.48977C74.5381 6.18184 74.6248 5.9399 74.7985 5.76394C74.9719 5.58797 75.2107 5.5 75.5145 5.5H91.4648C94.3294 5.5 96.7817 6.02787 98.8216 7.08364C100.905 8.13939 102.467 9.56906 103.509 11.3726C104.594 13.1762 105.137 15.1998 105.137 17.4433C105.137 19.7307 104.594 21.7323 103.509 23.4479C102.467 25.1635 101.165 26.3512 99.6029 27.0111ZM95.6966 18.763C95.6966 15.9476 93.9822 14.5399 90.5534 14.5399H84.629V23.3819H90.5534C92.1591 23.3819 93.418 23.008 94.3293 22.2602C95.2407 21.4683 95.6966 20.3026 95.6966 18.763ZM91.9207 42.6496C93.9172 42.6496 95.5012 42.1876 96.673 41.2639C97.8448 40.3399 98.4307 38.9542 98.4307 37.1069C98.4307 35.3032 97.8448 33.9835 96.673 33.1475C95.5012 32.2679 93.9172 31.8279 91.9207 31.8279H84.629V42.6496H91.9207Z" fill="white"/>
<path d="M18.7194 1.38572C19.5463 0.501882 20.7045 2.59259e-08 21.9171 2.24559e-08L29.7644 0C30.7553 -2.83525e-09 31.2691 1.17763 30.5935 1.8998L15.0739 18.4875H23.6503L32.3711 27.7313H15.0739L32.3711 46.2188H21.9171C20.7045 46.2188 19.5463 45.717 18.7194 44.8331L1.17426 26.0804C-0.391421 24.407 -0.391418 21.8118 1.17426 20.1383L18.7194 1.38572Z" fill="white"/>
<path d="M42.8392 63.3201C42.0123 64.204 40.854 64.7058 39.6414 64.7058H31.794C30.8032 64.7058 30.2893 63.5281 30.965 62.806L46.4847 46.2183H37.9083L29.1875 36.9745H46.4847L29.1875 18.4871H39.6414C40.854 18.4871 42.0123 18.989 42.8392 19.8728L60.3842 38.6254C61.9498 40.2987 61.9498 42.8941 60.3842 44.5674L42.8392 63.3201Z" fill="white"/>
</g>
</svg>
