<svg width="241" height="58" viewBox="0 0 241 58" fill="none" xmlns="http://www.w3.org/2000/svg">
<mask id="mask0_602_231" style="mask-type:luminance" maskUnits="userSpaceOnUse" x="0" y="0" width="241" height="58">
<path d="M240 1H1V57H240V1Z" fill="white" stroke="white"/>
</mask>
<g mask="url(#mask0_602_231)">
<path fill-rule="evenodd" clip-rule="evenodd" d="M41.573 27.3962L41.4948 27.3364C43.2381 24.8158 44.1098 21.7502 44.1098 18.1393C44.1098 12.7831 42.2793 8.58644 38.6182 5.54924C34.9569 2.51204 29.9186 0.99563 23.5028 1.00001H7.52464V3.24342H23.2153C28.6676 3.24342 33.5317 4.46202 36.6176 6.98792C39.4876 9.33972 40.5402 11.3631 41.3802 14.3915C40.5272 11.6291 38.5168 9.85214 37.2681 8.80762C35.0812 6.96166 32.3648 5.67078 24.9641 5.67078H12.6404V7.85836H24.6895C31.0049 7.85836 33.3226 8.64008 35.4473 10.22C38.1671 12.2433 39.8538 14.6609 39.8538 18.1492C39.8538 21.2926 38.7554 22.9744 36.9117 24.7184C36.696 24.633 36.4804 24.551 36.2581 24.4722L36.4672 24.3604C38.4644 23.2536 39.8473 21.1284 39.8473 18.1393C39.8473 14.8743 37.9841 12.8346 36.1599 11.685C34.4504 10.6076 32.8225 9.885 25.8761 9.885H17.0175V11.3434H25.6276C31.8973 11.3434 34.2738 12.4634 34.993 12.9069C36.4019 13.774 38.2619 15.2784 38.2619 18.1623C38.2619 20.0017 37.1798 22.2156 35.5813 23.1188C35.0623 23.4076 34.5144 23.641 33.9469 23.8152C31.5673 23.2734 29.1331 23.011 26.6933 23.0334H16.0074V25.2768H26.3991C31.8515 25.2768 36.7875 26.4034 39.8014 29.0214C42.0765 30.9652 43.7318 33.5388 44.5609 36.4216C43.7111 33.6592 41.9654 31.9842 40.4519 30.8378C38.1637 29.1002 35.5486 27.6976 28.148 27.701H11.395V29.8884H27.8734C34.1887 29.8884 36.5033 30.6702 38.6311 32.2502C41.351 34.2736 43.0114 36.691 43.0114 40.1794C43.0114 43.5428 41.3247 45.9964 38.5919 48.0198C35.797 50.0892 31.5247 50.1516 29.7858 50.1516H20.6328V52.3358H27.4746C33.2017 52.3358 37.0263 51.8432 40.3376 49.3796C43.443 47.0606 45.0937 44.0618 45.0937 40.1826C45.124 42.2614 44.6792 44.3194 43.7941 46.1984C42.909 48.0774 41.6069 49.7276 39.9879 51.022C36.853 53.6234 31.26 54.7698 25.6636 54.7698H7.64886V57H25.7911C32.5468 57 37.8193 55.5264 41.6091 52.5788C45.3988 49.6314 47.2959 45.4906 47.3003 40.1564C47.2871 34.7936 45.449 30.5958 41.7858 27.563C41.716 27.5052 41.6447 27.4508 41.573 27.3962ZM41.8957 18.4252C41.8891 21.1346 41.0779 23.7828 39.5629 26.029C39.3701 25.9174 39.1739 25.809 38.9777 25.7006C40.8399 23.7354 41.8815 21.1318 41.8957 18.4252ZM30.6647 37.0128H14.9611V38.234H30.6647V37.0128ZM21.4369 41.457H30.5701V42.5042H21.4369V41.457ZM12.2811 37.0128H7.62948V38.234H12.2811V37.0128ZM4.72952 41.3716H18.8575V42.5926H4.72952V41.3716ZM18.024 50.6934H4.72952V52.1574H18.024V50.6934ZM8.21105 10.2266H13.7158V11.2344H8.21105V10.2266ZM16.9845 18.2413H4.37649V19.4131H16.9845V18.2413ZM9.72424 14.6609H30.5994V15.8327H9.72424V14.6609ZM30.204 18.2413H20.162V19.4131H30.204V18.2413ZM42.9919 40.1598C42.9919 42.9814 41.6352 45.0934 39.6347 46.1608C37.6407 47.2218 34.8165 47.8328 30.0407 47.8328H1V46.4434H29.9098C34.3162 46.4434 37.2778 45.7306 38.7357 44.9356C40.3376 44.0586 41.4195 41.927 41.4195 40.1532C41.4195 37.3776 39.5597 35.916 38.1508 35.0784C37.4316 34.6514 35.0517 33.5708 28.7853 33.5708H17.7562V32.1814H29.0437C36.1175 32.1814 37.6178 32.881 39.3308 33.919C41.1548 35.0324 42.9919 37.0098 42.9919 40.1598ZM99.1087 15.436C98.2836 15.4588 97.4755 15.1955 96.8205 14.6904C96.5251 14.4751 96.2853 14.1919 96.121 13.8645C95.9565 13.5371 95.8726 13.175 95.8758 12.8083C95.8726 12.4398 95.9565 12.0758 96.1208 11.7462C96.2851 11.4167 96.5249 11.1311 96.8205 10.913C97.4717 10.3997 98.2816 10.1324 99.1087 10.1576C99.949 10.1323 100.772 10.3991 101.44 10.913C101.738 11.1254 101.982 11.4068 102.15 11.7334C102.318 12.06 102.406 12.4225 102.406 12.7903C102.406 13.158 102.318 13.5205 102.15 13.8471C101.982 14.1737 101.738 14.455 101.44 14.6674C100.775 15.1882 99.951 15.46 99.1087 15.436ZM101.547 47.2512H96.5492V21.8772H101.547V47.2512ZM63.9456 47.2512V11.7178H76.3673C80.1439 11.7178 83.1393 12.4689 85.3535 13.9711C87.5676 15.4733 88.6746 17.4309 88.6746 19.844C88.7014 21.7904 87.9815 23.6722 86.6642 25.0994C85.324 26.5886 83.4717 27.6462 81.1072 28.2724V28.371C84.0513 28.6512 86.4071 29.5556 88.1745 31.084C89.0355 31.8116 89.7212 32.7258 90.1803 33.7576C90.6393 34.7896 90.86 35.9126 90.8256 37.0424C90.8256 40.084 89.4852 42.5454 86.8048 44.4264C84.1244 46.3074 80.7465 47.249 76.6714 47.2512H63.9456ZM69.0646 15.4853V26.9586H74.2947C77.0974 26.9586 79.3006 26.4112 80.9045 25.3162C81.6725 24.8178 82.2982 24.1272 82.7205 23.3124C83.1429 22.4976 83.3473 21.5866 83.3136 20.6685C83.3136 17.2174 80.5209 15.4919 74.9356 15.4919L69.0646 15.4853ZM69.0646 30.6998V43.487H76.0109C79.0162 43.487 81.3468 42.9088 83.0031 41.7526C83.788 41.2394 84.4287 40.5322 84.8639 39.699C85.2989 38.8656 85.5136 37.9338 85.4875 36.9932C85.4875 32.7998 81.9734 30.702 74.9454 30.6998H69.0646ZM118.977 47.7966C120.908 47.7988 122.461 47.5348 123.638 47.005L123.648 43.5364C122.658 44.1184 121.526 44.4098 120.379 44.3772C118.732 44.3772 117.553 44.0138 116.842 43.2868C116.132 42.5598 115.777 41.3456 115.777 39.644V25.346H123.638V21.8774H115.777V14.3687L110.782 15.6825V21.8774H105.418V25.346H110.782V40.3634C110.78 45.3188 113.511 47.7966 118.977 47.7966ZM169.02 47.2512H164.339V25.323C164.362 23.198 164.493 21.0754 164.731 18.9638H164.62C164.321 20.056 163.917 21.1164 163.414 22.1302L149.684 47.2512H147.396L133.69 22.3142C133.171 21.2432 132.767 20.1202 132.483 18.9638H132.372C132.556 21.0936 132.631 23.2314 132.598 25.3688V47.2512H128.028V14.5624H134.239L146.572 37.3578C147.297 38.6108 147.916 39.9228 148.423 41.2798H148.592C149.395 39.4864 150.038 38.1494 150.524 37.2692L163.11 14.5624H168.993L169.02 47.2512ZM194.403 47.2512H199.401V30.7492C199.399 24.4382 195.732 21.2828 188.401 21.2828C184.398 21.2828 180.863 22.0754 177.797 23.6608V27.8258C180.788 25.7542 184.344 24.6632 187.976 24.7022C192.261 24.7042 194.403 26.8602 194.403 31.1696L185.051 32.237C178.184 33.0122 174.751 35.7702 174.751 40.5112C174.724 41.5478 174.951 42.575 175.41 43.5036C175.869 44.4322 176.547 45.234 177.385 45.8388C179.144 47.1768 181.577 47.8458 184.685 47.8458C188.904 47.848 192.103 46.3282 194.282 43.2866H194.403V47.2512ZM186.885 35.259L194.403 34.418L194.423 36.944C194.445 37.9632 194.239 38.9746 193.819 39.903C193.4 40.8314 192.778 41.6534 192 42.3078C190.386 43.7202 188.339 44.4264 185.862 44.4264C184.057 44.4264 182.61 44.0344 181.52 43.2506C181.016 42.9236 180.602 42.474 180.316 41.9434C180.031 41.413 179.883 40.8186 179.886 40.2154C179.897 38.5118 180.486 37.326 181.655 36.6582C182.823 35.9904 184.566 35.524 186.885 35.259ZM222.589 25.9896C221.718 25.4444 220.458 25.1718 218.811 25.1718C217.795 25.1552 216.787 25.3668 215.861 25.7912C214.937 26.2158 214.116 26.8424 213.463 27.6254C212.031 29.261 211.316 31.4914 211.316 34.3162V47.2512H206.321V21.8772H211.316V27.1096H211.44C212.079 25.4152 213.22 23.9582 214.708 22.9348C216.152 21.9412 217.863 21.417 219.611 21.4338C220.619 21.3976 221.625 21.515 222.597 21.782V21.8774H227.134V15.6825L232.129 14.3687V21.8774H239.974V25.346H232.129V39.644C232.129 41.3456 232.483 42.5598 233.194 43.2868C233.906 44.0138 235.085 44.3772 236.732 44.3772C237.877 44.4098 239.01 44.1184 240 43.5364L239.99 47.005C238.813 47.5348 237.259 47.7988 235.33 47.7966C229.862 47.7966 227.132 45.3188 227.134 40.3634V25.346H222.591L222.589 25.9896ZM1.41525 54.7862H4.73967V56.91H1.41525V54.7862Z" fill="white"/>
<path d="M41.8935 18.1459C41.8953 18.239 41.8959 18.3321 41.8957 18.4252M41.8957 18.4252C41.8891 21.1346 41.0779 23.7828 39.5629 26.029C39.3701 25.9174 39.1739 25.809 38.9777 25.7006C40.8399 23.7354 41.8815 21.1318 41.8957 18.4252ZM41.573 27.3962L41.4948 27.3364C43.2381 24.8158 44.1098 21.7502 44.1098 18.1393C44.1098 12.7831 42.2793 8.58644 38.6182 5.54924C34.9569 2.51204 29.9186 0.99563 23.5028 1.00001H7.52464V3.24342H23.2153C28.6676 3.24342 33.5317 4.46202 36.6176 6.98792C39.4876 9.33972 40.5402 11.3631 41.3802 14.3915C40.5272 11.6291 38.5168 9.85214 37.2681 8.80762C35.0812 6.96166 32.3648 5.67078 24.9641 5.67078H12.6404V7.85836H24.6895C31.0049 7.85836 33.3226 8.64008 35.4473 10.22C38.1671 12.2433 39.8538 14.6609 39.8538 18.1492C39.8538 21.2926 38.7554 22.9744 36.9117 24.7184C36.696 24.633 36.4803 24.551 36.2581 24.4722L36.4672 24.3604C38.4644 23.2536 39.8473 21.1284 39.8473 18.1393C39.8473 14.8743 37.9841 12.8346 36.1599 11.685C34.4504 10.6076 32.8225 9.885 25.8761 9.885H17.0175V11.3434H25.6276C31.8973 11.3434 34.2738 12.4634 34.993 12.9069C36.4019 13.774 38.2619 15.2784 38.2619 18.1623C38.2619 20.0017 37.1798 22.2156 35.5813 23.1188C35.0623 23.4076 34.5144 23.641 33.9469 23.8152C31.5673 23.2734 29.1331 23.011 26.6933 23.0334H16.0074V25.2768H26.3991C31.8515 25.2768 36.7875 26.4034 39.8014 29.0214C42.0765 30.9652 43.7318 33.5388 44.5609 36.4216C43.7111 33.6592 41.9654 31.9842 40.4519 30.8378C38.1637 29.1002 35.5486 27.6976 28.148 27.701H11.395V29.8884H27.8734C34.1887 29.8884 36.5033 30.6702 38.6311 32.2502C41.351 34.2736 43.0114 36.691 43.0114 40.1794C43.0114 43.5428 41.3247 45.9964 38.5919 48.0198C35.797 50.0892 31.5247 50.1516 29.7858 50.1516H20.6328V52.3358H27.4746C33.2017 52.3358 37.0263 51.8432 40.3376 49.3796C43.443 47.0606 45.0937 44.0618 45.0937 40.1826C45.124 42.2614 44.6792 44.3194 43.7941 46.1984C42.9091 48.0774 41.6069 49.7276 39.9879 51.022C36.853 53.6234 31.26 54.7698 25.6636 54.7698H7.64886V57H25.7911C32.5468 57 37.8193 55.5264 41.6091 52.5788C45.3988 49.6314 47.2959 45.4906 47.3003 40.1564C47.2871 34.7936 45.449 30.5958 41.7858 27.563C41.716 27.5052 41.6447 27.4508 41.573 27.3962ZM30.6647 37.0128H14.9611V38.234H30.6647V37.0128ZM21.4369 41.457H30.5701V42.5042H21.4369V41.457ZM12.2811 37.0128H7.62948V38.234H12.2811V37.0128ZM4.72952 41.3716H18.8575V42.5926H4.72952V41.3716ZM18.024 50.6934H4.72952V52.1574H18.024V50.6934ZM8.21105 10.2266H13.7158V11.2344H8.21105V10.2266ZM16.9845 18.2413H4.37649V19.4131H16.9845V18.2413ZM9.72424 14.6609H30.5994V15.8327H9.72424V14.6609ZM30.204 18.2413H20.162V19.4131H30.204V18.2413ZM42.9919 40.1598C42.9919 42.9814 41.6352 45.0934 39.6347 46.1608C37.6407 47.2218 34.8165 47.8328 30.0407 47.8328H1V46.4434H29.9098C34.3162 46.4434 37.2778 45.7306 38.7357 44.9356C40.3376 44.0586 41.4195 41.927 41.4195 40.1532C41.4195 37.3776 39.5597 35.916 38.1508 35.0784C37.4316 34.6514 35.0517 33.5708 28.7853 33.5708H17.7562V32.1814H29.0437C36.1175 32.1814 37.6178 32.881 39.3308 33.919C41.1548 35.0324 42.9919 37.0098 42.9919 40.1598ZM99.1087 15.436C98.2836 15.4588 97.4755 15.1955 96.8205 14.6904C96.5251 14.4751 96.2853 14.1919 96.121 13.8645C95.9565 13.5371 95.8726 13.175 95.8758 12.8083C95.8726 12.4398 95.9565 12.0758 96.1208 11.7462C96.2851 11.4167 96.5249 11.1311 96.8205 10.913C97.4717 10.3997 98.2816 10.1324 99.1087 10.1576C99.949 10.1323 100.772 10.3991 101.44 10.913C101.738 11.1254 101.982 11.4068 102.15 11.7334C102.318 12.06 102.406 12.4225 102.406 12.7903C102.406 13.158 102.318 13.5205 102.15 13.8471C101.982 14.1737 101.738 14.455 101.44 14.6674C100.775 15.1882 99.951 15.46 99.1087 15.436ZM101.547 47.2512H96.5492V21.8772H101.547V47.2512ZM63.9456 47.2512V11.7178H76.3673C80.1439 11.7178 83.1393 12.4689 85.3535 13.9711C87.5676 15.4733 88.6746 17.4309 88.6746 19.844C88.7014 21.7904 87.9815 23.6722 86.6642 25.0994C85.324 26.5886 83.4717 27.6462 81.1072 28.2724V28.371C84.0513 28.6512 86.407 29.5556 88.1745 31.084C89.0355 31.8116 89.7212 32.7258 90.1803 33.7576C90.6393 34.7896 90.86 35.9126 90.8256 37.0424C90.8256 40.084 89.4852 42.5454 86.8048 44.4264C84.1244 46.3074 80.7465 47.249 76.6714 47.2512H63.9456ZM69.0646 15.4853V26.9586H74.2947C77.0974 26.9586 79.3006 26.4112 80.9045 25.3162C81.6725 24.8178 82.2982 24.1272 82.7205 23.3124C83.1429 22.4976 83.3473 21.5866 83.3136 20.6685C83.3136 17.2174 80.5209 15.4919 74.9356 15.4919L69.0646 15.4853ZM69.0646 30.6998V43.487H76.0109C79.0162 43.487 81.3468 42.9088 83.0031 41.7526C83.788 41.2394 84.4287 40.5322 84.8639 39.699C85.2989 38.8656 85.5136 37.9338 85.4875 36.9932C85.4875 32.7998 81.9734 30.702 74.9454 30.6998H69.0646ZM118.977 47.7966C120.908 47.7988 122.461 47.5348 123.638 47.005L123.648 43.5364C122.658 44.1184 121.526 44.4098 120.379 44.3772C118.732 44.3772 117.553 44.0138 116.842 43.2868C116.132 42.5598 115.777 41.3456 115.777 39.644V25.346H123.638V21.8774H115.777V14.3687L110.782 15.6825V21.8774H105.418V25.346H110.782V40.3634C110.78 45.3188 113.511 47.7966 118.977 47.7966ZM169.02 47.2512H164.339V25.323C164.362 23.198 164.493 21.0754 164.731 18.9638H164.62C164.321 20.056 163.917 21.1164 163.414 22.1302L149.684 47.2512H147.396L133.69 22.3142C133.171 21.2432 132.767 20.1202 132.483 18.9638H132.372C132.556 21.0936 132.631 23.2314 132.598 25.3688V47.2512H128.028V14.5624H134.239L146.572 37.3578C147.297 38.6108 147.916 39.9228 148.423 41.2798H148.592C149.395 39.4864 150.038 38.1494 150.524 37.2692L163.11 14.5624H168.993L169.02 47.2512ZM194.403 47.2512H199.401V30.7492C199.399 24.4382 195.732 21.2828 188.401 21.2828C184.398 21.2828 180.863 22.0754 177.797 23.6608V27.8258C180.788 25.7542 184.344 24.6632 187.976 24.7022C192.261 24.7042 194.403 26.8602 194.403 31.1696L185.051 32.237C178.184 33.0122 174.751 35.7702 174.751 40.5112C174.724 41.5478 174.951 42.575 175.41 43.5036C175.869 44.4322 176.547 45.234 177.385 45.8388C179.144 47.1768 181.577 47.8458 184.685 47.8458C188.904 47.848 192.103 46.3282 194.282 43.2866H194.403V47.2512ZM186.885 35.259L194.403 34.418L194.423 36.944C194.445 37.9632 194.239 38.9746 193.819 39.903C193.4 40.8314 192.778 41.6534 192 42.3078C190.386 43.7202 188.339 44.4264 185.862 44.4264C184.057 44.4264 182.61 44.0344 181.52 43.2506C181.016 42.9236 180.602 42.474 180.316 41.9434C180.031 41.413 179.883 40.8186 179.886 40.2154C179.897 38.5118 180.486 37.326 181.655 36.6582C182.823 35.9904 184.566 35.524 186.885 35.259ZM222.589 25.9896C221.718 25.4444 220.458 25.1718 218.811 25.1718C217.795 25.1552 216.787 25.3668 215.861 25.7912C214.937 26.2158 214.116 26.8424 213.463 27.6254C212.031 29.261 211.316 31.4914 211.316 34.3162V47.2512H206.321V21.8772H211.316V27.1096H211.44C212.079 25.4152 213.22 23.9582 214.708 22.9348C216.152 21.9412 217.863 21.417 219.611 21.4338C220.619 21.3976 221.625 21.515 222.597 21.782V21.8774H227.134V15.6825L232.129 14.3687V21.8774H239.974V25.346H232.129V39.644C232.129 41.3456 232.483 42.5598 233.194 43.2868C233.905 44.0138 235.085 44.3772 236.732 44.3772C237.877 44.4098 239.01 44.1184 240 43.5364L239.99 47.005C238.813 47.5348 237.259 47.7988 235.33 47.7966C229.862 47.7966 227.132 45.3188 227.134 40.3634V25.346H222.591L222.589 25.9896ZM1.41525 54.7862H4.73967V56.91H1.41525V54.7862Z" stroke="white"/>
</g>
</svg>
