<svg width="239" height="56" viewBox="0 0 239 56" fill="none" xmlns="http://www.w3.org/2000/svg">
<mask id="mask0_452_196" style="mask-type:luminance" maskUnits="userSpaceOnUse" x="0" y="0" width="239" height="56">
<path d="M239 0H0V56H239V0Z" fill="white"/>
</mask>
<g mask="url(#mask0_452_196)">
<path fill-rule="evenodd" clip-rule="evenodd" d="M40.573 26.3962L40.4948 26.3364C42.2381 23.8158 43.1098 20.7502 43.1098 17.1393C43.1098 11.7831 41.2793 7.58644 37.6182 4.54924C33.9569 1.51204 28.9186 -0.00437008 22.5028 9.45911e-06H6.52464V2.24342H22.2153C27.6676 2.24342 32.5317 3.46202 35.6176 5.98792C38.4876 8.33972 39.5402 10.3631 40.3802 13.3915C39.5272 10.6291 37.5168 8.85214 36.2681 7.80762C34.0812 5.96166 31.3648 4.67078 23.9641 4.67078H11.6404V6.85836H23.6895C30.0049 6.85836 32.3226 7.64008 34.4473 9.22C37.1671 11.2433 38.8538 13.6609 38.8538 17.1492C38.8538 20.2926 37.7554 21.9744 35.9117 23.7184C35.696 23.633 35.4803 23.551 35.2581 23.4722L35.4672 23.3604C37.4644 22.2536 38.8473 20.1284 38.8473 17.1393C38.8473 13.8743 36.9841 11.8346 35.1599 10.685C33.4504 9.60762 31.8225 8.885 24.8761 8.885H16.0175V10.3434H24.6276C30.8973 10.3434 33.2738 11.4634 33.993 11.9069C35.4019 12.774 37.2619 14.2784 37.2619 17.1623C37.2619 19.0017 36.1798 21.2156 34.5813 22.1188C34.0623 22.4076 33.5144 22.641 32.9469 22.8152C30.5673 22.2734 28.1331 22.011 25.6933 22.0334H15.0074V24.2768H25.3991C30.8515 24.2768 35.7875 25.4034 38.8014 28.0214C41.0765 29.9652 42.7318 32.5388 43.5609 35.4216C42.7111 32.6592 40.9654 30.9842 39.4519 29.8378C37.1637 28.1002 34.5486 26.6976 27.148 26.701H10.395V28.8884H26.8734C33.1887 28.8884 35.5033 29.6702 37.6311 31.2502C40.351 33.2736 42.0114 35.691 42.0114 39.1794C42.0114 42.5428 40.3247 44.9964 37.5919 47.0198C34.797 49.0892 30.5247 49.1516 28.7858 49.1516H19.6328V51.3358H26.4746C32.2017 51.3358 36.0263 50.8432 39.3376 48.3796C42.443 46.0606 44.0937 43.0618 44.0937 39.1826C44.124 41.2614 43.6792 43.3194 42.7941 45.1984C41.909 47.0774 40.6069 48.7276 38.9879 50.022C35.853 52.6234 30.26 53.7698 24.6636 53.7698H6.64886V56H24.7911C31.5468 56 36.8193 54.5264 40.6091 51.5788C44.3988 48.6314 46.2959 44.4906 46.3003 39.1564C46.2871 33.7936 44.449 29.5958 40.7858 26.563C40.716 26.5052 40.6447 26.4508 40.573 26.3962ZM40.8957 17.4252C40.8891 20.1346 40.0779 22.7828 38.5629 25.029C38.3701 24.9174 38.1739 24.809 37.9777 24.7006C39.8399 22.7354 40.8815 20.1318 40.8957 17.4252ZM29.6647 36.0128H13.9611V37.234H29.6647V36.0128ZM20.4369 40.457H29.5701V41.5042H20.4369V40.457ZM11.2811 36.0128H6.62948V37.234H11.2811V36.0128ZM3.72952 40.3716H17.8575V41.5926H3.72952V40.3716ZM17.024 49.6934H3.72952V51.1574H17.024V49.6934ZM7.21105 9.22662H12.7158V10.2344H7.21105V9.22662ZM15.9845 17.2413H3.37649V18.4131H15.9845V17.2413ZM8.72424 13.6609H29.5994V14.8327H8.72424V13.6609ZM29.204 17.2413H19.162V18.4131H29.204V17.2413ZM41.9919 39.1598C41.9919 41.9814 40.6352 44.0934 38.6347 45.1608C36.6407 46.2218 33.8165 46.8328 29.0407 46.8328H0V45.4434H28.9098C33.3162 45.4434 36.2778 44.7306 37.7357 43.9356C39.3376 43.0586 40.4195 40.927 40.4195 39.1532C40.4195 36.3776 38.5597 34.916 37.1508 34.0784C36.4316 33.6514 34.0517 32.5708 27.7853 32.5708H16.7562V31.1814H28.0437C35.1175 31.1814 36.6178 31.881 38.3308 32.919C40.1548 34.0324 41.9919 36.0098 41.9919 39.1598ZM98.1087 14.436C97.2836 14.4588 96.4755 14.1955 95.8205 13.6904C95.5251 13.4751 95.2853 13.1919 95.121 12.8645C94.9565 12.5371 94.8726 12.175 94.8758 11.8083C94.8726 11.4398 94.9565 11.0758 95.1208 10.7462C95.2851 10.4167 95.5249 10.1311 95.8205 9.91304C96.4717 9.39974 97.2816 9.1324 98.1087 9.1576C98.949 9.13232 99.7723 9.39914 100.44 9.91304C100.738 10.1254 100.982 10.4068 101.15 10.7334C101.318 11.06 101.406 11.4225 101.406 11.7903C101.406 12.158 101.318 12.5205 101.15 12.8471C100.982 13.1737 100.738 13.455 100.44 13.6674C99.7751 14.1882 98.951 14.46 98.1087 14.436ZM100.547 46.2512H95.5492V20.8772H100.547V46.2512ZM62.9456 46.2512V10.7178H75.3673C79.1439 10.7178 82.1393 11.4689 84.3535 12.9711C86.5676 14.4733 87.6746 16.4309 87.6746 18.844C87.7014 20.7904 86.9815 22.6722 85.6642 24.0994C84.324 25.5886 82.4717 26.6462 80.1072 27.2724V27.371C83.0513 27.6512 85.4071 28.5556 87.1745 30.084C88.0355 30.8116 88.7212 31.7258 89.1803 32.7576C89.6393 33.7896 89.86 34.9126 89.8256 36.0424C89.8256 39.084 88.4852 41.5454 85.8048 43.4264C83.1244 45.3074 79.7465 46.249 75.6714 46.2512H62.9456ZM68.0646 14.4853V25.9586H73.2947C76.0974 25.9586 78.3006 25.4112 79.9045 24.3162C80.6725 23.8178 81.2982 23.1272 81.7205 22.3124C82.1429 21.4976 82.3473 20.5866 82.3136 19.6685C82.3136 16.2174 79.5209 14.4919 73.9356 14.4919L68.0646 14.4853ZM68.0646 29.6998V42.487H75.0109C78.0162 42.487 80.3468 41.9088 82.0031 40.7526C82.788 40.2394 83.4287 39.5322 83.8639 38.699C84.2989 37.8656 84.5136 36.9338 84.4875 35.9932C84.4875 31.7998 80.9734 29.702 73.9454 29.6998H68.0646ZM117.977 46.7966C119.908 46.7988 121.461 46.5348 122.638 46.005L122.648 42.5364C121.658 43.1184 120.526 43.4098 119.379 43.3772C117.732 43.3772 116.553 43.0138 115.842 42.2868C115.132 41.5598 114.777 40.3456 114.777 38.644V24.346H122.638V20.8774H114.777V13.3687L109.782 14.6825V20.8774H104.418V24.346H109.782V39.3634C109.78 44.3188 112.511 46.7966 117.977 46.7966ZM168.02 46.2512H163.339V24.323C163.362 22.198 163.493 20.0754 163.731 17.9638H163.62C163.321 19.056 162.917 20.1164 162.414 21.1302L148.684 46.2512H146.396L132.69 21.3142C132.171 20.2432 131.767 19.1202 131.483 17.9638H131.372C131.556 20.0936 131.631 22.2314 131.598 24.3688V46.2512H127.028V13.5624H133.239L145.572 36.3578C146.297 37.6108 146.916 38.9228 147.423 40.2798H147.592C148.395 38.4864 149.038 37.1494 149.524 36.2692L162.11 13.5624H167.993L168.02 46.2512ZM193.403 46.2512H198.401V29.7492C198.399 23.4382 194.732 20.2828 187.401 20.2828C183.398 20.2828 179.863 21.0754 176.797 22.6608V26.8258C179.788 24.7542 183.344 23.6632 186.976 23.7022C191.261 23.7042 193.403 25.8602 193.403 30.1696L184.051 31.237C177.184 32.0122 173.751 34.7702 173.751 39.5112C173.724 40.5478 173.951 41.575 174.41 42.5036C174.869 43.4322 175.547 44.234 176.385 44.8388C178.144 46.1768 180.577 46.8458 183.685 46.8458C187.904 46.848 191.103 45.3282 193.282 42.2866H193.403V46.2512ZM185.885 34.259L193.403 33.418L193.423 35.944C193.445 36.9632 193.239 37.9746 192.819 38.903C192.4 39.8314 191.778 40.6534 191 41.3078C189.386 42.7202 187.339 43.4264 184.862 43.4264C183.057 43.4264 181.61 43.0344 180.52 42.2506C180.016 41.9236 179.602 41.474 179.316 40.9434C179.031 40.413 178.883 39.8186 178.886 39.2154C178.897 37.5118 179.486 36.326 180.655 35.6582C181.823 34.9904 183.566 34.524 185.885 34.259ZM221.589 24.9896C220.719 24.4444 219.458 24.1718 217.811 24.1718C216.795 24.1552 215.787 24.3668 214.861 24.7912C213.937 25.2158 213.116 25.8424 212.463 26.6254C211.031 28.261 210.316 30.4914 210.316 33.3162V46.2512H205.321V20.8772H210.316V26.1096H210.44C211.079 24.4152 212.22 22.9582 213.708 21.9348C215.152 20.9412 216.863 20.417 218.611 20.4338C219.619 20.3976 220.625 20.515 221.597 20.782V20.8774H226.134V14.6825L231.129 13.3687V20.8774H238.974V24.346H231.129V38.644C231.129 40.3456 231.483 41.5598 232.194 42.2868C232.906 43.0138 234.085 43.3772 235.732 43.3772C236.877 43.4098 238.01 43.1184 239 42.5364L238.99 46.005C237.813 46.5348 236.259 46.7988 234.33 46.7966C228.862 46.7966 226.132 44.3188 226.134 39.3634V24.346H221.591L221.589 24.9896ZM0.415255 53.7862H3.73967V55.91H0.415255V53.7862Z" fill="#27DEEA"/>
</g>
</svg>
