<svg width="591" height="257" viewBox="0 0 591 257" fill="none" xmlns="http://www.w3.org/2000/svg">
<g clip-path="url(#clip0_127_2281)">
<path d="M334.543 54.3916L337.128 44.2567L325.495 39.6499L324.203 48.8634L334.543 54.3916Z" fill="#A0616A"/>
<path opacity="0.1" d="M334.543 54.8843L337.128 44.7494L330.277 41.6597L332.406 53.6077L334.543 54.8843Z" fill="black"/>
<path d="M392.774 108.108C394.163 105.777 392.512 101.994 389.086 99.6597C387.586 98.6377 385.995 98.0627 384.563 97.9345L382.577 96.6181L356.346 77.624C356.346 77.624 338.572 55.9578 334.697 54.2684C330.821 52.5789 327.604 55.2018 327.604 55.2018L325.864 59.8903L353.735 89.1242L377.452 102.541L380.681 104.447C381.395 105.781 382.554 107.08 384.054 108.102C387.48 110.437 391.384 110.439 392.774 108.108Z" fill="#A0616A"/>
<path d="M325.161 44.0286C325.161 44.0286 320.692 46.2088 319.641 51.3399C318.591 56.471 352.418 89.7037 352.418 89.7037L364.01 82.8991L325.161 44.0286Z" fill="#E6E6E6"/>
<path d="M345.96 33.4627C345.96 40.5866 340.559 46.3616 333.897 46.3616C327.234 46.3616 321.833 40.5866 321.833 33.4627C321.833 26.3388 327.234 20.5637 333.897 20.5637C340.559 20.5637 345.96 26.3388 345.96 33.4627Z" fill="#A0616A"/>
<path d="M362.117 220.728L370.303 242.38L375.043 237.312L376.766 227.638L369.872 218.425L362.117 220.728Z" fill="#A0616A"/>
<path d="M315.651 216.326L312.016 229.141L318.708 235.036L326.059 230.034L325.1 216.375L315.651 216.326Z" fill="#A0616A"/>
<path d="M339.928 91.9688L341.006 110.626L314.293 105.559L316.016 94.0418L339.928 91.9688Z" fill="#A0616A"/>
<path d="M341.221 110.856L314.293 101.413C314.293 101.413 304.384 122.604 315.155 135.963C325.926 149.323 361.686 225.335 361.686 225.335L372.458 219.807L356.947 171.435L339.713 126.75L341.221 110.856Z" fill="#2F2E41"/>
<path d="M310.645 125.956L319.555 174.651L314.031 218.103L326.892 219.557L337.669 166.05L333.785 130.594L310.645 125.956Z" fill="#2F2E41"/>
<path d="M380.644 225.795H388.105C388.105 225.795 396.812 222.11 398.853 225.795C400.893 229.481 389.748 239.933 389.748 239.933C389.748 239.933 374.181 249.29 372.027 248.829C369.872 248.368 369.011 242.84 369.011 242.84L366.426 236.391L370.303 237.773C370.303 237.773 375.473 234.548 374.181 229.02L380.644 225.795Z" fill="#2F2E41"/>
<path d="M314.116 229.656L312.367 225.446L309.538 231.83C309.538 231.83 303.133 238.399 311.663 241.91C320.192 245.421 330.472 248.605 330.472 248.605C330.472 248.605 343.684 246.364 342.897 242.201C342.111 238.037 340.687 236.878 340.687 236.878L335.418 236.679L326.934 227.602L320.984 231.436L314.116 229.656Z" fill="#2F2E41"/>
<path d="M330.234 35.9965L334.112 35.5359L341.221 27.9347C341.221 27.9347 347.684 31.6201 347.684 28.856C347.684 15.9571 340.359 16.4178 334.327 15.4964C328.296 14.5751 328.942 14.3447 327.003 17.7998C326.116 19.3799 322.91 20.3335 322.91 20.3335C322.91 20.3335 316.878 11.5807 313.862 22.1762C310.846 32.7718 314.724 65.4799 311.708 68.2439C308.692 71.008 324.091 73.7679 322.423 62.9441C320.756 52.1202 317.74 35.5359 319.463 31.8504C321.187 28.165 321.617 29.0864 321.617 29.0864C319.482 28.154 318.086 44.577 326.139 45.3811L326.357 37.3786C326.357 37.3786 327.649 33.2325 330.234 35.9965Z" fill="#2F2E41"/>
<path d="M335.62 51.8897L322.695 46.3616L305.461 101.643L340.92 100.262L344.112 83.7621C344.112 83.7621 347.229 75.1746 344.644 70.1072C342.059 65.0397 335.62 51.8897 335.62 51.8897Z" fill="#E6E6E6"/>
<path d="M301.986 144.493C304.562 144.73 306.932 141.413 307.28 137.084C307.432 135.19 307.171 133.416 306.614 131.999L306.785 129.507L310.375 95.8522C310.375 95.8522 317.058 68.3227 316.663 63.8674C316.267 59.4123 315.643 58.2295 315.643 58.2295L310.951 58.7525L299.634 98.706L299.501 127.396L299.418 131.339C298.643 132.632 298.103 134.333 297.951 136.228C297.604 140.556 299.41 144.256 301.986 144.493Z" fill="#A0616A"/>
<path d="M323.772 50.738C323.772 50.738 319.894 47.5133 315.155 48.8953C310.415 50.2774 298.543 97.7271 298.543 97.7271L309.554 105.559L323.772 50.738Z" fill="#E6E6E6"/>
<path d="M508.021 37.1347L500.463 22.1272L489.937 31.074L493.985 42.3296L508.021 37.1347Z" fill="#FFB6B6"/>
<path opacity="0.1" d="M508.021 37.1347L500.463 22.1272L489.937 31.074L493.985 42.3296L508.021 37.1347Z" fill="black"/>
<path d="M489.964 31.5368C496.908 31.5368 502.537 25.5181 502.537 18.0936C502.537 10.6691 496.908 4.65039 489.964 4.65039C483.02 4.65039 477.391 10.6691 477.391 18.0936C477.391 25.5181 483.02 31.5368 489.964 31.5368Z" fill="#FFB6B6"/>
<path d="M465.945 25.0958C464.944 21.2582 462.281 18.6997 459.997 19.3811C457.713 20.0626 456.673 23.7256 457.675 27.5644C458.055 29.1037 458.775 30.5232 459.774 31.7042L464.207 47.907L471.273 45.5207L466.153 29.8009C466.436 28.2373 466.365 26.6239 465.945 25.0958Z" fill="#FFB6B6"/>
<path d="M501.758 35.0354L478.867 53.3583L467.353 34.1508L459.752 34.0146C459.752 34.0146 460.779 65.9467 471.384 68.6445C481.989 71.3423 511.113 56.2105 512.122 46.8271C513.131 37.4437 501.758 35.0354 501.758 35.0354Z" fill="#E6E6E6"/>
<path d="M470.197 243.175L463.614 243.174L460.482 216.022L470.199 216.023L470.197 243.175Z" fill="#FFB6B6"/>
<path d="M447.641 243.015C447.436 243.384 447.328 244.576 447.328 245.005C447.328 246.324 448.329 247.394 449.563 247.394H469.951C470.793 247.394 471.475 246.664 471.475 245.764V244.857C471.475 244.857 472.484 242.129 470.407 238.767C470.407 238.767 467.827 241.399 463.97 237.276L462.833 235.073L454.601 241.51L450.038 242.111C449.04 242.242 448.155 242.09 447.641 243.015Z" fill="#2F2E41"/>
<path d="M490.81 243.175L484.227 243.174L481.095 216.022L490.812 216.023L490.81 243.175Z" fill="#FFB6B6"/>
<path d="M468.254 243.015C468.049 243.384 467.941 244.576 467.941 245.005C467.941 246.324 468.942 247.394 470.176 247.394H490.564C491.406 247.394 492.088 246.664 492.088 245.764V244.857C492.088 244.857 493.097 242.129 491.021 238.767C491.021 238.767 488.44 241.399 484.583 237.276L483.446 235.073L475.214 241.51L470.651 242.111C469.653 242.242 468.768 242.09 468.254 243.015Z" fill="#2F2E41"/>
<path d="M462.049 107.496L456.054 125.562L460.253 229.216L470.942 230.032L478.958 153.317L480.103 232.889L491.936 233.705L500.627 113.139C500.627 113.139 503.328 104.57 494.93 100.489C486.533 96.4073 462.049 107.496 462.049 107.496Z" fill="#2F2E41"/>
<path d="M460.285 106.448L501.813 110.729C501.813 110.729 500.463 93.1242 511.8 74.6534C523.136 56.1827 507.481 33.9601 507.481 33.9601L492.096 32.8057L475.361 40.8866L472.582 74.7191L460.285 106.448Z" fill="#E6E6E6"/>
<path d="M502.892 29.3424C502.892 29.3424 510.45 14.3349 505.052 7.98557C499.653 1.63625 496.144 -4.42446 489.666 -0.961199C483.188 2.50207 468.883 12.026 474.281 14.3349C479.679 16.6437 484.538 16.0665 484.538 16.0665C484.538 16.0665 483.688 20.3799 486.542 21.9751C489.397 23.5703 491.286 26.1677 491.286 26.1677C491.286 26.1677 494.525 22.1272 496.144 24.4361C497.764 26.7449 502.892 29.3424 502.892 29.3424Z" fill="#2F2E41"/>
<path d="M465.914 31.9399L450.259 41.7525C450.259 41.7525 446.888 48.5381 455.996 53.082L472.662 40.8867L477.188 45.1487L483.189 41.1753L478.87 26.745L474.011 22.7045L469.693 23.2817L466.454 20.9729L459.976 28.4766L465.914 31.9399Z" fill="#2F2E41"/>
<path d="M469.958 35.8377C468.957 32.0001 466.294 29.4416 464.01 30.1231C461.726 30.8046 460.686 34.4675 461.688 38.3063C462.068 39.8457 462.788 41.2652 463.787 42.4461L468.22 58.6489L475.286 56.2626L470.166 40.5429C470.449 38.9792 470.378 37.3658 469.958 35.8377Z" fill="#FFB6B6"/>
<path d="M505.771 45.7774L482.88 64.1002L471.367 44.8928L463.765 44.7566C463.765 44.7566 464.792 76.6886 475.397 79.3864C486.002 82.0843 515.126 66.9525 516.135 57.5691C517.144 48.1857 505.771 45.7774 505.771 45.7774Z" fill="#E6E6E6"/>
<path d="M253.165 163.76C253.165 165.582 249.027 129.406 249.027 129.406L218.918 133.308C213.483 134.013 209.744 139.495 210.78 145.244L216.411 176.513C216.895 177.142 217.642 177.735 218.601 178.29V249.125H222.739V180.052C226.069 181.135 230.37 181.976 235.153 182.521V249.125H239.291V182.91C246.288 183.432 253.953 183.344 260.954 182.5V249.125H265.092V181.896C266.344 181.679 267.565 181.436 268.743 181.163V249.125H272.881V180.026C275.131 179.295 277.148 178.432 278.844 177.424C294.179 168.315 253.165 161.938 253.165 163.76Z" fill="#E6E6E6"/>
<path d="M283.482 229.877L288.581 235.329L295.623 239.223L294.894 245.974L281.54 244.416L279.84 240.781L280.326 237.666L279.354 232.733L283.482 229.877Z" fill="#FFB6B6"/>
<path d="M293.923 243.377L294.34 237.65L308.734 244.935C308.734 244.935 309.849 248.31 306.378 248.829C302.907 249.349 279.84 249.349 279.84 248.051C279.84 246.752 279.209 240.107 279.209 240.107L293.195 244.416L293.923 243.377Z" fill="#2F2E41"/>
<path d="M265.143 214.734L261.455 221.359L259.656 229.615L253.358 230.52L251.485 216.297L254.362 213.641L257.306 213.378L261.539 211.158L265.143 214.734Z" fill="#FFB6B6"/>
<path d="M255.473 228.875L260.768 227.898L257.704 244.609C257.704 244.609 254.919 246.594 253.594 243.124C252.27 239.655 246.596 215.749 247.773 215.429C248.949 215.11 254.819 212.822 254.819 212.822L254.352 228.376L255.473 228.875Z" fill="#2F2E41"/>
<path d="M249.149 90.7578L248.418 106.634L260.102 106.894V93.2364L249.149 90.7578Z" fill="#FFB6B6"/>
<path opacity="0.1" d="M249.149 90.7578L248.418 106.634L260.102 106.894V93.2364L249.149 90.7578Z" fill="black"/>
<path d="M229.433 156.343C229.433 156.343 224.078 171.178 227.972 177.164C231.867 183.15 250.122 186.533 250.122 186.533L257.668 194.08L277.627 235.201L289.311 232.338L272.759 190.177C272.759 190.177 263.023 173.26 259.372 170.917C255.721 168.575 248.922 159.781 248.922 159.781L229.433 156.343Z" fill="#2F2E41"/>
<path d="M262.536 157.644L270.034 163.322C270.034 163.322 296.613 170.917 288.094 188.615C279.574 206.313 266.917 219.065 266.917 219.065L255.721 212.298L273.733 185.232L242.09 164.671L262.536 157.644Z" fill="#2F2E41"/>
<path d="M330.687 136.063C334.211 136.821 336.701 139.38 336.249 141.777C335.798 144.175 332.576 145.503 329.051 144.744C327.64 144.462 326.312 143.822 325.179 142.878L310.288 139.465L311.565 133.172L326.44 136.182C327.826 135.78 329.283 135.74 330.687 136.063Z" fill="#FFB6B6"/>
<path d="M259.493 101.038H244.347L233.206 109.106L234.179 140.858C234.179 140.858 236.215 148.831 229.311 156.213C225.173 160.637 226.634 163.24 226.634 163.24L251.218 165.322L265.944 160.767L260.589 146.453L261.562 142.029C261.562 142.029 271.542 134.481 269.838 126.674C268.134 118.866 265.944 102.73 265.944 102.73L259.493 101.038Z" fill="#1BD8CE"/>
<path d="M295.129 127.889L265.748 102.712C265.748 102.712 260.028 104.374 260.768 110.139C261.508 115.905 274.549 130.488 274.549 130.488L296.969 141.364L322.64 142.767L323.697 134.74L295.129 127.889Z" fill="#1BD8CE"/>
<path d="M256.086 98.1751C261.732 98.1751 266.309 93.2812 266.309 87.2443C266.309 81.2074 261.732 76.3135 256.086 76.3135C250.44 76.3135 245.863 81.2074 245.863 87.2443C245.863 93.2812 250.44 98.1751 256.086 98.1751Z" fill="#FFB6B6"/>
<path d="M253.286 89.4565C253.286 89.4565 258.155 84.5116 260.102 82.1693C262.049 79.827 270.325 85.8129 268.621 81.3885C266.917 76.9641 264.483 75.9231 264.483 75.9231C264.483 75.9231 260.102 66.5538 251.583 72.0192C251.583 72.0192 251.583 66.2935 244.767 68.6359C237.952 70.9782 234.788 92.5796 236.735 94.6617C238.682 96.7437 240.629 98.3053 239.169 102.209C237.708 106.113 239.169 123.55 244.524 125.893C249.879 128.235 250.852 129.891 249.392 133.617C247.932 137.344 244.28 145.672 251.096 143.59C257.911 141.508 250.609 144.111 253.53 137.344C256.451 130.577 263.51 127.454 257.911 121.468C252.313 115.482 252.556 102.99 251.339 101.689C250.122 100.387 247.83 89.5497 247.83 89.5497C247.83 89.5497 251.826 86.8539 253.286 89.4565Z" fill="#2F2E41"/>
<path d="M584.613 249.592H175.983V248.606H584.613C584.868 248.606 585.074 248.827 585.074 249.099C585.074 249.371 584.868 249.592 584.613 249.592Z" fill="#3F3D56"/>
<path d="M372.292 248.702H280.237C274.145 248.702 269.19 243.404 269.19 236.89V96.6089C269.19 90.0949 274.145 84.7966 280.237 84.7966H372.292C378.384 84.7966 383.339 90.0949 383.339 96.6089V236.89C383.339 243.404 378.384 248.702 372.292 248.702Z" fill="white"/>
<path d="M372.292 250.12H280.237C273.414 250.12 267.864 244.185 267.864 236.89V96.6086C267.864 89.3132 273.414 83.3782 280.237 83.3782H372.292C379.115 83.3782 384.665 89.3132 384.665 96.6086V236.89C384.665 244.185 379.115 250.12 372.292 250.12ZM280.237 84.3633C273.922 84.3633 268.785 89.8566 268.785 96.6086V236.89C268.785 243.642 273.922 249.135 280.237 249.135H372.292C378.607 249.135 383.744 243.642 383.744 236.89V96.6086C383.744 89.8566 378.607 84.3633 372.292 84.3633H280.237Z" fill="#3F3D56"/>
<path d="M290.007 138.275L361.968 135.949C366.966 135.787 367.446 127.428 362.402 127.591L290.441 129.917C285.443 130.079 284.963 138.438 290.007 138.275Z" fill="#1BD8CE"/>
<path d="M290.007 166.177L361.968 163.85C366.966 163.689 367.446 155.33 362.402 155.493L290.441 157.819C285.443 157.98 284.963 166.34 290.007 166.177Z" fill="#1BD8CE"/>
<path d="M290.007 194.078L361.968 191.752C366.966 191.591 367.446 183.231 362.402 183.394L290.441 185.721C285.443 185.882 284.963 194.241 290.007 194.078Z" fill="#1BD8CE"/>
<path d="M274.458 176.728C277.033 179.409 277.827 183.002 276.231 184.754C274.636 186.506 271.255 185.753 268.679 183.071C267.636 182.015 266.845 180.707 266.372 179.257L255.595 167.752L259.861 163.207L270.829 174.363C272.198 174.83 273.442 175.641 274.458 176.728Z" fill="#FFB6B6"/>
<path d="M248.905 147.754L237.952 109.236C237.952 109.236 232.354 107.154 229.92 112.359C227.485 117.564 230.547 137.474 230.547 137.474L243.307 159.987L263.753 176.643L268.865 170.657L248.905 147.754Z" fill="#1BD8CE"/>
</g>
<g clip-path="url(#clip1_127_2281)">
<path d="M269.042 248.933C269.042 249.193 268.847 249.402 268.604 249.402H0.437469C0.194794 249.402 -9.15527e-05 249.193 -9.15527e-05 248.933C-9.15527e-05 248.672 0.194794 248.463 0.437469 248.463H268.604C268.847 248.463 269.042 248.672 269.042 248.933Z" fill="#3F3D56"/>
<path d="M119.998 225.294V240.815L109.062 241.194L109.518 225.294H119.998Z" fill="#FFB6B6"/>
<path d="M122.16 233.929C122.307 233.929 122.454 233.949 122.594 233.992C124.569 234.596 135.99 245.543 139.443 248.881C139.869 249.296 140.097 249.884 140.064 250.499C140.035 251.111 139.748 251.667 139.284 252.027C136.666 254.051 131.298 257.255 124.789 255.961C121.796 255.365 118.774 254.99 116.104 254.663C110.394 253.956 105.885 253.396 105.885 251.229C105.885 247.548 106.827 237.852 108.011 237.445C108.117 237.41 108.242 237.5 108.386 237.713C110.195 240.432 116.417 238.988 116.681 238.925L116.751 238.909L116.792 238.846C116.825 238.795 119.869 233.937 122.16 233.937V233.929Z" fill="#2F2E41"/>
<path d="M140.454 225.294V240.815L129.522 241.194L129.978 225.294H140.454Z" fill="#FFB6B6"/>
<path d="M144.863 114.195L150.683 118.927L151.742 172.3L141.866 230.594L128.992 231.163L128.639 175.516L112.059 124.795L115.413 112.869L144.863 114.195Z" fill="#2F2E41"/>
<path d="M117.704 123.28L112.059 124.795L108.003 230.594L122.642 229.269L132.342 154.506L117.704 123.28Z" fill="#2F2E41"/>
<path d="M148.26 256.636C153.279 256.636 157.354 254.256 159.53 252.65C160.189 252.165 160.597 251.395 160.648 250.539C160.7 249.675 160.387 248.846 159.788 248.266C154.383 243.049 145.035 234.209 143.149 233.629C140.704 232.875 137.42 237.895 136.997 238.562C136.313 238.712 130.713 239.86 129.136 237.485C128.834 237.031 128.551 237.011 128.367 237.074C126.679 237.654 125.995 249.32 125.995 251.222C125.995 253.728 130.412 254.276 136.527 255.034C139.189 255.365 142.204 255.736 145.186 256.328C146.245 256.537 147.271 256.632 148.264 256.632L148.26 256.636Z" fill="#2F2E41"/>
<path d="M189.51 45.1393C191.378 40.7116 190.676 36.0708 187.94 34.7803C185.204 33.4899 181.472 36.0353 179.604 40.4669C178.835 42.227 178.482 44.1606 178.582 46.1061L170.896 64.9851L179.567 68.7183L186.223 49.713C187.657 48.4897 188.786 46.923 189.51 45.1433C189.51 45.1433 189.51 45.1393 189.51 45.1393Z" fill="#FFB6B6"/>
<path d="M136.387 53.1541C131.702 57.8975 131.993 65.9874 137.008 70.3243L161.571 91.5632C164.252 93.8796 168.23 93.0628 169.922 89.8426C176.375 78.6273 177.592 78.0117 181.347 66.5201L170.768 62.5502L164.803 70.5651L151.779 54.0775C147.845 49.0934 140.818 48.6751 136.391 53.1541L136.387 53.1541Z" fill="#1BD8CE"/>
<path d="M132.769 45.0642L128.753 53.75L143.936 61.6188L143.752 47.6924L132.769 45.0642Z" fill="#FFB6B6"/>
<path d="M143.885 51.6349C136.338 51.6349 130.22 45.0694 130.22 36.9705C130.22 28.8716 136.338 22.3062 143.885 22.3062C151.431 22.3062 157.549 28.8716 157.549 36.9705C157.549 45.0694 151.431 51.6349 143.885 51.6349Z" fill="#FFB6B6"/>
<path d="M143.976 58.2329L129.967 49.3499C119.693 57.0845 111.136 58.8919 110.864 72.3566L112.758 104.475L112.648 118.307C112.6 124.116 116.976 128.848 122.385 128.848H142.388C147.683 128.848 151.625 123.607 150.511 118.051L146.734 99.2307L150.768 62.5541L143.976 58.225V58.2329Z" fill="#1BD8CE"/>
<path d="M222.089 39.804C222.089 39.0344 221.508 38.4149 220.795 38.4149H206.193C205.476 38.4149 204.899 39.0384 204.899 39.804V39.9934L168.889 42.2546C168.786 41.8166 168.418 41.489 167.973 41.489H164.145V38.4859C164.145 37.815 163.638 37.2744 163.016 37.2744H162.237V34.6225C162.237 34.2003 161.917 33.8569 161.524 33.8569H159.343C158.95 33.8569 158.63 34.2003 158.63 34.6225V37.2744H157.913C157.964 37.1679 157.994 37.0534 157.994 36.9311C157.994 36.3668 157.376 35.905 156.615 35.905C155.854 35.905 155.236 36.3628 155.236 36.9311C155.236 37.0771 155.28 37.2192 155.353 37.3454C154.916 37.5112 154.596 37.9571 154.596 38.4859V54.0579C154.596 54.7288 155.103 55.2694 155.725 55.2694H163.016C163.642 55.2694 164.145 54.7248 164.145 54.0579V51.9664H167.973C168.466 51.9664 168.867 51.5599 168.911 51.043L204.957 58.166C205.123 58.7303 205.612 59.1407 206.193 59.1407H220.795C221.512 59.1407 222.089 58.5172 222.089 57.7516C222.262 51.3981 221.879 45.3643 222.089 39.804Z" fill="#3F3D56"/>
<path d="M165.705 49.5827C167.525 45.1313 166.771 40.5023 164.02 39.2435C161.27 37.9886 157.567 40.5773 155.747 45.0327C154.997 46.8006 154.666 48.7382 154.787 50.6837L147.308 69.6574L156.019 73.284L162.469 54.1959C163.892 52.9568 165.002 51.3743 165.705 49.5827Z" fill="#FFB6B6"/>
<path d="M112.673 58.2646C108.04 63.0672 108.423 71.1531 113.482 75.427L138.273 96.354C140.98 98.6389 144.947 97.7707 146.606 94.5309C152.937 83.2366 153.449 84.7717 157.078 73.2328L147.315 66.6268L141.277 75.3204L128.077 58.9986C124.087 54.0658 117.056 53.7343 112.677 58.2686H112.673C112.673 58.2686 112.673 58.2646 112.673 58.2646Z" fill="#1BD8CE"/>
<path d="M129.834 44.3461L132.361 46.2877C132.361 46.2877 133.103 37.8229 134.129 37.448C135.155 37.0731 136.538 39.0226 136.538 39.0226L137.549 42.1993L140.891 40.7037C140.891 40.7037 144.76 38.4661 146.128 37.965C147.495 37.4638 147.29 33.2097 147.29 33.2097C147.29 33.2097 163.704 35.6209 161.24 25.4671C161.24 25.4671 160.391 17.9968 158.575 19.4806C156.758 20.9644 156.732 17.2865 156.732 17.2865L152.614 16.3354C152.614 16.3354 146.962 8.16666 135.813 15.116C124.664 22.0654 129.838 44.3382 129.838 44.3382V44.3461H129.834Z" fill="#2F2E41"/>
</g>
<defs>
<clipPath id="clip0_127_2281">
<rect width="415.017" height="250.12" fill="white" transform="translate(175.983)"/>
</clipPath>
<clipPath id="clip1_127_2281">
<rect width="269.042" height="244.321" fill="white" transform="matrix(-1 0 0 1 269.042 12.3147)"/>
</clipPath>
</defs>
</svg>
