<svg width="211" height="59" viewBox="0 0 211 59" fill="none" xmlns="http://www.w3.org/2000/svg">
<path d="M12.6084 46.511C12.7684 32.6724 28.4841 29.7473 26.7244 14.6269C26.2171 10.2738 23.9731 5.11449 19.4192 0.986063C19.1814 0.770116 18.7857 0.949961 18.8157 1.25884C20.1892 15.149 9.72077 21.7338 5.01406 27.5222C-5.42288 40.3582 2.24858 56.817 17.7201 58.9958C18.0622 59.0439 18.2715 58.6556 18.0258 58.4277C14.8496 55.4806 12.6084 51.7399 12.6084 46.511Z" fill="#27DEEA"/>
<path d="M32.8509 24.3596C32.6423 24.1938 32.3217 24.3002 32.2696 24.5515C31.8946 26.3461 30.7012 29.3091 26.8715 34.5031C16.9544 47.9515 21.7462 53.9278 26.0757 58.422C27.0306 59.4855 26.554 58.1858 28.5838 56.8695C31.3098 55.1019 32.4663 54.8786 35.05 52.7278C37.9969 49.9638 40.3882 45.6122 40.6196 41.2049C41.1231 31.6257 35.1035 26.1495 32.8509 24.3596Z" fill="#27DEEA"/>
<path fill-rule="evenodd" clip-rule="evenodd" d="M77.5438 29.8485V12.9399H83.3957C84.6452 12.9399 85.6583 13.9138 85.6583 15.1155V55.4097H79.8057C78.5562 55.4097 77.5438 54.4352 77.5438 53.2342V36.6687H60.2034V55.4097H54.3508C53.102 55.4097 52.0889 54.4352 52.0889 53.2342V12.9399H57.9412C59.1907 12.9399 60.2034 13.9138 60.2034 15.1155V29.8485H77.5438ZM112.275 43.0871V22.939L118.271 22.9383C119.546 22.9383 120.579 23.9134 120.579 25.1164V43.44C120.579 50.0365 114.86 55.4333 107.87 55.4333H104.471C97.4812 55.4333 91.7616 50.0365 91.7616 43.4404V22.9383H97.7581C99.033 22.9383 100.066 23.9134 100.066 25.1164V42.7218C100.066 46.9327 104.917 50.1257 109.606 47.5691C111.285 46.6535 112.275 44.9182 112.275 43.0871ZM204.404 55.4088H210.274V26.8328C210.274 25.628 209.258 24.6516 208.005 24.6516H202.136V53.2269C202.136 54.4317 203.151 55.4088 204.404 55.4088ZM210.781 17.1774C210.781 19.5178 208.754 21.4148 206.255 21.4148C203.754 21.4148 201.727 19.5178 201.727 17.1774C201.727 14.837 203.754 12.9399 206.255 12.9399C208.754 12.9399 210.781 14.837 210.781 17.1774ZM149.73 41.9362C149.73 45.8073 146.396 48.3844 142.321 48.3844C138.246 48.3844 134.912 45.8073 134.912 41.9362V36.4118C134.912 32.5406 138.246 29.9633 142.321 29.9633C146.396 29.9633 149.73 32.5406 149.73 36.4118V41.9362ZM142.321 22.9383C133.705 22.9383 126.655 28.7932 126.655 36.9777V41.4045C126.655 49.5894 133.705 55.4097 142.321 55.4097C150.937 55.4097 157.986 49.5894 157.986 41.4045V36.9777C157.986 28.7932 150.937 22.9383 142.321 22.9383ZM179.854 48.3893C183.955 48.3893 187.312 45.8138 187.312 41.9453V36.4247C187.312 32.556 183.955 29.9807 179.854 29.9807C175.752 29.9807 172.397 32.556 172.397 36.4247V41.9453C172.397 45.8138 175.752 48.3893 179.854 48.3893ZM172.354 24.5672C174.588 23.5316 177.143 22.9603 179.854 22.9603C188.526 22.9603 195.621 28.8113 195.621 36.9902V41.4141C195.621 49.5934 188.526 55.4097 179.854 55.4097C171.182 55.4097 164.086 49.5934 164.086 41.4141V12.9399H170.049C171.322 12.9399 172.354 13.9129 172.354 15.113V24.5672Z" fill="#27DEEA"/>
</svg>
