<svg width="241" height="37" viewBox="0 0 241 37" fill="none" xmlns="http://www.w3.org/2000/svg">
<mask id="mask0_452_35" style="mask-type:luminance" maskUnits="userSpaceOnUse" x="0" y="0" width="241" height="37">
<path d="M241 0H0V37H241V0Z" fill="white"/>
</mask>
<g mask="url(#mask0_452_35)">
<path d="M46.4714 28.4651C45.9109 28.4651 45.5147 28.3503 45.2828 28.1213C45.0702 27.892 44.9639 27.5291 44.9639 27.0325V10.4438C44.9639 9.94702 45.0798 9.58409 45.3117 9.35502C45.5437 9.10662 45.9301 8.98242 46.4714 8.98242H53.574C56.2798 8.98242 58.2704 9.54597 59.5462 10.6729C60.8217 11.7998 61.4595 13.4806 61.4595 15.7153C61.4595 17.931 60.8217 19.6023 59.5462 20.7293C58.2898 21.8372 56.2991 22.3911 53.574 22.3911H50.8199V27.0325C50.8199 27.5291 50.704 27.892 50.4721 28.1213C50.2401 28.3503 49.8439 28.4651 49.2834 28.4651H46.4714ZM53.1103 18.2367C53.9027 18.2367 54.5115 18.0266 54.9367 17.6064C55.3811 17.1862 55.6034 16.5559 55.6034 15.7155C55.6034 14.8559 55.3811 14.216 54.9367 13.7958C54.5115 13.3756 53.9027 13.1655 53.1103 13.1655H50.8199V18.2367H53.1103ZM68.3059 28.8947C66.4893 28.8947 65.0301 28.3217 63.9284 27.1758C62.846 26.0106 62.305 24.3776 62.305 22.2764C62.305 20.672 62.6722 19.268 63.4065 18.0647C64.1603 16.8614 65.2137 15.9351 66.5666 15.2856C67.9388 14.6172 69.5139 14.2829 71.2919 14.2829C72.7609 14.2829 74.0558 14.4452 75.1767 14.77C76.317 15.0755 77.3606 15.5244 78.3077 16.1165V27.5769C78.3077 27.9398 78.2401 28.1785 78.1047 28.2931C77.9694 28.4078 77.6989 28.4651 77.293 28.4651H74.336C74.1234 28.4651 73.9591 28.4364 73.8432 28.379C73.7271 28.3027 73.6306 28.188 73.5533 28.0352L73.1763 27.1758C72.6158 27.7678 71.9395 28.1977 71.1471 28.4651C70.374 28.7516 69.427 28.8947 68.3059 28.8947ZM70.4803 24.9982C71.234 24.9982 71.8234 24.8167 72.2486 24.454C72.6738 24.0911 72.8864 23.5753 72.8864 22.9067V18.4373C72.5193 18.2653 72.0554 18.1794 71.4949 18.1794C70.4705 18.1794 69.6492 18.5327 69.0308 19.2394C68.4315 19.9461 68.132 20.9394 68.132 22.2191C68.132 24.0719 68.9147 24.9982 70.4803 24.9982ZM82.3422 28.4651C81.7816 28.4651 81.3853 28.3503 81.1536 28.1213C80.9216 27.892 80.8057 27.5291 80.8057 27.0325V15.6008C80.8057 15.257 80.8636 15.0277 80.9795 14.9132C81.1148 14.7793 81.3853 14.7126 81.7913 14.7126H84.7774C85.0092 14.7126 85.1832 14.7509 85.2991 14.8273C85.4344 14.8846 85.5117 14.9991 85.5311 15.1711L85.6759 16.0306C86.2172 15.4957 86.9227 15.0755 87.7923 14.77C88.6814 14.4452 89.667 14.2829 90.7494 14.2829C92.3148 14.2829 93.5808 14.7223 94.547 15.6008C95.5135 16.4603 95.9966 17.7401 95.9966 19.44V27.0325C95.9966 27.5291 95.8807 27.892 95.6487 28.1213C95.4361 28.3503 95.0495 28.4651 94.4891 28.4651H91.677C91.1166 28.4651 90.7108 28.3503 90.4594 28.1213C90.2275 27.892 90.1116 27.5291 90.1116 27.0325V19.8124C90.1116 19.2394 89.9859 18.8289 89.7347 18.5805C89.4834 18.3323 89.0872 18.2081 88.5461 18.2081C87.9663 18.2081 87.5023 18.3609 87.1545 18.6664C86.826 18.972 86.6618 19.3922 86.6618 19.9272V27.0325C86.6618 27.5291 86.5457 27.892 86.3139 28.1213C86.1013 28.3503 85.7147 28.4651 85.1542 28.4651H82.3422ZM106.244 28.8947C103.538 28.8947 101.451 28.2739 99.9819 27.0325C98.5131 25.791 97.7786 23.986 97.7786 21.6175C97.7786 20.1659 98.1169 18.8861 98.7932 17.7784C99.4698 16.6704 100.446 15.8109 101.721 15.1997C103.016 14.5886 104.543 14.2829 106.302 14.2829C107.635 14.2829 108.756 14.4071 109.665 14.6553C110.592 14.9037 111.414 15.2856 112.129 15.8014C112.342 15.9353 112.448 16.1071 112.448 16.3172C112.448 16.47 112.37 16.6704 112.216 16.9188L111.027 18.9529C110.892 19.2204 110.728 19.3541 110.534 19.3541C110.418 19.3541 110.235 19.2777 109.984 19.1249C109.462 18.8002 108.969 18.5615 108.505 18.4087C108.061 18.2558 107.5 18.1794 106.824 18.1794C105.857 18.1794 105.075 18.4851 104.475 19.0962C103.896 19.7074 103.606 20.5478 103.606 21.6175C103.606 22.7063 103.905 23.5467 104.504 24.1387C105.104 24.7117 105.925 24.9982 106.969 24.9982C107.587 24.9982 108.148 24.9123 108.65 24.7403C109.153 24.5685 109.665 24.3298 110.187 24.0241C110.457 23.8713 110.65 23.7949 110.766 23.7949C110.94 23.7949 111.095 23.9286 111.23 24.1961L112.535 26.4022C112.631 26.5931 112.68 26.746 112.68 26.8605C112.68 27.0325 112.564 27.1948 112.332 27.3476C111.52 27.8634 110.631 28.2453 109.665 28.4937C108.718 28.7611 107.577 28.8947 106.244 28.8947ZM120.03 28.8947C118.213 28.8947 116.754 28.3217 115.653 27.1758C114.57 26.0106 114.029 24.3776 114.029 22.2764C114.029 20.672 114.396 19.268 115.131 18.0647C115.884 16.8614 116.938 15.9351 118.291 15.2856C119.663 14.6172 121.238 14.2829 123.016 14.2829C124.485 14.2829 125.78 14.4452 126.901 14.77C128.041 15.0755 129.085 15.5244 130.032 16.1165V27.5769C130.032 27.9398 129.964 28.1785 129.829 28.2931C129.694 28.4078 129.423 28.4651 129.017 28.4651H126.06C125.848 28.4651 125.683 28.4364 125.567 28.379C125.451 28.3027 125.355 28.188 125.277 28.0352L124.901 27.1758C124.34 27.7678 123.664 28.1977 122.871 28.4651C122.098 28.7516 121.151 28.8947 120.03 28.8947ZM122.204 24.9982C122.958 24.9982 123.548 24.8167 123.973 24.454C124.398 24.0911 124.611 23.5753 124.611 22.9067V18.4373C124.243 18.2653 123.78 18.1794 123.219 18.1794C122.195 18.1794 121.373 18.5327 120.755 19.2394C120.156 19.9461 119.856 20.9394 119.856 22.2191C119.856 24.0719 120.639 24.9982 122.204 24.9982ZM148.243 27.3763C148.378 27.5291 148.446 27.7011 148.446 27.892C148.446 28.0638 148.388 28.2072 148.272 28.3217C148.156 28.4173 148.001 28.4651 147.808 28.4651H143.314C143.044 28.4651 142.841 28.4459 142.705 28.4078C142.59 28.3503 142.464 28.2453 142.329 28.0926L138.386 22.7922V27.0325C138.386 27.5291 138.27 27.892 138.038 28.1213C137.806 28.3503 137.41 28.4651 136.849 28.4651H134.037C133.477 28.4651 133.081 28.3503 132.849 28.1213C132.636 27.892 132.53 27.5291 132.53 27.0325V10.4438C132.53 9.94702 132.646 9.58409 132.878 9.35502C133.11 9.10662 133.496 8.98242 134.037 8.98242H136.849C137.41 8.98242 137.806 9.10662 138.038 9.35502C138.27 9.58409 138.386 9.94702 138.386 10.4436V20.0417L142.213 15.1138C142.329 14.961 142.454 14.8559 142.59 14.7987C142.725 14.7412 142.928 14.7126 143.198 14.7126H147.692C147.885 14.7126 148.03 14.77 148.127 14.8846C148.243 14.9801 148.301 15.1138 148.301 15.2856C148.301 15.4768 148.233 15.6486 148.098 15.8014L143.14 21.417L148.243 27.3763ZM157.656 28.8947C156.033 28.8947 154.583 28.6274 153.307 28.0926C152.051 27.5577 151.056 26.7554 150.321 25.686C149.587 24.6163 149.22 23.3079 149.22 21.7608C149.22 19.335 149.916 17.4822 151.307 16.2024C152.699 14.9227 154.699 14.2829 157.308 14.2829C159.859 14.2829 161.792 14.9132 163.106 16.1738C164.44 17.4154 165.107 19.144 165.107 21.3596C165.107 22.3147 164.681 22.7922 163.831 22.7922H154.728C154.728 23.6134 155.037 24.2439 155.656 24.6831C156.293 25.1224 157.25 25.342 158.526 25.342C159.318 25.342 159.975 25.2752 160.497 25.1416C161.038 24.9887 161.579 24.7691 162.121 24.4826C162.353 24.3871 162.507 24.3393 162.584 24.3393C162.758 24.3393 162.903 24.454 163.019 24.6831L164.005 26.5167C164.102 26.7078 164.15 26.851 164.15 26.9466C164.15 27.1184 164.034 27.2809 163.802 27.4335C163.01 27.9493 162.111 28.3217 161.106 28.551C160.101 28.7802 158.951 28.8947 157.656 28.8947ZM159.888 19.9558C159.888 19.2299 159.676 18.6664 159.251 18.2653C158.825 17.8643 158.187 17.6637 157.337 17.6637C156.487 17.6637 155.839 17.8738 155.395 18.294C154.95 18.6952 154.728 19.2491 154.728 19.9558H159.888ZM175.043 28.8947C173.419 28.8947 171.883 28.7324 170.434 28.4078C168.984 28.0638 167.815 27.5863 166.926 26.9752C166.597 26.7651 166.433 26.5453 166.433 26.3163C166.433 26.1634 166.491 26.0011 166.607 25.8291L168.027 23.5944C168.182 23.3652 168.336 23.2507 168.491 23.2507C168.588 23.2507 168.752 23.3174 168.984 23.4511C169.699 23.8523 170.511 24.177 171.419 24.4252C172.328 24.6736 173.226 24.7978 174.115 24.7978C175.024 24.7978 175.69 24.6641 176.116 24.3965C176.56 24.1292 176.782 23.6995 176.782 23.1073C176.782 22.5343 176.541 22.0854 176.058 21.7608C175.594 21.436 174.714 21.0255 173.419 20.5288C171.468 19.803 169.941 18.9912 168.839 18.0933C167.757 17.1767 167.216 15.9351 167.216 14.3688C167.216 12.4779 167.902 11.0358 169.274 10.0426C170.646 9.04917 172.472 8.55273 174.753 8.55273C176.338 8.55273 177.691 8.6959 178.812 8.98242C179.952 9.24997 180.918 9.67017 181.711 10.243C182.039 10.4914 182.204 10.7207 182.204 10.9308C182.204 11.0645 182.146 11.2171 182.03 11.3891L180.609 13.624C180.435 13.853 180.281 13.9677 180.145 13.9677C180.049 13.9677 179.884 13.9008 179.653 13.7671C178.531 13.0413 177.198 12.6785 175.652 12.6785C174.821 12.6785 174.183 12.8122 173.738 13.0796C173.294 13.3469 173.072 13.7863 173.072 14.3974C173.072 14.8176 173.188 15.1616 173.419 15.429C173.651 15.6963 173.961 15.9351 174.347 16.1452C174.753 16.3361 175.372 16.5845 176.203 16.8902L176.753 17.0906C178.184 17.6447 179.305 18.1794 180.116 18.6952C180.948 19.1916 181.576 19.8124 182.001 20.5575C182.426 21.2832 182.638 22.2 182.638 23.3079C182.638 25.0079 181.991 26.3641 180.696 27.3763C179.421 28.3886 177.536 28.8947 175.043 28.8947ZM188.798 28.4651C188.508 28.4651 188.286 28.4173 188.131 28.3217C187.977 28.2263 187.861 28.0352 187.783 27.7487L184.044 15.3715C184.005 15.257 183.986 15.1711 183.986 15.1138C183.986 14.8465 184.179 14.7126 184.566 14.7126H188.392C188.644 14.7126 188.826 14.7604 188.943 14.8557C189.06 14.9324 189.137 15.0658 189.174 15.257L190.74 21.7608L192.711 16.5176C192.809 16.2885 192.905 16.1357 193.001 16.0593C193.118 15.9637 193.311 15.9161 193.582 15.9161H195.407C195.678 15.9161 195.863 15.9637 195.959 16.0593C196.075 16.1355 196.181 16.2885 196.278 16.5176L198.22 21.7608L199.815 15.257C199.872 15.066 199.949 14.9324 200.047 14.8559C200.143 14.7604 200.318 14.7128 200.568 14.7128H204.425C204.81 14.7128 205.004 14.8465 205.004 15.1138C205.004 15.1711 204.985 15.257 204.946 15.3715L201.177 27.7487C201.1 28.0352 200.984 28.2263 200.829 28.3217C200.694 28.4173 200.481 28.4651 200.192 28.4651H197.351C197.08 28.4651 196.877 28.4173 196.741 28.3217C196.606 28.2072 196.491 28.0162 196.393 27.7487L194.48 22.5629L192.566 27.7487C192.489 28.0162 192.373 28.2072 192.218 28.3217C192.083 28.4173 191.882 28.4651 191.611 28.4651H188.798ZM212.353 28.8947C210.535 28.8947 209.077 28.3217 207.975 27.1758C206.893 26.0106 206.351 24.3776 206.351 22.2764C206.351 20.672 206.718 19.268 207.454 18.0647C208.206 16.8614 209.26 15.9351 210.612 15.2856C211.986 14.6172 213.56 14.2829 215.338 14.2829C216.808 14.2829 218.102 14.4452 219.223 14.77C220.363 15.0755 221.407 15.5244 222.354 16.1165V27.5769C222.354 27.9398 222.286 28.1785 222.151 28.2931C222.015 28.4078 221.746 28.4651 221.34 28.4651H218.382C218.17 28.4651 218.006 28.4364 217.889 28.379C217.773 28.3027 217.677 28.188 217.6 28.0352L217.223 27.1758C216.663 27.7678 215.985 28.1977 215.193 28.4651C214.42 28.7516 213.474 28.8947 212.353 28.8947ZM214.527 24.9982C215.28 24.9982 215.871 24.8167 216.296 24.454C216.721 24.0911 216.934 23.5753 216.934 22.9067V18.4373C216.565 18.2653 216.102 18.1794 215.541 18.1794C214.516 18.1794 213.696 18.5327 213.077 19.2394C212.479 19.9461 212.178 20.9394 212.178 22.2191C212.178 24.0719 212.962 24.9982 214.527 24.9982ZM226.359 34.2525C225.799 34.2525 225.403 34.138 225.17 33.9087C224.958 33.6795 224.852 33.3165 224.852 32.8199V16.4031C225.721 15.7919 226.814 15.2856 228.128 14.8846C229.443 14.4835 230.814 14.2829 232.244 14.2829C238.082 14.2829 241 16.7279 241 21.6175C241 23.8332 240.381 25.5999 239.145 26.9179C237.907 28.2358 236.159 28.8947 233.898 28.8947C233.26 28.8947 232.641 28.8183 232.041 28.6655C231.461 28.5128 230.978 28.3027 230.592 28.0352V32.8199C230.592 33.3165 230.476 33.6795 230.244 33.9087C230.013 34.138 229.616 34.2525 229.055 34.2525H226.359ZM232.65 25.0268C233.482 25.0268 234.101 24.7214 234.505 24.11C234.931 23.4797 235.143 22.6393 235.143 21.5888C235.143 20.3474 234.893 19.4781 234.391 18.9815C233.907 18.4659 233.153 18.2081 232.129 18.2081C231.471 18.2081 230.95 18.294 230.564 18.4659V23.0214C230.564 23.6709 230.746 24.1675 231.113 24.5113C231.482 24.855 231.994 25.0268 232.65 25.0268Z" fill="#27DEEA"/>
<path fill-rule="evenodd" clip-rule="evenodd" d="M18.3535 36.9269C12.8614 36.9228 8.43728 35.6204 5.34623 33.281C2.21813 30.9136 0.558594 27.5538 0.558594 23.7521C0.558594 20.0891 2.21436 17.4478 4.08799 15.6623C5.55638 14.2632 7.17659 13.3672 8.30483 12.8516C8.04972 12.0778 7.7314 11.0649 7.44657 10.0184C7.06559 8.6184 6.69177 6.97552 6.69177 5.77181C6.69177 4.34703 7.00596 2.91593 7.8535 1.80408C8.74902 0.629372 10.0972 0 11.7189 0C12.9864 0 14.0625 0.464638 14.9048 1.26618C15.71 2.03221 16.2462 3.0498 16.6162 4.11053C17.2664 5.97429 17.5197 8.31589 17.5906 10.6528H19.144C19.2151 8.31589 19.4682 5.97429 20.1185 4.11053C20.4886 3.0498 21.0244 2.0324 21.8298 1.26618C22.6723 0.464824 23.7482 0 25.0157 0C26.6376 0 27.9856 0.629372 28.8811 1.80408C29.7286 2.91593 30.043 4.34703 30.043 5.77181C30.043 6.97552 29.669 8.6184 29.288 10.0184C29.0032 11.0649 28.6849 12.0778 28.4297 12.8516C29.558 13.3672 31.1784 14.2632 32.6466 15.6625C34.5202 17.4478 36.176 20.0891 36.176 23.7521C36.176 27.5538 34.5166 30.9136 31.3883 33.281C28.2973 35.6204 23.8731 36.9228 18.3811 36.9269H18.3535Z" fill="#27DEEA"/>
<path d="M11.7185 1.35498C9.34331 1.35498 8.24988 3.12429 8.24988 5.57094C8.24988 7.51576 9.52035 11.4106 10.0415 12.9269C10.1589 13.2681 9.9745 13.6416 9.6385 13.7738C7.73476 14.5233 2.1167 17.2672 2.1167 23.5514C2.1167 30.1711 7.82601 35.1624 18.3546 35.1704L18.367 35.1702L18.3796 35.1704C28.908 35.1624 34.6173 30.1711 34.6173 23.5514C34.6173 17.2672 28.9992 14.5233 27.0955 13.7738C26.7595 13.6418 26.5753 13.2681 26.6925 12.9269C27.2138 11.4108 28.4843 7.51576 28.4843 5.57094C28.4843 3.1241 27.3908 1.35498 25.0155 1.35498C21.5963 1.35498 20.7439 6.19045 20.6831 11.3803C20.6792 11.7267 20.3985 12.0078 20.0515 12.0078H16.6826C16.3355 12.0078 16.055 11.7267 16.0509 11.3803C15.9901 6.19045 15.1378 1.35498 11.7185 1.35498Z" fill="#0B1B31"/>
<path d="M18.3796 33.05C10.6439 33.05 2.13006 28.9158 2.1167 23.5642V23.5891C2.1167 30.2142 7.83504 35.2081 18.3796 35.2081C28.9241 35.2081 34.6425 30.2142 34.6425 23.5891V23.5642C34.6291 28.9158 26.1153 33.05 18.3796 33.05Z" fill="#27DEEA"/>
<path d="M14.0819 21.9205C14.0819 23.7273 13.2266 24.6683 12.1715 24.6683C11.1165 24.6683 10.2612 23.7273 10.2612 21.9205C10.2612 20.1136 11.1165 19.1726 12.1715 19.1726C13.2266 19.1726 14.0819 20.1136 14.0819 21.9205ZM26.4989 21.9205C26.4989 23.7273 25.6437 24.6683 24.5886 24.6683C23.5335 24.6683 22.6783 23.7273 22.6783 21.9205C22.6783 20.1136 23.5335 19.1726 24.5886 19.1726C25.6437 19.1726 26.4989 20.1136 26.4989 21.9205Z" fill="#27DEEA"/>
</g>
</svg>
