<svg width="197" height="77" viewBox="0 0 197 77" fill="none" xmlns="http://www.w3.org/2000/svg">
<path fill-rule="evenodd" clip-rule="evenodd" d="M97.7949 36.9269C92.3029 36.9228 87.8787 35.6204 84.7876 33.281C81.6595 30.9136 80 27.5538 80 23.7521C80 20.0891 81.6558 17.4478 83.5294 15.6623C84.9978 14.2632 86.618 13.3672 87.7462 12.8516C87.4911 12.0778 87.1728 11.0649 86.888 10.0184C86.507 8.6184 86.1332 6.97552 86.1332 5.77181C86.1332 4.34703 86.4474 2.91593 87.2949 1.80408C88.1904 0.629372 89.5386 0 91.1603 0C92.4278 0 93.5039 0.464638 94.3462 1.26618C95.1514 2.03221 95.6876 3.0498 96.0576 4.11053C96.7078 5.97429 96.9611 8.31589 97.032 10.6528H98.5854C98.6565 8.31589 98.9096 5.97429 99.5599 4.11053C99.93 3.0498 100.466 2.0324 101.271 1.26618C102.114 0.464824 103.19 0 104.457 0C106.079 0 107.427 0.629372 108.322 1.80408C109.17 2.91593 109.484 4.34703 109.484 5.77181C109.484 6.97552 109.11 8.6184 108.729 10.0184C108.445 11.0649 108.126 12.0778 107.871 12.8516C108.999 13.3672 110.62 14.2632 112.088 15.6625C113.962 17.4478 115.617 20.0891 115.617 23.7521C115.617 27.5538 113.958 30.9136 110.83 33.281C107.739 35.6204 103.315 36.9228 97.8225 36.9269H97.7949Z" fill="#FAFAFA"/>
<path d="M91.1599 1.35498C88.7847 1.35498 87.6913 3.12429 87.6913 5.57094C87.6913 7.51576 88.9618 11.4106 89.4829 12.9269C89.6003 13.2681 89.4159 13.6416 89.0799 13.7738C87.1762 14.5233 81.5581 17.2672 81.5581 23.5514C81.5581 30.1711 87.2674 35.1624 97.796 35.1704L97.8084 35.1702L97.821 35.1704C108.349 35.1624 114.059 30.1711 114.059 23.5514C114.059 17.2672 108.441 14.5233 106.537 13.7738C106.201 13.6418 106.017 13.2681 106.134 12.9269C106.655 11.4108 107.926 7.51576 107.926 5.57094C107.926 3.1241 106.832 1.35498 104.457 1.35498C101.038 1.35498 100.185 6.19045 100.125 11.3803C100.121 11.7267 99.8399 12.0078 99.4929 12.0078H96.124C95.7769 12.0078 95.4964 11.7267 95.4923 11.3803C95.4315 6.19045 94.5793 1.35498 91.1599 1.35498Z" fill="black"/>
<path d="M97.821 33.05C90.0853 33.05 81.5715 28.9158 81.5581 23.5642V23.5891C81.5581 30.2142 87.2764 35.2081 97.821 35.2081C108.366 35.2081 114.084 30.2142 114.084 23.5891V23.5642C114.071 28.9158 105.557 33.05 97.821 33.05Z" fill="#FAFAFA"/>
<path d="M93.5233 21.9205C93.5233 23.7273 92.668 24.6683 91.613 24.6683C90.5579 24.6683 89.7026 23.7273 89.7026 21.9205C89.7026 20.1136 90.5579 19.1726 91.613 19.1726C92.668 19.1726 93.5233 20.1136 93.5233 21.9205ZM105.94 21.9205C105.94 23.7273 105.085 24.6683 104.03 24.6683C102.975 24.6683 102.12 23.7273 102.12 21.9205C102.12 20.1136 102.975 19.1726 104.03 19.1726C105.085 19.1726 105.94 20.1136 105.94 21.9205Z" fill="#FAFAFA"/>
<path d="M1.50752 70.9123C0.947068 70.9123 0.550859 70.7976 0.318889 70.5685C0.106297 70.3393 0 69.9764 0 69.4797V52.8911C0 52.3943 0.115891 52.0314 0.34786 51.8023C0.57983 51.5539 0.966258 51.4297 1.50752 51.4297H8.61015C11.3159 51.4297 13.3066 51.9932 14.5823 53.1202C15.8578 54.2471 16.4956 55.9279 16.4956 58.1626C16.4956 60.3783 15.8578 62.0496 14.5823 63.1765C13.3259 64.2845 11.3353 64.8384 8.61015 64.8384H5.85606V69.4797C5.85606 69.9764 5.74017 70.3393 5.5082 70.5685C5.27623 70.7976 4.88001 70.9123 4.31956 70.9123H1.50752ZM8.1464 60.684C8.93882 60.684 9.54763 60.4739 9.97281 60.0537C10.4172 59.6335 10.6396 59.0032 10.6396 58.1628C10.6396 57.3032 10.4172 56.6632 9.97281 56.243C9.54763 55.8228 8.93882 55.6127 8.1464 55.6127H5.85606V60.684H8.1464ZM23.342 71.342C21.5254 71.342 20.0662 70.769 18.9645 69.6231C17.8822 68.4579 17.3411 66.8248 17.3411 64.7237C17.3411 63.1193 17.7083 61.7153 18.4426 60.512C19.1965 59.3086 20.2498 58.3823 21.6027 57.7329C22.975 57.0645 24.55 56.7302 26.3281 56.7302C27.797 56.7302 29.092 56.8925 30.2129 57.2173C31.3531 57.5228 32.3967 57.9716 33.3438 58.5638V70.0241C33.3438 70.3871 33.2762 70.6258 33.1408 70.7403C33.0055 70.8551 32.735 70.9123 32.3292 70.9123H29.3721C29.1595 70.9123 28.9953 70.8837 28.8794 70.8262C28.7633 70.75 28.6668 70.6353 28.5895 70.4825L28.2124 69.6231C27.652 70.2151 26.9756 70.645 26.1832 70.9123C25.4102 71.1988 24.4631 71.342 23.342 71.342ZM25.5165 67.4455C26.2701 67.4455 26.8596 67.264 27.2847 66.9013C27.7099 66.5383 27.9225 66.0226 27.9225 65.354V60.8846C27.5555 60.7126 27.0915 60.6267 26.5311 60.6267C25.5067 60.6267 24.6853 60.98 24.0669 61.6867C23.4677 62.3934 23.1682 63.3866 23.1682 64.6664C23.1682 66.5192 23.9508 67.4455 25.5165 67.4455ZM37.3783 70.9123C36.8177 70.9123 36.4215 70.7976 36.1897 70.5685C35.9577 70.3393 35.8418 69.9764 35.8418 69.4797V58.048C35.8418 57.7043 35.8998 57.475 36.0157 57.3605C36.1509 57.2266 36.4215 57.1598 36.8275 57.1598H39.8135C40.0453 57.1598 40.2193 57.1982 40.3352 57.2746C40.4705 57.3318 40.5478 57.4464 40.5672 57.6184L40.7121 58.4779C41.2533 57.943 41.9588 57.5228 42.8284 57.2173C43.7175 56.8925 44.7031 56.7302 45.7855 56.7302C47.3509 56.7302 48.6169 57.1695 49.5832 58.048C50.5496 58.9076 51.0327 60.1873 51.0327 61.8873V69.4797C51.0327 69.9764 50.9168 70.3393 50.6849 70.5685C50.4723 70.7976 50.0857 70.9123 49.5252 70.9123H46.7132C46.1527 70.9123 45.7469 70.7976 45.4956 70.5685C45.2636 70.3393 45.1477 69.9764 45.1477 69.4797V62.2597C45.1477 61.6867 45.022 61.2761 44.7709 61.0277C44.5195 60.7795 44.1233 60.6553 43.5822 60.6553C43.0024 60.6553 42.5385 60.8082 42.1906 61.1136C41.8621 61.4193 41.6979 61.8395 41.6979 62.3744V69.4797C41.6979 69.9764 41.5818 70.3393 41.35 70.5685C41.1374 70.7976 40.7508 70.9123 40.1904 70.9123H37.3783ZM61.28 71.342C58.5743 71.342 56.4869 70.7212 55.018 69.4797C53.5492 68.2383 52.8147 66.4333 52.8147 64.0647C52.8147 62.6132 53.153 61.3334 53.8294 60.2256C54.5059 59.1177 55.4819 58.2581 56.7575 57.647C58.0524 57.0358 59.5793 56.7302 61.338 56.7302C62.6715 56.7302 63.7926 56.8544 64.7009 57.1026C65.6286 57.351 66.45 57.7329 67.1651 58.2487C67.3777 58.3825 67.4839 58.5543 67.4839 58.7644C67.4839 58.9173 67.4066 59.1177 67.252 59.3661L66.0634 61.4002C65.9281 61.6677 65.7638 61.8014 65.5706 61.8014C65.4545 61.8014 65.2709 61.725 65.0198 61.5721C64.4979 61.2475 64.0052 61.0088 63.5412 60.8559C63.0967 60.7031 62.5362 60.6267 61.8599 60.6267C60.8934 60.6267 60.1108 60.9324 59.5116 61.5435C58.9317 62.1547 58.6418 62.9951 58.6418 64.0647C58.6418 65.1535 58.9413 65.9939 59.5405 66.5859C60.1398 67.159 60.9612 67.4455 62.0047 67.4455C62.6231 67.4455 63.1838 67.3596 63.6863 67.1876C64.1888 67.0158 64.7009 66.7771 65.2228 66.4714C65.4933 66.3186 65.6865 66.2421 65.8026 66.2421C65.9764 66.2421 66.1311 66.3758 66.2663 66.6434L67.5709 68.8494C67.6676 69.0404 67.7159 69.1932 67.7159 69.3077C67.7159 69.4797 67.5998 69.642 67.3681 69.7949C66.5563 70.3107 65.6671 70.6926 64.7009 70.941C63.7538 71.2083 62.6135 71.342 61.28 71.342ZM75.0663 71.342C73.2495 71.342 71.7903 70.769 70.6888 69.6231C69.6065 68.4579 69.0652 66.8248 69.0652 64.7237C69.0652 63.1193 69.4325 61.7153 70.1669 60.512C70.9206 59.3086 71.974 58.3823 73.3268 57.7329C74.6991 57.0645 76.2743 56.7302 78.0524 56.7302C79.5212 56.7302 80.8161 56.8925 81.937 57.2173C83.0773 57.5228 84.121 57.9716 85.0681 58.5638V70.0241C85.0681 70.3871 85.0004 70.6258 84.8651 70.7403C84.7298 70.8551 84.4593 70.9123 84.0533 70.9123H81.0964C80.8838 70.9123 80.7194 70.8837 80.6035 70.8262C80.4876 70.75 80.3909 70.6353 80.3136 70.4825L79.9368 69.6231C79.3763 70.2151 78.6998 70.645 77.9073 70.9123C77.1343 71.1988 76.1872 71.342 75.0663 71.342ZM77.2406 67.4455C77.9944 67.4455 78.5839 67.264 79.0091 66.9013C79.4342 66.5383 79.6468 66.0226 79.6468 65.354V60.8846C79.2796 60.7126 78.8158 60.6267 78.2552 60.6267C77.231 60.6267 76.4096 60.98 75.791 61.6867C75.192 62.3934 74.8923 63.3866 74.8923 64.6664C74.8923 66.5192 75.6751 67.4455 77.2406 67.4455ZM103.279 69.8235C103.414 69.9764 103.482 70.1483 103.482 70.3393C103.482 70.5111 103.424 70.6544 103.308 70.769C103.192 70.8645 103.037 70.9123 102.844 70.9123H98.3504C98.0799 70.9123 97.8769 70.8932 97.7416 70.8551C97.6257 70.7976 97.5 70.6926 97.3648 70.5399L93.422 65.2394V69.4797C93.422 69.9764 93.3061 70.3393 93.0742 70.5685C92.8422 70.7976 92.446 70.9123 91.8855 70.9123H89.0735C88.513 70.9123 88.1168 70.7976 87.8848 70.5685C87.6723 70.3393 87.566 69.9764 87.566 69.4797V52.8911C87.566 52.3943 87.6819 52.0314 87.9138 51.8023C88.1458 51.5539 88.5324 51.4297 89.0735 51.4297H91.8855C92.446 51.4297 92.8422 51.5539 93.0742 51.8023C93.3061 52.0314 93.422 52.3943 93.422 52.8909V62.489L97.2489 57.5611C97.3647 57.4083 97.4904 57.3032 97.6257 57.2459C97.761 57.1885 97.964 57.1598 98.2345 57.1598H102.728C102.921 57.1598 103.066 57.2173 103.163 57.3318C103.279 57.4274 103.337 57.5611 103.337 57.7329C103.337 57.924 103.269 58.0958 103.134 58.2487L98.1766 63.8643L103.279 69.8235ZM112.692 71.342C111.069 71.342 109.619 71.0746 108.344 70.5399C107.087 70.005 106.092 69.2027 105.357 68.1332C104.623 67.0636 104.256 65.7552 104.256 64.2081C104.256 61.7822 104.952 59.9295 106.343 58.6497C107.735 57.3699 109.735 56.7302 112.344 56.7302C114.895 56.7302 116.828 57.3605 118.142 58.6211C119.476 59.8627 120.143 61.5913 120.143 63.8068C120.143 64.762 119.718 65.2394 118.867 65.2394H109.764C109.764 66.0607 110.073 66.6912 110.692 67.1303C111.33 67.5697 112.286 67.7893 113.562 67.7893C114.354 67.7893 115.011 67.7225 115.533 67.5888C116.074 67.436 116.616 67.2164 117.157 66.9299C117.389 66.8343 117.543 66.7865 117.62 66.7865C117.794 66.7865 117.939 66.9013 118.055 67.1303L119.041 68.964C119.138 69.1551 119.186 69.2983 119.186 69.3938C119.186 69.5656 119.07 69.7281 118.838 69.8808C118.046 70.3966 117.147 70.769 116.142 70.9982C115.137 71.2275 113.987 71.342 112.692 71.342ZM114.924 62.4031C114.924 61.6772 114.712 61.1136 114.287 60.7126C113.861 60.3115 113.224 60.1109 112.373 60.1109C111.523 60.1109 110.875 60.321 110.431 60.7412C109.986 61.1425 109.764 61.6963 109.764 62.4031H114.924ZM130.079 71.342C128.456 71.342 126.919 71.1797 125.47 70.8551C124.02 70.5111 122.851 70.0336 121.962 69.4225C121.633 69.2124 121.469 68.9926 121.469 68.7635C121.469 68.6107 121.527 68.4484 121.643 68.2764L123.064 66.0417C123.218 65.8125 123.373 65.6979 123.527 65.6979C123.624 65.6979 123.788 65.7647 124.02 65.8984C124.735 66.2996 125.547 66.6242 126.455 66.8724C127.364 67.1208 128.262 67.245 129.152 67.245C130.06 67.245 130.727 67.1114 131.152 66.8438C131.596 66.5764 131.819 66.1468 131.819 65.5546C131.819 64.9815 131.577 64.5327 131.094 64.2081C130.63 63.8833 129.751 63.4727 128.456 62.9761C126.504 62.2502 124.977 61.4385 123.875 60.5406C122.793 59.624 122.252 58.3823 122.252 56.8161C122.252 54.9252 122.938 53.4831 124.31 52.4899C125.682 51.4964 127.509 51 129.789 51C131.374 51 132.727 51.1432 133.848 51.4297C134.988 51.6972 135.954 52.1174 136.747 52.6903C137.076 52.9387 137.24 53.1679 137.24 53.378C137.24 53.5117 137.182 53.6644 137.066 53.8364L135.645 56.0712C135.471 56.3003 135.317 56.415 135.181 56.415C135.085 56.415 134.92 56.3481 134.689 56.2144C133.568 55.4885 132.234 55.1258 130.688 55.1258C129.857 55.1258 129.219 55.2595 128.775 55.5268C128.33 55.7942 128.108 56.2335 128.108 56.8447C128.108 57.2649 128.224 57.6089 128.456 57.8762C128.688 58.1436 128.997 58.3823 129.383 58.5924C129.789 58.7834 130.408 59.0318 131.239 59.3375L131.79 59.5379C133.22 60.092 134.341 60.6267 135.152 61.1425C135.984 61.6389 136.612 62.2597 137.037 63.0047C137.462 63.7304 137.675 64.6472 137.675 65.7552C137.675 67.4551 137.027 68.8113 135.732 69.8235C134.457 70.8359 132.572 71.342 130.079 71.342ZM143.834 70.9123C143.545 70.9123 143.323 70.8645 143.168 70.769C143.013 70.6736 142.897 70.4825 142.819 70.1959L139.08 57.8188C139.041 57.7043 139.022 57.6184 139.022 57.5611C139.022 57.2937 139.215 57.1598 139.602 57.1598H143.428C143.68 57.1598 143.863 57.2076 143.979 57.303C144.096 57.3796 144.173 57.5131 144.211 57.7043L145.776 64.2081L147.747 58.9649C147.845 58.7358 147.941 58.583 148.037 58.5065C148.154 58.411 148.348 58.3634 148.619 58.3634H150.443C150.714 58.3634 150.899 58.411 150.995 58.5065C151.111 58.5828 151.217 58.7358 151.315 58.9649L153.256 64.2081L154.851 57.7043C154.908 57.5133 154.985 57.3796 155.083 57.3032C155.179 57.2076 155.354 57.16 155.604 57.16H159.461C159.846 57.16 160.04 57.2937 160.04 57.5611C160.04 57.6184 160.021 57.7043 159.982 57.8188L156.214 70.1959C156.136 70.4825 156.02 70.6736 155.865 70.769C155.73 70.8645 155.517 70.9123 155.228 70.9123H152.387C152.116 70.9123 151.913 70.8645 151.777 70.769C151.642 70.6544 151.527 70.4635 151.429 70.1959L149.516 65.0102L147.603 70.1959C147.525 70.4635 147.409 70.6544 147.255 70.769C147.119 70.8645 146.918 70.9123 146.647 70.9123H143.834ZM167.389 71.342C165.571 71.342 164.113 70.769 163.011 69.6231C161.929 68.4579 161.387 66.8248 161.387 64.7237C161.387 63.1193 161.754 61.7153 162.49 60.512C163.242 59.3086 164.296 58.3823 165.648 57.7329C167.022 57.0645 168.597 56.7302 170.374 56.7302C171.844 56.7302 173.138 56.8925 174.259 57.2173C175.399 57.5228 176.444 57.9716 177.39 58.5638V70.0241C177.39 70.3871 177.322 70.6258 177.187 70.7403C177.051 70.8551 176.782 70.9123 176.376 70.9123H173.418C173.206 70.9123 173.042 70.8837 172.926 70.8262C172.809 70.75 172.713 70.6353 172.636 70.4825L172.259 69.6231C171.699 70.2151 171.022 70.645 170.23 70.9123C169.456 71.1988 168.51 71.342 167.389 71.342ZM169.564 67.4455C170.316 67.4455 170.907 67.264 171.332 66.9013C171.757 66.5383 171.97 66.0226 171.97 65.354V60.8846C171.601 60.7126 171.138 60.6267 170.578 60.6267C169.552 60.6267 168.732 60.98 168.113 61.6867C167.515 62.3934 167.214 63.3866 167.214 64.6664C167.214 66.5192 167.998 67.4455 169.564 67.4455ZM181.395 76.6998C180.835 76.6998 180.44 76.5852 180.206 76.356C179.994 76.1267 179.888 75.7638 179.888 75.2672V58.8503C180.758 58.2392 181.851 57.7329 183.164 57.3318C184.479 56.9308 185.85 56.7302 187.28 56.7302C193.118 56.7302 196.036 59.1751 196.036 64.0647C196.036 66.2804 195.417 68.0471 194.181 69.3652C192.943 70.6831 191.195 71.342 188.934 71.342C188.296 71.342 187.677 71.2656 187.077 71.1128C186.498 70.9601 186.014 70.75 185.628 70.4825V75.2672C185.628 75.7638 185.512 76.1267 185.28 76.356C185.049 76.5852 184.652 76.6998 184.091 76.6998H181.395ZM187.687 67.4741C188.518 67.4741 189.137 67.1686 189.542 66.5573C189.967 65.927 190.179 65.0866 190.179 64.0361C190.179 62.7946 189.929 61.9254 189.427 61.4288C188.943 60.9132 188.189 60.6553 187.165 60.6553C186.507 60.6553 185.986 60.7412 185.6 60.9132V65.4687C185.6 66.1181 185.783 66.6147 186.149 66.9585C186.518 67.3023 187.03 67.4741 187.687 67.4741Z" fill="white"/>
</svg>
