<svg width="1791" height="290" viewBox="0 0 1791 290" fill="none" xmlns="http://www.w3.org/2000/svg">
<path fill-rule="evenodd" clip-rule="evenodd" d="M0 29C0 12.9837 12.9837 0 29 0H1762C1778.02 0 1791 12.9837 1791 29V117C1774.36 117 1760.86 129.536 1760.86 145C1760.86 160.464 1774.36 173 1791 173V261C1791 277.016 1778.02 290 1762 290H29C12.9838 290 0 277.016 0 261V165H7.43866e-05C16.6443 165 30.1371 152.464 30.1371 137C30.1371 121.536 16.6443 109 7.43866e-05 109H0V29ZM27.9844 32C27.9844 28.134 31.1184 25 34.9844 25H44.6635C48.5295 25 51.6635 28.134 51.6635 32V40C51.6635 43.866 48.5295 47 44.6635 47H34.9844C31.1184 47 27.9844 43.866 27.9844 40V32ZM73.1903 32C73.1903 28.134 76.3243 25 80.1903 25H89.8694C93.7354 25 96.8694 28.134 96.8694 32V40C96.8694 43.866 93.7354 47 89.8694 47H80.1903C76.3243 47 73.1903 43.866 73.1903 40V32ZM125.395 25C121.529 25 118.395 28.134 118.395 32V40C118.395 43.866 121.529 47 125.395 47H135.074C138.94 47 142.074 43.866 142.074 40V32C142.074 28.134 138.94 25 135.074 25H125.395ZM163.601 32C163.601 28.134 166.735 25 170.601 25H180.28C184.146 25 187.28 28.134 187.28 32V40C187.28 43.866 184.146 47 180.28 47H170.601C166.735 47 163.601 43.866 163.601 40V32ZM215.807 25C211.941 25 208.807 28.134 208.807 32V40C208.807 43.866 211.941 47 215.807 47H225.486C229.352 47 232.486 43.866 232.486 40V32C232.486 28.134 229.352 25 225.486 25H215.807ZM254.012 32C254.012 28.134 257.146 25 261.012 25H270.691C274.557 25 277.691 28.134 277.691 32V40C277.691 43.866 274.557 47 270.691 47H261.012C257.146 47 254.012 43.866 254.012 40V32ZM306.217 25C302.351 25 299.217 28.134 299.217 32V40C299.217 43.866 302.351 47 306.217 47H315.896C319.762 47 322.896 43.866 322.896 40V32C322.896 28.134 319.762 25 315.896 25H306.217ZM344.423 32C344.423 28.134 347.557 25 351.423 25H361.102C364.968 25 368.102 28.134 368.102 32V40C368.102 43.866 364.968 47 361.102 47H351.423C347.557 47 344.423 43.866 344.423 40V32ZM396.629 25C392.763 25 389.629 28.134 389.629 32V40C389.629 43.866 392.763 47 396.629 47H406.308C410.174 47 413.308 43.866 413.308 40V32C413.308 28.134 410.174 25 406.308 25H396.629ZM434.834 32C434.834 28.134 437.968 25 441.834 25H451.513C455.379 25 458.513 28.134 458.513 32V40C458.513 43.866 455.379 47 451.513 47H441.834C437.968 47 434.834 43.866 434.834 40V32ZM487.04 25C483.174 25 480.04 28.134 480.04 32V40C480.04 43.866 483.174 47 487.04 47H496.719C500.585 47 503.719 43.866 503.719 40V32C503.719 28.134 500.585 25 496.719 25H487.04ZM525.245 32C525.245 28.134 528.379 25 532.245 25H541.924C545.791 25 548.924 28.134 548.924 32V40C548.924 43.866 545.791 47 541.924 47H532.245C528.379 47 525.245 43.866 525.245 40V32ZM577.45 25C573.584 25 570.45 28.134 570.45 32V40C570.45 43.866 573.584 47 577.45 47H587.129C590.995 47 594.129 43.866 594.129 40V32C594.129 28.134 590.995 25 587.129 25H577.45ZM615.656 32C615.656 28.134 618.79 25 622.656 25H632.335C636.201 25 639.335 28.134 639.335 32V40C639.335 43.866 636.201 47 632.335 47H622.656C618.79 47 615.656 43.866 615.656 40V32ZM667.862 25C663.996 25 660.862 28.134 660.862 32V40C660.862 43.866 663.996 47 667.862 47H677.541C681.407 47 684.541 43.866 684.541 40V32C684.541 28.134 681.407 25 677.541 25H667.862ZM706.067 32C706.067 28.134 709.201 25 713.067 25H722.746C726.612 25 729.746 28.134 729.746 32V40C729.746 43.866 726.612 47 722.746 47H713.067C709.201 47 706.067 43.866 706.067 40V32ZM758.273 25C754.407 25 751.273 28.134 751.273 32V40C751.273 43.866 754.407 47 758.273 47H767.952C771.818 47 774.952 43.866 774.952 40V32C774.952 28.134 771.818 25 767.952 25H758.273ZM796.478 32C796.478 28.134 799.612 25 803.478 25H813.157C817.023 25 820.157 28.134 820.157 32V40C820.157 43.866 817.023 47 813.157 47H803.478C799.612 47 796.478 43.866 796.478 40V32ZM848.684 25C844.818 25 841.684 28.134 841.684 32V40C841.684 43.866 844.818 47 848.684 47H858.363C862.229 47 865.363 43.866 865.363 40V32C865.363 28.134 862.229 25 858.363 25H848.684ZM886.889 32C886.889 28.134 890.023 25 893.889 25H903.568C907.434 25 910.568 28.134 910.568 32V40C910.568 43.866 907.434 47 903.568 47H893.889C890.023 47 886.889 43.866 886.889 40V32ZM939.095 25C935.229 25 932.095 28.134 932.095 32V40C932.095 43.866 935.229 47 939.095 47H948.774C952.64 47 955.774 43.866 955.774 40V32C955.774 28.134 952.64 25 948.774 25H939.095ZM977.301 32C977.301 28.134 980.435 25 984.301 25H993.98C997.846 25 1000.98 28.134 1000.98 32V40C1000.98 43.866 997.846 47 993.98 47H984.301C980.435 47 977.301 43.866 977.301 40V32ZM1029.51 25C1025.64 25 1022.51 28.134 1022.51 32V40C1022.51 43.866 1025.64 47 1029.51 47H1039.19C1043.05 47 1046.19 43.866 1046.19 40V32C1046.19 28.134 1043.05 25 1039.19 25H1029.51ZM1067.71 32C1067.71 28.134 1070.85 25 1074.71 25H1084.39C1088.26 25 1091.39 28.134 1091.39 32V40C1091.39 43.866 1088.26 47 1084.39 47H1074.71C1070.85 47 1067.71 43.866 1067.71 40V32ZM1119.92 25C1116.05 25 1112.92 28.134 1112.92 32V40C1112.92 43.866 1116.05 47 1119.92 47H1129.6C1133.46 47 1136.6 43.866 1136.6 40V32C1136.6 28.134 1133.46 25 1129.6 25H1119.92ZM1158.12 32C1158.12 28.134 1161.26 25 1165.12 25H1174.8C1178.67 25 1181.8 28.134 1181.8 32V40C1181.8 43.866 1178.67 47 1174.8 47H1165.12C1161.26 47 1158.12 43.866 1158.12 40V32ZM1210.33 25C1206.46 25 1203.33 28.134 1203.33 32V40C1203.33 43.866 1206.46 47 1210.33 47H1220.01C1223.87 47 1227.01 43.866 1227.01 40V32C1227.01 28.134 1223.87 25 1220.01 25H1210.33ZM1248.53 32C1248.53 28.134 1251.67 25 1255.53 25H1265.21C1269.08 25 1272.21 28.134 1272.21 32V40C1272.21 43.866 1269.08 47 1265.21 47H1255.53C1251.67 47 1248.53 43.866 1248.53 40V32ZM1300.74 25C1296.87 25 1293.74 28.134 1293.74 32V40C1293.74 43.866 1296.87 47 1300.74 47H1310.42C1314.28 47 1317.42 43.866 1317.42 40V32C1317.42 28.134 1314.28 25 1310.42 25H1300.74ZM1338.94 32C1338.94 28.134 1342.08 25 1345.94 25H1355.62C1359.49 25 1362.62 28.134 1362.62 32V40C1362.62 43.866 1359.49 47 1355.62 47H1345.94C1342.08 47 1338.94 43.866 1338.94 40V32ZM1391.15 25C1387.28 25 1384.15 28.134 1384.15 32V40C1384.15 43.866 1387.28 47 1391.15 47H1400.83C1404.7 47 1407.83 43.866 1407.83 40V32C1407.83 28.134 1404.7 25 1400.83 25H1391.15ZM1429.36 32C1429.36 28.134 1432.49 25 1436.36 25H1446.03C1449.9 25 1453.03 28.134 1453.03 32V40C1453.03 43.866 1449.9 47 1446.03 47H1436.36C1432.49 47 1429.36 43.866 1429.36 40V32ZM1481.56 25C1477.7 25 1474.56 28.134 1474.56 32V40C1474.56 43.866 1477.7 47 1481.56 47H1491.24C1495.11 47 1498.24 43.866 1498.24 40V32C1498.24 28.134 1495.11 25 1491.24 25H1481.56ZM1519.77 32C1519.77 28.134 1522.9 25 1526.77 25H1536.45C1540.31 25 1543.45 28.134 1543.45 32V40C1543.45 43.866 1540.31 47 1536.45 47H1526.77C1522.9 47 1519.77 43.866 1519.77 40V32ZM1571.97 25C1568.11 25 1564.97 28.134 1564.97 32V40C1564.97 43.866 1568.11 47 1571.97 47H1581.65C1585.52 47 1588.65 43.866 1588.65 40V32C1588.65 28.134 1585.52 25 1581.65 25H1571.97ZM1610.18 32C1610.18 28.134 1613.31 25 1617.18 25H1626.86C1630.72 25 1633.86 28.134 1633.86 32V40C1633.86 43.866 1630.72 47 1626.86 47H1617.18C1613.31 47 1610.18 43.866 1610.18 40V32ZM1662.38 25C1658.52 25 1655.38 28.134 1655.38 32V40C1655.38 43.866 1658.52 47 1662.38 47H1672.06C1675.93 47 1679.06 43.866 1679.06 40V32C1679.06 28.134 1675.93 25 1672.06 25H1662.38ZM1700.59 32C1700.59 28.134 1703.72 25 1707.59 25H1717.27C1721.13 25 1724.27 28.134 1724.27 32V40C1724.27 43.866 1721.13 47 1717.27 47H1707.59C1703.72 47 1700.59 43.866 1700.59 40V32ZM1752.79 25C1748.93 25 1745.79 28.134 1745.79 32V40C1745.79 43.866 1748.93 47 1752.79 47H1762.47C1766.34 47 1769.47 43.866 1769.47 40V32C1769.47 28.134 1766.34 25 1762.47 25H1752.79ZM34.9844 240C31.1184 240 27.9844 243.134 27.9844 247V255C27.9844 258.866 31.1184 262 34.9844 262H44.6635C48.5295 262 51.6635 258.866 51.6635 255V247C51.6635 243.134 48.5295 240 44.6635 240H34.9844ZM80.1903 240C76.3243 240 73.1903 243.134 73.1903 247V255C73.1903 258.866 76.3243 262 80.1903 262H89.8694C93.7354 262 96.8694 258.866 96.8694 255V247C96.8694 243.134 93.7354 240 89.8694 240H80.1903ZM118.395 247C118.395 243.134 121.529 240 125.395 240H135.074C138.94 240 142.074 243.134 142.074 247V255C142.074 258.866 138.94 262 135.074 262H125.395C121.529 262 118.395 258.866 118.395 255V247ZM170.601 240C166.735 240 163.601 243.134 163.601 247V255C163.601 258.866 166.735 262 170.601 262H180.28C184.146 262 187.28 258.866 187.28 255V247C187.28 243.134 184.146 240 180.28 240H170.601ZM208.807 247C208.807 243.134 211.941 240 215.807 240H225.486C229.352 240 232.486 243.134 232.486 247V255C232.486 258.866 229.352 262 225.486 262H215.807C211.941 262 208.807 258.866 208.807 255V247ZM261.012 240C257.146 240 254.012 243.134 254.012 247V255C254.012 258.866 257.146 262 261.012 262H270.691C274.557 262 277.691 258.866 277.691 255V247C277.691 243.134 274.557 240 270.691 240H261.012ZM299.217 247C299.217 243.134 302.351 240 306.217 240H315.896C319.762 240 322.896 243.134 322.896 247V255C322.896 258.866 319.762 262 315.896 262H306.217C302.351 262 299.217 258.866 299.217 255V247ZM351.423 240C347.557 240 344.423 243.134 344.423 247V255C344.423 258.866 347.557 262 351.423 262H361.102C364.968 262 368.102 258.866 368.102 255V247C368.102 243.134 364.968 240 361.102 240H351.423ZM389.629 247C389.629 243.134 392.763 240 396.629 240H406.308C410.174 240 413.308 243.134 413.308 247V255C413.308 258.866 410.174 262 406.308 262H396.629C392.763 262 389.629 258.866 389.629 255V247ZM441.834 240C437.968 240 434.834 243.134 434.834 247V255C434.834 258.866 437.968 262 441.834 262H451.513C455.379 262 458.513 258.866 458.513 255V247C458.513 243.134 455.379 240 451.513 240H441.834ZM480.04 247C480.04 243.134 483.174 240 487.04 240H496.719C500.585 240 503.719 243.134 503.719 247V255C503.719 258.866 500.585 262 496.719 262H487.04C483.174 262 480.04 258.866 480.04 255V247ZM532.245 240C528.379 240 525.245 243.134 525.245 247V255C525.245 258.866 528.379 262 532.245 262H541.924C545.791 262 548.924 258.866 548.924 255V247C548.924 243.134 545.791 240 541.924 240H532.245ZM570.45 247C570.45 243.134 573.584 240 577.45 240H587.129C590.995 240 594.129 243.134 594.129 247V255C594.129 258.866 590.995 262 587.129 262H577.45C573.584 262 570.45 258.866 570.45 255V247ZM622.656 240C618.79 240 615.656 243.134 615.656 247V255C615.656 258.866 618.79 262 622.656 262H632.335C636.201 262 639.335 258.866 639.335 255V247C639.335 243.134 636.201 240 632.335 240H622.656ZM660.862 247C660.862 243.134 663.996 240 667.862 240H677.541C681.407 240 684.541 243.134 684.541 247V255C684.541 258.866 681.407 262 677.541 262H667.862C663.996 262 660.862 258.866 660.862 255V247ZM713.067 240C709.201 240 706.067 243.134 706.067 247V255C706.067 258.866 709.201 262 713.067 262H722.746C726.612 262 729.746 258.866 729.746 255V247C729.746 243.134 726.612 240 722.746 240H713.067ZM751.273 247C751.273 243.134 754.407 240 758.273 240H767.952C771.818 240 774.952 243.134 774.952 247V255C774.952 258.866 771.818 262 767.952 262H758.273C754.407 262 751.273 258.866 751.273 255V247ZM803.478 240C799.612 240 796.478 243.134 796.478 247V255C796.478 258.866 799.612 262 803.478 262H813.157C817.023 262 820.157 258.866 820.157 255V247C820.157 243.134 817.023 240 813.157 240H803.478ZM841.684 247C841.684 243.134 844.818 240 848.684 240H858.363C862.229 240 865.363 243.134 865.363 247V255C865.363 258.866 862.229 262 858.363 262H848.684C844.818 262 841.684 258.866 841.684 255V247ZM893.889 240C890.023 240 886.889 243.134 886.889 247V255C886.889 258.866 890.023 262 893.889 262H903.568C907.434 262 910.568 258.866 910.568 255V247C910.568 243.134 907.434 240 903.568 240H893.889ZM932.095 247C932.095 243.134 935.229 240 939.095 240H948.774C952.64 240 955.774 243.134 955.774 247V255C955.774 258.866 952.64 262 948.774 262H939.095C935.229 262 932.095 258.866 932.095 255V247ZM984.301 240C980.435 240 977.301 243.134 977.301 247V255C977.301 258.866 980.435 262 984.301 262H993.98C997.846 262 1000.98 258.866 1000.98 255V247C1000.98 243.134 997.846 240 993.98 240H984.301ZM1022.51 247C1022.51 243.134 1025.64 240 1029.51 240H1039.19C1043.05 240 1046.19 243.134 1046.19 247V255C1046.19 258.866 1043.05 262 1039.19 262H1029.51C1025.64 262 1022.51 258.866 1022.51 255V247ZM1074.71 240C1070.85 240 1067.71 243.134 1067.71 247V255C1067.71 258.866 1070.85 262 1074.71 262H1084.39C1088.26 262 1091.39 258.866 1091.39 255V247C1091.39 243.134 1088.26 240 1084.39 240H1074.71ZM1112.92 247C1112.92 243.134 1116.05 240 1119.92 240H1129.6C1133.46 240 1136.6 243.134 1136.6 247V255C1136.6 258.866 1133.46 262 1129.6 262H1119.92C1116.05 262 1112.92 258.866 1112.92 255V247ZM1165.12 240C1161.26 240 1158.12 243.134 1158.12 247V255C1158.12 258.866 1161.26 262 1165.12 262H1174.8C1178.67 262 1181.8 258.866 1181.8 255V247C1181.8 243.134 1178.67 240 1174.8 240H1165.12ZM1203.33 247C1203.33 243.134 1206.46 240 1210.33 240H1220.01C1223.87 240 1227.01 243.134 1227.01 247V255C1227.01 258.866 1223.87 262 1220.01 262H1210.33C1206.46 262 1203.33 258.866 1203.33 255V247ZM1255.53 240C1251.67 240 1248.53 243.134 1248.53 247V255C1248.53 258.866 1251.67 262 1255.53 262H1265.21C1269.08 262 1272.21 258.866 1272.21 255V247C1272.21 243.134 1269.08 240 1265.21 240H1255.53ZM1293.74 247C1293.74 243.134 1296.87 240 1300.74 240H1310.42C1314.28 240 1317.42 243.134 1317.42 247V255C1317.42 258.866 1314.28 262 1310.42 262H1300.74C1296.87 262 1293.74 258.866 1293.74 255V247ZM1345.94 240C1342.08 240 1338.94 243.134 1338.94 247V255C1338.94 258.866 1342.08 262 1345.94 262H1355.62C1359.49 262 1362.62 258.866 1362.62 255V247C1362.62 243.134 1359.49 240 1355.62 240H1345.94ZM1384.15 247C1384.15 243.134 1387.28 240 1391.15 240H1400.83C1404.7 240 1407.83 243.134 1407.83 247V255C1407.83 258.866 1404.7 262 1400.83 262H1391.15C1387.28 262 1384.15 258.866 1384.15 255V247ZM1436.36 240C1432.49 240 1429.36 243.134 1429.36 247V255C1429.36 258.866 1432.49 262 1436.36 262H1446.03C1449.9 262 1453.03 258.866 1453.03 255V247C1453.03 243.134 1449.9 240 1446.03 240H1436.36ZM1474.56 247C1474.56 243.134 1477.7 240 1481.56 240H1491.24C1495.11 240 1498.24 243.134 1498.24 247V255C1498.24 258.866 1495.11 262 1491.24 262H1481.56C1477.7 262 1474.56 258.866 1474.56 255V247ZM1526.77 240C1522.9 240 1519.77 243.134 1519.77 247V255C1519.77 258.866 1522.9 262 1526.77 262H1536.45C1540.31 262 1543.45 258.866 1543.45 255V247C1543.45 243.134 1540.31 240 1536.45 240H1526.77ZM1564.97 247C1564.97 243.134 1568.11 240 1571.97 240H1581.65C1585.52 240 1588.65 243.134 1588.65 247V255C1588.65 258.866 1585.52 262 1581.65 262H1571.97C1568.11 262 1564.97 258.866 1564.97 255V247ZM1617.18 240C1613.31 240 1610.18 243.134 1610.18 247V255C1610.18 258.866 1613.31 262 1617.18 262H1626.86C1630.72 262 1633.86 258.866 1633.86 255V247C1633.86 243.134 1630.72 240 1626.86 240H1617.18ZM1655.38 247C1655.38 243.134 1658.52 240 1662.38 240H1672.06C1675.93 240 1679.06 243.134 1679.06 247V255C1679.06 258.866 1675.93 262 1672.06 262H1662.38C1658.52 262 1655.38 258.866 1655.38 255V247ZM1707.59 240C1703.72 240 1700.59 243.134 1700.59 247V255C1700.59 258.866 1703.72 262 1707.59 262H1717.27C1721.13 262 1724.27 258.866 1724.27 255V247C1724.27 243.134 1721.13 240 1717.27 240H1707.59ZM1745.79 247C1745.79 243.134 1748.93 240 1752.79 240H1762.47C1766.34 240 1769.47 243.134 1769.47 247V255C1769.47 258.866 1766.34 262 1762.47 262H1752.79C1748.93 262 1745.79 258.866 1745.79 255V247Z" fill="url(#paint0_linear_602_238)" fill-opacity="0.6"/>
<defs>
<linearGradient id="paint0_linear_602_238" x1="128.62" y1="145" x2="1693.59" y2="145" gradientUnits="userSpaceOnUse">
<stop stop-color="#FA9830"/>
<stop offset="1" stop-color="#AD0BE6"/>
</linearGradient>
</defs>
</svg>
