<svg width="1664" height="290" viewBox="0 0 1664 290" fill="none" xmlns="http://www.w3.org/2000/svg">
<path fill-rule="evenodd" clip-rule="evenodd" d="M0 29C0 12.9837 12.9837 0 29 0H1635C1651.02 0 1664 12.9837 1664 29V117C1648.54 117 1636 129.536 1636 145C1636 160.464 1648.54 173 1664 173V261C1664 277.016 1651.02 290 1635 290H29C12.9837 290 0 277.016 0 261V165C15.464 165 28 152.464 28 137C28 121.536 15.464 109 0 109V29ZM26 32C26 28.134 29.134 25 33 25H41C44.866 25 48 28.134 48 32V40C48 43.866 44.866 47 41 47H33C29.134 47 26 43.866 26 40V32ZM68 32C68 28.134 71.134 25 75 25H83C86.866 25 90 28.134 90 32V40C90 43.866 86.866 47 83 47H75C71.134 47 68 43.866 68 40V32ZM117 25C113.134 25 110 28.134 110 32V40C110 43.866 113.134 47 117 47H125C128.866 47 132 43.866 132 40V32C132 28.134 128.866 25 125 25H117ZM152 32C152 28.134 155.134 25 159 25H167C170.866 25 174 28.134 174 32V40C174 43.866 170.866 47 167 47H159C155.134 47 152 43.866 152 40V32ZM201 25C197.134 25 194 28.134 194 32V40C194 43.866 197.134 47 201 47H209C212.866 47 216 43.866 216 40V32C216 28.134 212.866 25 209 25H201ZM236 32C236 28.134 239.134 25 243 25H251C254.866 25 258 28.134 258 32V40C258 43.866 254.866 47 251 47H243C239.134 47 236 43.866 236 40V32ZM285 25C281.134 25 278 28.134 278 32V40C278 43.866 281.134 47 285 47H293C296.866 47 300 43.866 300 40V32C300 28.134 296.866 25 293 25H285ZM320 32C320 28.134 323.134 25 327 25H335C338.866 25 342 28.134 342 32V40C342 43.866 338.866 47 335 47H327C323.134 47 320 43.866 320 40V32ZM369 25C365.134 25 362 28.134 362 32V40C362 43.866 365.134 47 369 47H377C380.866 47 384 43.866 384 40V32C384 28.134 380.866 25 377 25H369ZM404 32C404 28.134 407.134 25 411 25H419C422.866 25 426 28.134 426 32V40C426 43.866 422.866 47 419 47H411C407.134 47 404 43.866 404 40V32ZM453 25C449.134 25 446 28.134 446 32V40C446 43.866 449.134 47 453 47H461C464.866 47 468 43.866 468 40V32C468 28.134 464.866 25 461 25H453ZM488 32C488 28.134 491.134 25 495 25H503C506.866 25 510 28.134 510 32V40C510 43.866 506.866 47 503 47H495C491.134 47 488 43.866 488 40V32ZM537 25C533.134 25 530 28.134 530 32V40C530 43.866 533.134 47 537 47H545C548.866 47 552 43.866 552 40V32C552 28.134 548.866 25 545 25H537ZM572 32C572 28.134 575.134 25 579 25H587C590.866 25 594 28.134 594 32V40C594 43.866 590.866 47 587 47H579C575.134 47 572 43.866 572 40V32ZM621 25C617.134 25 614 28.134 614 32V40C614 43.866 617.134 47 621 47H629C632.866 47 636 43.866 636 40V32C636 28.134 632.866 25 629 25H621ZM656 32C656 28.134 659.134 25 663 25H671C674.866 25 678 28.134 678 32V40C678 43.866 674.866 47 671 47H663C659.134 47 656 43.866 656 40V32ZM705 25C701.134 25 698 28.134 698 32V40C698 43.866 701.134 47 705 47H713C716.866 47 720 43.866 720 40V32C720 28.134 716.866 25 713 25H705ZM740 32C740 28.134 743.134 25 747 25H755C758.866 25 762 28.134 762 32V40C762 43.866 758.866 47 755 47H747C743.134 47 740 43.866 740 40V32ZM789 25C785.134 25 782 28.134 782 32V40C782 43.866 785.134 47 789 47H797C800.866 47 804 43.866 804 40V32C804 28.134 800.866 25 797 25H789ZM824 32C824 28.134 827.134 25 831 25H839C842.866 25 846 28.134 846 32V40C846 43.866 842.866 47 839 47H831C827.134 47 824 43.866 824 40V32ZM873 25C869.134 25 866 28.134 866 32V40C866 43.866 869.134 47 873 47H881C884.866 47 888 43.866 888 40V32C888 28.134 884.866 25 881 25H873ZM908 32C908 28.134 911.134 25 915 25H923C926.866 25 930 28.134 930 32V40C930 43.866 926.866 47 923 47H915C911.134 47 908 43.866 908 40V32ZM957 25C953.134 25 950 28.134 950 32V40C950 43.866 953.134 47 957 47H965C968.866 47 972 43.866 972 40V32C972 28.134 968.866 25 965 25H957ZM992 32C992 28.134 995.134 25 999 25H1007C1010.87 25 1014 28.134 1014 32V40C1014 43.866 1010.87 47 1007 47H999C995.134 47 992 43.866 992 40V32ZM1041 25C1037.13 25 1034 28.134 1034 32V40C1034 43.866 1037.13 47 1041 47H1049C1052.87 47 1056 43.866 1056 40V32C1056 28.134 1052.87 25 1049 25H1041ZM1076 32C1076 28.134 1079.13 25 1083 25H1091C1094.87 25 1098 28.134 1098 32V40C1098 43.866 1094.87 47 1091 47H1083C1079.13 47 1076 43.866 1076 40V32ZM1125 25C1121.13 25 1118 28.134 1118 32V40C1118 43.866 1121.13 47 1125 47H1133C1136.87 47 1140 43.866 1140 40V32C1140 28.134 1136.87 25 1133 25H1125ZM1160 32C1160 28.134 1163.13 25 1167 25H1175C1178.87 25 1182 28.134 1182 32V40C1182 43.866 1178.87 47 1175 47H1167C1163.13 47 1160 43.866 1160 40V32ZM1209 25C1205.13 25 1202 28.134 1202 32V40C1202 43.866 1205.13 47 1209 47H1217C1220.87 47 1224 43.866 1224 40V32C1224 28.134 1220.87 25 1217 25H1209ZM1244 32C1244 28.134 1247.13 25 1251 25H1259C1262.87 25 1266 28.134 1266 32V40C1266 43.866 1262.87 47 1259 47H1251C1247.13 47 1244 43.866 1244 40V32ZM1293 25C1289.13 25 1286 28.134 1286 32V40C1286 43.866 1289.13 47 1293 47H1301C1304.87 47 1308 43.866 1308 40V32C1308 28.134 1304.87 25 1301 25H1293ZM1328 32C1328 28.134 1331.13 25 1335 25H1343C1346.87 25 1350 28.134 1350 32V40C1350 43.866 1346.87 47 1343 47H1335C1331.13 47 1328 43.866 1328 40V32ZM1377 25C1373.13 25 1370 28.134 1370 32V40C1370 43.866 1373.13 47 1377 47H1385C1388.87 47 1392 43.866 1392 40V32C1392 28.134 1388.87 25 1385 25H1377ZM1412 32C1412 28.134 1415.13 25 1419 25H1427C1430.87 25 1434 28.134 1434 32V40C1434 43.866 1430.87 47 1427 47H1419C1415.13 47 1412 43.866 1412 40V32ZM1461 25C1457.13 25 1454 28.134 1454 32V40C1454 43.866 1457.13 47 1461 47H1469C1472.87 47 1476 43.866 1476 40V32C1476 28.134 1472.87 25 1469 25H1461ZM1496 32C1496 28.134 1499.13 25 1503 25H1511C1514.87 25 1518 28.134 1518 32V40C1518 43.866 1514.87 47 1511 47H1503C1499.13 47 1496 43.866 1496 40V32ZM1545 25C1541.13 25 1538 28.134 1538 32V40C1538 43.866 1541.13 47 1545 47H1553C1556.87 47 1560 43.866 1560 40V32C1560 28.134 1556.87 25 1553 25H1545ZM1580 32C1580 28.134 1583.13 25 1587 25H1595C1598.87 25 1602 28.134 1602 32V40C1602 43.866 1598.87 47 1595 47H1587C1583.13 47 1580 43.866 1580 40V32ZM1629 25C1625.13 25 1622 28.134 1622 32V40C1622 43.866 1625.13 47 1629 47H1637C1640.87 47 1644 43.866 1644 40V32C1644 28.134 1640.87 25 1637 25H1629ZM33 240C29.134 240 26 243.134 26 247V255C26 258.866 29.134 262 33 262H41C44.866 262 48 258.866 48 255V247C48 243.134 44.866 240 41 240H33ZM75 240C71.134 240 68 243.134 68 247V255C68 258.866 71.134 262 75 262H83C86.866 262 90 258.866 90 255V247C90 243.134 86.866 240 83 240H75ZM110 247C110 243.134 113.134 240 117 240H125C128.866 240 132 243.134 132 247V255C132 258.866 128.866 262 125 262H117C113.134 262 110 258.866 110 255V247ZM159 240C155.134 240 152 243.134 152 247V255C152 258.866 155.134 262 159 262H167C170.866 262 174 258.866 174 255V247C174 243.134 170.866 240 167 240H159ZM194 247C194 243.134 197.134 240 201 240H209C212.866 240 216 243.134 216 247V255C216 258.866 212.866 262 209 262H201C197.134 262 194 258.866 194 255V247ZM243 240C239.134 240 236 243.134 236 247V255C236 258.866 239.134 262 243 262H251C254.866 262 258 258.866 258 255V247C258 243.134 254.866 240 251 240H243ZM278 247C278 243.134 281.134 240 285 240H293C296.866 240 300 243.134 300 247V255C300 258.866 296.866 262 293 262H285C281.134 262 278 258.866 278 255V247ZM327 240C323.134 240 320 243.134 320 247V255C320 258.866 323.134 262 327 262H335C338.866 262 342 258.866 342 255V247C342 243.134 338.866 240 335 240H327ZM362 247C362 243.134 365.134 240 369 240H377C380.866 240 384 243.134 384 247V255C384 258.866 380.866 262 377 262H369C365.134 262 362 258.866 362 255V247ZM411 240C407.134 240 404 243.134 404 247V255C404 258.866 407.134 262 411 262H419C422.866 262 426 258.866 426 255V247C426 243.134 422.866 240 419 240H411ZM446 247C446 243.134 449.134 240 453 240H461C464.866 240 468 243.134 468 247V255C468 258.866 464.866 262 461 262H453C449.134 262 446 258.866 446 255V247ZM495 240C491.134 240 488 243.134 488 247V255C488 258.866 491.134 262 495 262H503C506.866 262 510 258.866 510 255V247C510 243.134 506.866 240 503 240H495ZM530 247C530 243.134 533.134 240 537 240H545C548.866 240 552 243.134 552 247V255C552 258.866 548.866 262 545 262H537C533.134 262 530 258.866 530 255V247ZM579 240C575.134 240 572 243.134 572 247V255C572 258.866 575.134 262 579 262H587C590.866 262 594 258.866 594 255V247C594 243.134 590.866 240 587 240H579ZM614 247C614 243.134 617.134 240 621 240H629C632.866 240 636 243.134 636 247V255C636 258.866 632.866 262 629 262H621C617.134 262 614 258.866 614 255V247ZM663 240C659.134 240 656 243.134 656 247V255C656 258.866 659.134 262 663 262H671C674.866 262 678 258.866 678 255V247C678 243.134 674.866 240 671 240H663ZM698 247C698 243.134 701.134 240 705 240H713C716.866 240 720 243.134 720 247V255C720 258.866 716.866 262 713 262H705C701.134 262 698 258.866 698 255V247ZM747 240C743.134 240 740 243.134 740 247V255C740 258.866 743.134 262 747 262H755C758.866 262 762 258.866 762 255V247C762 243.134 758.866 240 755 240H747ZM782 247C782 243.134 785.134 240 789 240H797C800.866 240 804 243.134 804 247V255C804 258.866 800.866 262 797 262H789C785.134 262 782 258.866 782 255V247ZM831 240C827.134 240 824 243.134 824 247V255C824 258.866 827.134 262 831 262H839C842.866 262 846 258.866 846 255V247C846 243.134 842.866 240 839 240H831ZM866 247C866 243.134 869.134 240 873 240H881C884.866 240 888 243.134 888 247V255C888 258.866 884.866 262 881 262H873C869.134 262 866 258.866 866 255V247ZM915 240C911.134 240 908 243.134 908 247V255C908 258.866 911.134 262 915 262H923C926.866 262 930 258.866 930 255V247C930 243.134 926.866 240 923 240H915ZM950 247C950 243.134 953.134 240 957 240H965C968.866 240 972 243.134 972 247V255C972 258.866 968.866 262 965 262H957C953.134 262 950 258.866 950 255V247ZM999 240C995.134 240 992 243.134 992 247V255C992 258.866 995.134 262 999 262H1007C1010.87 262 1014 258.866 1014 255V247C1014 243.134 1010.87 240 1007 240H999ZM1034 247C1034 243.134 1037.13 240 1041 240H1049C1052.87 240 1056 243.134 1056 247V255C1056 258.866 1052.87 262 1049 262H1041C1037.13 262 1034 258.866 1034 255V247ZM1083 240C1079.13 240 1076 243.134 1076 247V255C1076 258.866 1079.13 262 1083 262H1091C1094.87 262 1098 258.866 1098 255V247C1098 243.134 1094.87 240 1091 240H1083ZM1118 247C1118 243.134 1121.13 240 1125 240H1133C1136.87 240 1140 243.134 1140 247V255C1140 258.866 1136.87 262 1133 262H1125C1121.13 262 1118 258.866 1118 255V247ZM1167 240C1163.13 240 1160 243.134 1160 247V255C1160 258.866 1163.13 262 1167 262H1175C1178.87 262 1182 258.866 1182 255V247C1182 243.134 1178.87 240 1175 240H1167ZM1202 247C1202 243.134 1205.13 240 1209 240H1217C1220.87 240 1224 243.134 1224 247V255C1224 258.866 1220.87 262 1217 262H1209C1205.13 262 1202 258.866 1202 255V247ZM1251 240C1247.13 240 1244 243.134 1244 247V255C1244 258.866 1247.13 262 1251 262H1259C1262.87 262 1266 258.866 1266 255V247C1266 243.134 1262.87 240 1259 240H1251ZM1286 247C1286 243.134 1289.13 240 1293 240H1301C1304.87 240 1308 243.134 1308 247V255C1308 258.866 1304.87 262 1301 262H1293C1289.13 262 1286 258.866 1286 255V247ZM1335 240C1331.13 240 1328 243.134 1328 247V255C1328 258.866 1331.13 262 1335 262H1343C1346.87 262 1350 258.866 1350 255V247C1350 243.134 1346.87 240 1343 240H1335ZM1370 247C1370 243.134 1373.13 240 1377 240H1385C1388.87 240 1392 243.134 1392 247V255C1392 258.866 1388.87 262 1385 262H1377C1373.13 262 1370 258.866 1370 255V247ZM1419 240C1415.13 240 1412 243.134 1412 247V255C1412 258.866 1415.13 262 1419 262H1427C1430.87 262 1434 258.866 1434 255V247C1434 243.134 1430.87 240 1427 240H1419ZM1454 247C1454 243.134 1457.13 240 1461 240H1469C1472.87 240 1476 243.134 1476 247V255C1476 258.866 1472.87 262 1469 262H1461C1457.13 262 1454 258.866 1454 255V247ZM1503 240C1499.13 240 1496 243.134 1496 247V255C1496 258.866 1499.13 262 1503 262H1511C1514.87 262 1518 258.866 1518 255V247C1518 243.134 1514.87 240 1511 240H1503ZM1538 247C1538 243.134 1541.13 240 1545 240H1553C1556.87 240 1560 243.134 1560 247V255C1560 258.866 1556.87 262 1553 262H1545C1541.13 262 1538 258.866 1538 255V247ZM1587 240C1583.13 240 1580 243.134 1580 247V255C1580 258.866 1583.13 262 1587 262H1595C1598.87 262 1602 258.866 1602 255V247C1602 243.134 1598.87 240 1595 240H1587ZM1622 247C1622 243.134 1625.13 240 1629 240H1637C1640.87 240 1644 243.134 1644 247V255C1644 258.866 1640.87 262 1637 262H1629C1625.13 262 1622 258.866 1622 255V247Z" fill="url(#paint0_linear_245_14)" fill-opacity="0.6"/>
<defs>
<linearGradient id="paint0_linear_245_14" x1="119.5" y1="145" x2="1573.5" y2="145" gradientUnits="userSpaceOnUse">
<stop stop-color="#24C7D4"/>
<stop offset="1" stop-color="#AD0BE6"/>
</linearGradient>
</defs>
</svg>
