<svg width="506" height="502" viewBox="0 0 506 502" fill="none" xmlns="http://www.w3.org/2000/svg">
<g clip-path="url(#clip0_198_516)">
<path d="M156.396 469.962L156.938 457.595C162.586 454.531 168.885 452.912 175.289 452.88C166.475 460.195 167.577 474.296 161.601 484.133C159.715 487.186 157.175 489.77 154.171 491.692C151.167 493.613 147.776 494.824 144.248 495.234L136.873 499.819C135.861 494.091 136.084 488.209 137.527 482.577C138.97 476.946 141.598 471.699 145.231 467.198C147.293 464.693 149.658 462.462 152.27 460.557C154.037 465.286 156.396 469.962 156.396 469.962Z" fill="#F2F2F2"/>
<path d="M461.259 289.774C481.144 274.399 490.641 248.562 484.695 223.915C484.548 223.302 484.392 222.691 484.228 222.082C480.286 207.452 470.534 193.547 456.32 188.872C444.386 184.947 431.36 187.966 418.909 186.405C394.469 183.341 375.52 163.265 362.188 142.246C348.855 121.226 338.609 97.6977 320.892 80.3325C291.69 51.709 244.054 45.5463 207.848 64.1781C171.641 82.81 148.578 124.146 149.562 165.343C150.546 206.54 174.636 245.927 209.622 266.824C222.475 274.501 237.34 279.939 252.133 278.036C264.97 276.385 276.633 269.383 289.409 267.304C309.495 264.036 329.454 273.256 346.828 284C364.201 294.743 380.982 307.478 400.725 312.459C419.895 317.295 443.645 303.394 461.259 289.774Z" fill="#1BD8CE"/>
<path d="M303.923 105.792H105.828C101.697 105.797 97.7359 107.466 94.8146 110.431C91.8933 113.397 90.25 117.418 90.2452 121.612V221.701C90.25 225.895 91.8933 229.916 94.8146 232.882C97.7359 235.848 101.697 237.516 105.828 237.521H303.923C308.055 237.517 312.017 235.849 314.938 232.883C317.86 229.917 319.503 225.896 319.506 221.701V121.612C319.503 117.417 317.86 113.396 314.938 110.43C312.017 107.464 308.055 105.796 303.923 105.792Z" fill="white"/>
<path d="M303.924 238.301H105.832C101.497 238.296 97.3413 236.545 94.2763 233.434C91.2113 230.322 89.4872 226.104 89.4823 221.703V121.611C89.4872 117.211 91.2113 112.992 94.2763 109.88C97.3413 106.769 101.497 105.018 105.832 105.013H303.924C308.259 105.018 312.414 106.769 315.479 109.88C318.544 112.992 320.268 117.211 320.273 121.611V221.703C320.268 226.104 318.544 230.322 315.479 233.434C312.414 236.545 308.259 238.296 303.924 238.301ZM105.832 106.569C101.903 106.574 98.1371 108.16 95.3593 110.98C92.5816 113.8 91.019 117.623 91.0145 121.611V221.703C91.019 225.691 92.5816 229.514 95.3593 232.334C98.1371 235.154 101.903 236.741 105.832 236.745H303.924C307.852 236.741 311.619 235.154 314.396 232.334C317.174 229.514 318.737 225.691 318.741 221.703V121.611C318.737 117.623 317.174 113.8 314.396 110.98C311.619 108.16 307.852 106.574 303.924 106.569H105.832Z" fill="#CCCCCC"/>
<path d="M313.036 265.97H123.201C121.56 265.97 119.986 265.309 118.826 264.131C117.666 262.953 117.014 261.355 117.014 259.69C117.014 258.024 117.666 256.426 118.826 255.248C119.986 254.07 121.56 253.409 123.201 253.409H313.036C314.677 253.409 316.251 254.07 317.411 255.248C318.571 256.426 319.223 258.024 319.223 259.69C319.223 261.355 318.571 262.953 317.411 264.131C316.251 265.309 314.677 265.97 313.036 265.97Z" fill="#E6E6E6"/>
<path d="M184.058 206.077C182.934 206.074 181.828 205.782 180.845 205.228C179.793 204.652 178.916 203.796 178.307 202.752C177.699 201.707 177.382 200.515 177.392 199.301V143.441C177.392 142.23 177.712 141.041 178.319 139.999C178.927 138.956 179.799 138.098 180.845 137.515C181.89 136.932 183.071 136.644 184.264 136.683C185.456 136.721 186.617 137.084 187.624 137.734L239.82 165.664C240.766 166.274 241.546 167.117 242.086 168.115C242.626 169.113 242.909 170.233 242.909 171.371C242.909 172.51 242.626 173.63 242.086 174.628C241.546 175.625 240.766 176.469 239.82 177.079L187.624 205.009C186.56 205.703 185.323 206.074 184.058 206.077Z" fill="#F2F2F2"/>
<path d="M490.585 178.227H407.805C406.078 178.226 404.423 177.528 403.202 176.289C401.981 175.05 401.295 173.369 401.293 171.617V129.789C401.295 128.036 401.981 126.356 403.202 125.117C404.423 123.877 406.078 123.18 407.805 123.178H490.585C492.312 123.18 493.967 123.877 495.188 125.117C496.409 126.356 497.096 128.036 497.097 129.789V171.617C497.096 173.369 496.409 175.05 495.188 176.289C493.967 177.528 492.312 178.226 490.585 178.227Z" fill="white"/>
<path d="M490.586 179.005H407.805C405.875 179.003 404.025 178.224 402.661 176.839C401.296 175.453 400.529 173.575 400.527 171.617V129.789C400.529 127.83 401.296 125.952 402.661 124.567C404.025 123.182 405.875 122.403 407.805 122.4H490.586C492.515 122.403 494.365 123.182 495.73 124.567C497.094 125.952 497.861 127.83 497.864 129.789V171.617C497.861 173.575 497.094 175.453 495.73 176.839C494.365 178.224 492.515 179.003 490.586 179.005ZM407.805 123.956C406.281 123.958 404.821 124.573 403.744 125.666C402.666 126.76 402.06 128.243 402.059 129.789V171.617C402.06 173.163 402.666 174.646 403.744 175.739C404.821 176.833 406.281 177.448 407.805 177.45H490.586C492.109 177.448 493.569 176.833 494.647 175.739C495.724 174.646 496.33 173.163 496.331 171.617V129.789C496.33 128.243 495.724 126.76 494.647 125.666C493.569 124.573 492.109 123.958 490.586 123.956H407.805Z" fill="#CCCCCC"/>
<path d="M476.986 198.695H421.221C419.581 198.693 418.009 198.03 416.851 196.853C415.692 195.675 415.041 194.079 415.041 192.414C415.041 190.749 415.692 189.153 416.851 187.975C418.009 186.797 419.581 186.135 421.221 186.133H476.986C478.627 186.133 480.2 186.795 481.361 187.973C482.521 189.151 483.173 190.748 483.173 192.414C483.173 194.08 482.521 195.677 481.361 196.855C480.2 198.033 478.627 198.695 476.986 198.695Z" fill="#E6E6E6"/>
<path d="M440.294 165.588C439.824 165.587 439.362 165.465 438.951 165.233C438.511 164.992 438.145 164.635 437.89 164.198C437.636 163.762 437.504 163.263 437.508 162.756V139.413C437.508 138.907 437.641 138.41 437.895 137.974C438.149 137.539 438.514 137.18 438.951 136.937C439.388 136.693 439.881 136.573 440.379 136.589C440.878 136.605 441.363 136.757 441.783 137.028L463.596 148.7C463.991 148.955 464.317 149.307 464.543 149.724C464.768 150.141 464.887 150.609 464.887 151.085C464.887 151.561 464.768 152.029 464.543 152.446C464.317 152.862 463.991 153.215 463.596 153.47L441.783 165.142C441.339 165.432 440.822 165.587 440.294 165.588Z" fill="#1BD8CE"/>
<path d="M437.723 358.165H354.942C353.216 358.163 351.561 357.466 350.34 356.227C349.119 354.988 348.432 353.307 348.43 351.555V309.727C348.432 307.974 349.119 306.294 350.34 305.055C351.561 303.815 353.216 303.118 354.942 303.116H437.723C439.45 303.118 441.105 303.815 442.326 305.055C443.547 306.294 444.233 307.974 444.235 309.727V351.555C444.233 353.307 443.547 354.988 442.326 356.227C441.105 357.466 439.45 358.163 437.723 358.165Z" fill="white"/>
<path d="M437.723 358.943H354.942C353.013 358.941 351.163 358.162 349.799 356.777C348.434 355.391 347.667 353.513 347.664 351.554V309.727C347.667 307.768 348.434 305.89 349.799 304.505C351.163 303.12 353.013 302.341 354.942 302.338H437.723C439.653 302.341 441.503 303.12 442.867 304.505C444.232 305.89 444.999 307.768 445.001 309.727V351.554C444.999 353.513 444.232 355.391 442.867 356.777C441.503 358.162 439.653 358.941 437.723 358.943ZM354.942 303.894C353.419 303.896 351.959 304.511 350.881 305.604C349.804 306.698 349.198 308.181 349.197 309.727V351.554C349.198 353.101 349.804 354.584 350.881 355.677C351.959 356.771 353.419 357.386 354.942 357.388H437.723C439.247 357.386 440.707 356.771 441.784 355.677C442.862 354.584 443.468 353.101 443.469 351.554V309.727C443.468 308.181 442.862 306.698 441.784 305.604C440.707 304.511 439.247 303.896 437.723 303.894H354.942Z" fill="#CCCCCC"/>
<path d="M424.124 378.745H368.359C366.719 378.743 365.147 378.08 363.989 376.903C362.83 375.725 362.179 374.128 362.179 372.464C362.179 370.799 362.83 369.203 363.989 368.025C365.147 366.847 366.719 366.185 368.359 366.183H424.124C425.764 366.183 427.338 366.845 428.498 368.022C429.659 369.2 430.311 370.798 430.311 372.464C430.311 374.13 429.659 375.727 428.498 376.905C427.338 378.083 425.764 378.745 424.124 378.745Z" fill="#E6E6E6"/>
<path d="M387.23 346.805C386.76 346.803 386.298 346.681 385.887 346.45C385.448 346.209 385.081 345.851 384.827 345.415C384.573 344.978 384.44 344.48 384.444 343.973V320.63C384.444 320.124 384.578 319.627 384.832 319.191C385.086 318.755 385.45 318.397 385.887 318.153C386.324 317.909 386.818 317.789 387.316 317.805C387.814 317.821 388.299 317.973 388.72 318.244L410.532 329.916C410.928 330.171 411.254 330.524 411.479 330.941C411.705 331.358 411.823 331.826 411.823 332.301C411.823 332.777 411.705 333.245 411.479 333.662C411.254 334.079 410.928 334.431 410.532 334.687L388.72 346.358C388.275 346.648 387.759 346.803 387.23 346.805Z" fill="#1BD8CE"/>
<path d="M156.626 213.453L114.257 213.742C114.257 213.742 90.126 205.845 79.1826 207.495L74.9984 224.181L105.057 234.292L157.37 226.586C158.544 227.188 159.854 227.466 161.167 227.391C162.48 227.316 163.751 226.891 164.851 226.158C165.951 225.426 166.842 224.413 167.434 223.22C168.025 222.028 168.297 220.698 168.221 219.365C168.146 218.032 167.726 216.742 167.003 215.626C166.281 214.51 165.282 213.607 164.106 213.008C162.931 212.409 161.621 212.134 160.307 212.212C158.994 212.291 157.725 212.718 156.626 213.453Z" fill="#A0616A"/>
<path d="M104.698 235.908L54.4301 221.231L49.8537 203.92C48.6615 201.61 48.1294 199.008 48.3175 196.407C48.5056 193.807 49.4064 191.312 50.9181 189.204C55.2095 183.303 58.5639 189.164 64.6542 193.11C75.3306 193.876 101.979 203.133 112.797 213.851L111.944 220.44L104.698 235.908Z" fill="#3F3D56"/>
<path d="M148.434 221.777C147.31 221.774 146.204 221.482 145.221 220.928C144.169 220.352 143.292 219.496 142.683 218.452C142.075 217.407 141.758 216.215 141.768 215.001V159.141C141.768 157.93 142.088 156.741 142.696 155.699C143.303 154.656 144.175 153.798 145.221 153.215C146.266 152.632 147.447 152.344 148.64 152.383C149.832 152.421 150.993 152.784 152 153.434L204.196 181.364C205.142 181.974 205.922 182.817 206.462 183.815C207.002 184.813 207.285 185.933 207.285 187.071C207.285 188.21 207.002 189.33 206.462 190.328C205.922 191.325 205.142 192.169 204.196 192.779L152 220.709C150.936 221.403 149.699 221.774 148.434 221.777Z" fill="#1BD8CE"/>
<path d="M113.369 490.832L124.063 490.831L129.15 448.957L113.367 448.958L113.369 490.832Z" fill="#A0616A"/>
<path d="M110.641 487.287L113.651 487.287L125.403 482.436L131.701 487.286H131.702C135.261 487.287 138.675 488.722 141.192 491.277C143.709 493.832 145.123 497.298 145.123 500.911V501.354L110.642 501.355L110.641 487.287Z" fill="#2F2E41"/>
<path d="M37.2166 480.612L47.3462 484.093L65.3944 446.088L50.4451 440.949L37.2166 480.612Z" fill="#A0616A"/>
<path d="M35.7527 476.366L38.6037 477.346L51.2673 476.577L55.7004 483.222L55.7012 483.223C59.0725 484.382 61.8522 486.853 63.4288 490.093C65.0055 493.332 65.25 497.075 64.1086 500.498L63.9687 500.917L31.3086 489.691L35.7527 476.366Z" fill="#2F2E41"/>
<path d="M49.6122 310.465C49.6122 310.465 48.3634 325.677 51.4852 340.255C54.607 354.833 61.3252 403.225 61.3252 403.225C47.7176 425.931 39.8313 448.274 38.3416 470.89L57.4946 472.445L84.9189 406.387L87.6975 340.255L107.677 385.257L106.649 388.734C106.406 389.556 106.436 390.436 106.734 391.239C107.032 392.043 107.582 392.725 108.299 393.18C108.299 393.18 106.428 405.539 107.677 405.539C108.925 405.539 112.047 407.441 112.047 407.441C104.264 432.04 103.219 455.597 110.357 477.89L127.211 477.112L138.27 380.186L130.153 327.578L129.529 317.437L126.719 317.554L125.289 313.317L122.661 306.028L49.6122 310.465Z" fill="#2F2E41"/>
<path d="M48.533 313.66L48.4218 313.501C42.4789 305.055 51.417 284.758 52.7651 281.816L47.0871 279.945L42.1222 237.293L38.491 222.558C37.1229 216.988 37.2395 211.149 38.8289 205.639C40.4183 200.13 43.4232 195.15 47.5353 191.209L55.9286 183.175L66.1292 167.852H82.5787L88.2189 178.668C93.6872 179.951 98.5388 183.141 101.929 187.682C105.318 192.223 107.031 197.827 106.77 203.518L105.491 231.884L110.496 267.201L110.499 273.593L119.186 288.054L121.079 297.019C121.862 298.068 127.032 305.066 127.032 306.979C127.032 307.266 126.823 307.543 126.375 307.851C122.852 310.273 103.38 315.21 94.7618 311.709C85.5819 307.983 49.0904 313.573 48.7227 313.63L48.533 313.66Z" fill="#3F3D56"/>
<path d="M216.559 501.074C216.559 501.196 216.536 501.316 216.491 501.428C216.445 501.54 216.379 501.642 216.295 501.728C216.21 501.814 216.11 501.882 216 501.929C215.89 501.975 215.772 502 215.653 502H0.911683C0.66989 502 0.437997 501.902 0.267024 501.729C0.0960506 501.555 0 501.32 0 501.074C0 500.829 0.0960506 500.594 0.267024 500.42C0.437997 500.246 0.66989 500.149 0.911683 500.149H215.647C215.888 500.148 216.12 500.245 216.291 500.417C216.462 500.59 216.558 500.824 216.559 501.069V501.074Z" fill="#CCCCCC"/>
<path d="M76.4788 162.906C88.5106 162.906 98.2642 153.004 98.2642 140.79C98.2642 128.575 88.5106 118.674 76.4788 118.674C64.4471 118.674 54.6935 128.575 54.6935 140.79C54.6935 153.004 64.4471 162.906 76.4788 162.906Z" fill="#A0616A"/>
<path d="M157.35 157.769L123.738 183.959C123.738 183.959 99.803 192.446 92.0581 200.467L98.6418 216.335L128.619 205.981L165.751 167.785C167.045 167.546 168.254 166.965 169.256 166.1C170.259 165.236 171.019 164.118 171.461 162.861C171.903 161.603 172.011 160.249 171.774 158.936C171.536 157.622 170.963 156.395 170.11 155.379C169.257 154.362 168.156 153.591 166.916 153.144C165.677 152.697 164.343 152.589 163.05 152.831C161.756 153.074 160.548 153.658 159.548 154.525C158.547 155.391 157.789 156.511 157.35 157.769Z" fill="#A0616A"/>
<path d="M129.294 207.489L82.6014 221.369L66.5474 215.585C64.2238 214.474 62.2526 212.725 60.8566 210.537C59.4606 208.348 58.6955 205.806 58.6476 203.199C58.5617 195.865 64.7205 198.483 71.9222 197.898C80.8906 191.968 107.642 183.022 122.639 184.94L125.876 190.716L129.294 207.489Z" fill="#3F3D56"/>
<path d="M91.4173 115.255C89.8559 115.208 90.3919 112.22 89.134 111.267C89.1278 111.296 89.1215 111.325 89.1149 111.354C88.95 111.999 88.5853 112.574 88.0745 112.993C87.5638 113.412 86.9339 113.653 86.2777 113.682C85.6216 113.71 84.9737 113.524 84.4297 113.151C83.8856 112.777 83.474 112.236 83.2555 111.607C83.0469 110.88 82.6693 110.214 82.1544 109.666C81.6395 109.117 81.0025 108.703 80.2968 108.456C80.2184 111.226 78.1551 113.629 75.6935 114.825C73.2319 116.021 70.4252 116.22 67.6965 116.261C64.9678 116.302 62.1998 116.209 59.5537 116.887C56.9077 117.565 54.3339 119.159 53.2034 121.68C52.0728 124.202 52.8795 127.674 55.3515 128.847C53.4364 128.858 51.8115 130.462 51.1493 132.286C50.6065 134.157 50.4649 136.125 50.734 138.056C51.2723 145.208 52.5845 152.907 57.7141 157.839C61.6236 161.598 67.2195 163.112 72.604 163.091C77.9886 163.069 77.0418 162.566 82.2481 161.171C82.2481 161.171 87.1978 146.766 85.9514 145.349C84.705 143.932 83.6698 142.118 83.8954 140.232C84.1209 138.347 86.1174 136.657 87.85 137.375C87.5586 136.619 87.3391 136.475 87.2017 136.513C87.2892 136.298 87.3656 136.079 87.4306 135.856C87.7567 134.72 88.3439 133.678 89.1437 132.817C89.9435 131.956 90.9332 131.3 92.0315 130.903C93.1408 130.538 94.3337 130.526 95.45 130.869C96.5662 131.211 97.5524 131.893 98.2759 132.822C103.977 127.394 100.44 115.527 91.4173 115.255Z" fill="#2F2E41"/>
<path d="M460.183 26.8202H112.14C111.778 26.8124 111.434 26.6609 111.181 26.3982C110.927 26.1356 110.785 25.7826 110.785 25.4151C110.785 25.0475 110.927 24.6946 111.181 24.432C111.434 24.1693 111.778 24.0178 112.14 24.01H460.183C460.545 24.0178 460.889 24.1693 461.143 24.432C461.396 24.6946 461.538 25.0475 461.538 25.4151C461.538 25.7826 461.396 26.1356 461.143 26.3982C460.889 26.6609 460.545 26.8124 460.183 26.8202Z" fill="#CACACA"/>
<path d="M135.832 16.836C140.312 16.836 143.943 13.0671 143.943 8.41798C143.943 3.76886 140.312 0 135.832 0C131.352 0 127.721 3.76886 127.721 8.41798C127.721 13.0671 131.352 16.836 135.832 16.836Z" fill="#3F3D56"/>
<path d="M163.853 16.836C168.333 16.836 171.964 13.0671 171.964 8.41798C171.964 3.76886 168.333 0 163.853 0C159.373 0 155.742 3.76886 155.742 8.41798C155.742 13.0671 159.373 16.836 163.853 16.836Z" fill="#3F3D56"/>
<path d="M191.874 16.836C196.353 16.836 199.985 13.0671 199.985 8.41798C199.985 3.76886 196.353 0 191.874 0C187.394 0 183.762 3.76886 183.762 8.41798C183.762 13.0671 187.394 16.836 191.874 16.836Z" fill="#3F3D56"/>
<path d="M443.312 2.08643H423.407C423.013 2.09435 422.637 2.25904 422.361 2.54511C422.084 2.83118 421.93 3.21582 421.93 3.61644C421.93 4.01707 422.084 4.40172 422.361 4.68779C422.637 4.97386 423.013 5.13853 423.407 5.14646H443.312C443.706 5.13853 444.082 4.97386 444.358 4.68779C444.635 4.40172 444.789 4.01707 444.789 3.61644C444.789 3.21582 444.635 2.83118 444.358 2.54511C444.082 2.25904 443.706 2.09435 443.312 2.08643Z" fill="#3F3D56"/>
<path d="M443.312 7.82983H423.407C423.013 7.83776 422.637 8.00243 422.361 8.2885C422.084 8.57458 421.93 8.95923 421.93 9.35985C421.93 9.76047 422.084 10.1451 422.361 10.4312C422.637 10.7173 423.013 10.8819 423.407 10.8899H443.312C443.706 10.8819 444.082 10.7173 444.358 10.4312C444.635 10.1451 444.789 9.76047 444.789 9.35985C444.789 8.95923 444.635 8.57458 444.358 8.2885C444.082 8.00243 443.706 7.83776 443.312 7.82983Z" fill="#3F3D56"/>
<path d="M443.312 13.5654H423.407C423.013 13.5734 422.637 13.738 422.361 14.0241C422.084 14.3102 421.93 14.6948 421.93 15.0954C421.93 15.4961 422.084 15.8807 422.361 16.1668C422.637 16.4529 423.013 16.6175 423.407 16.6255H443.312C443.706 16.6175 444.082 16.4529 444.358 16.1668C444.635 15.8807 444.789 15.4961 444.789 15.0954C444.789 14.6948 444.635 14.3102 444.358 14.0241C444.082 13.738 443.706 13.5734 443.312 13.5654Z" fill="#3F3D56"/>
<path d="M275.094 105.792V126.916C275.094 127.966 273.286 128.845 270.85 129.086C270.829 129.085 270.808 129.088 270.789 129.094C270.383 129.125 269.954 129.148 269.517 129.148C268.174 129.173 266.837 128.952 265.571 128.495C265.457 128.448 265.342 128.394 265.227 128.347C265.119 128.285 265.005 128.231 264.897 128.168C264.292 127.803 263.94 127.375 263.94 126.916V105.792H275.094Z" fill="#CCCCCC"/>
<path d="M444.425 365.667C449.66 365.667 453.904 361.359 453.904 356.045C453.904 350.73 449.66 346.422 444.425 346.422C439.19 346.422 434.947 350.73 434.947 356.045C434.947 361.359 439.19 365.667 444.425 365.667Z" fill="#3F3D56"/>
<path d="M443.716 359.89C443.695 359.89 443.675 359.89 443.655 359.889C443.476 359.88 443.302 359.832 443.143 359.749C442.985 359.665 442.846 359.547 442.736 359.404L441.152 357.337C441.052 357.206 440.978 357.057 440.935 356.898C440.892 356.738 440.88 356.572 440.9 356.408C440.92 356.244 440.972 356.085 441.053 355.941C441.133 355.798 441.241 355.671 441.369 355.57L441.426 355.525C441.555 355.423 441.702 355.348 441.859 355.304C442.016 355.26 442.18 355.248 442.342 355.269C442.503 355.289 442.66 355.342 442.801 355.424C442.943 355.506 443.067 355.615 443.167 355.746C443.247 355.85 443.348 355.935 443.464 355.996C443.58 356.057 443.707 356.092 443.837 356.099C443.967 356.105 444.097 356.083 444.218 356.034C444.338 355.984 444.447 355.909 444.537 355.813L447.753 352.366C447.98 352.124 448.291 351.983 448.62 351.974C448.949 351.965 449.268 352.089 449.507 352.318L449.559 352.369C449.678 352.483 449.773 352.619 449.839 352.77C449.905 352.921 449.942 353.084 449.946 353.249C449.951 353.414 449.923 353.579 449.865 353.733C449.806 353.888 449.719 354.029 449.607 354.149L444.615 359.497C444.5 359.621 444.36 359.72 444.205 359.788C444.051 359.856 443.884 359.891 443.716 359.89Z" fill="white"/>
<path d="M496.521 186.784C501.756 186.784 506 182.476 506 177.161C506 171.847 501.756 167.539 496.521 167.539C491.286 167.539 487.043 171.847 487.043 177.161C487.043 182.476 491.286 186.784 496.521 186.784Z" fill="#3F3D56"/>
<path d="M495.812 181.007C495.791 181.007 495.771 181.006 495.751 181.005C495.573 180.997 495.398 180.949 495.239 180.865C495.081 180.781 494.942 180.664 494.832 180.521L493.248 178.453C493.148 178.323 493.074 178.173 493.031 178.014C492.988 177.855 492.976 177.688 492.996 177.524C493.016 177.36 493.068 177.202 493.149 177.058C493.229 176.914 493.337 176.788 493.465 176.686L493.522 176.641C493.651 176.54 493.798 176.465 493.955 176.421C494.112 176.377 494.276 176.365 494.438 176.385C494.6 176.406 494.756 176.459 494.897 176.54C495.039 176.622 495.163 176.731 495.263 176.862C495.343 176.966 495.445 177.052 495.56 177.113C495.676 177.174 495.803 177.209 495.933 177.215C496.063 177.221 496.193 177.199 496.314 177.15C496.435 177.101 496.543 177.026 496.633 176.93L499.849 173.483C500.076 173.241 500.387 173.1 500.716 173.091C501.045 173.081 501.364 173.205 501.603 173.434L501.655 173.485C501.774 173.599 501.869 173.735 501.935 173.886C502.002 174.037 502.038 174.2 502.042 174.365C502.047 174.531 502.019 174.695 501.961 174.85C501.903 175.004 501.815 175.145 501.703 175.265L496.712 180.614C496.596 180.738 496.456 180.837 496.302 180.904C496.147 180.972 495.98 181.007 495.812 181.007Z" fill="white"/>
</g>
<defs>
<clipPath id="clip0_198_516">
<rect width="506" height="502" fill="white"/>
</clipPath>
</defs>
</svg>
